<svg width="223" height="65" viewBox="0 0 223 65" fill="none" xmlns="http://www.w3.org/2000/svg">
<path d="M77.809 22.808C77.921 23.304 77.977 23.856 77.977 24.464C77.977 24.88 77.953 25.32 77.905 25.784C77.745 26.888 77.489 27.856 77.137 28.688C76.657 29.776 75.985 30.632 75.121 31.256C74.257 31.88 73.289 32.192 72.217 32.192C71.081 32.192 70.241 31.752 69.697 30.872C69.681 30.84 69.657 30.832 69.625 30.848C69.593 30.848 69.569 30.872 69.553 30.92L69.457 31.712C69.441 31.792 69.401 31.864 69.337 31.928C69.289 31.976 69.225 32 69.145 32H66.433C66.257 32 66.169 31.904 66.169 31.712L68.161 15.488C68.177 15.408 68.217 15.344 68.281 15.296C68.345 15.232 68.417 15.2 68.497 15.2H71.209C71.289 15.2 71.353 15.232 71.401 15.296C71.449 15.344 71.465 15.408 71.449 15.488L70.825 20.624C70.809 20.672 70.817 20.704 70.849 20.72C70.881 20.736 70.913 20.72 70.945 20.672C71.665 19.872 72.577 19.472 73.681 19.472C74.817 19.472 75.729 19.776 76.417 20.384C77.121 20.976 77.585 21.784 77.809 22.808ZM73.705 28.256C74.105 27.664 74.369 26.864 74.497 25.856C74.529 25.632 74.545 25.328 74.545 24.944C74.545 24.256 74.441 23.712 74.233 23.312C73.945 22.688 73.433 22.376 72.697 22.376C72.025 22.376 71.473 22.688 71.041 23.312C70.625 23.904 70.345 24.744 70.201 25.832C70.153 26.168 70.129 26.496 70.129 26.816C70.129 27.408 70.209 27.888 70.369 28.256C70.673 28.944 71.177 29.288 71.881 29.288C72.633 29.288 73.241 28.944 73.705 28.256ZM87.7728 19.952C87.7888 19.872 87.8208 19.808 87.8688 19.76C87.9328 19.696 88.0048 19.664 88.0848 19.664H90.8208C90.9008 19.664 90.9648 19.696 91.0128 19.76C91.0608 19.808 91.0768 19.872 91.0608 19.952L89.6208 31.712C89.6048 31.792 89.5648 31.864 89.5008 31.928C89.4528 31.976 89.3888 32 89.3088 32H86.5728C86.4928 32 86.4288 31.976 86.3808 31.928C86.3328 31.864 86.3168 31.792 86.3328 31.712L86.4528 30.68C86.4688 30.616 86.4608 30.584 86.4288 30.584C86.3968 30.568 86.3648 30.584 86.3328 30.632C85.5648 31.672 84.5248 32.192 83.2128 32.192C82.1888 32.192 81.3168 31.872 80.5968 31.232C79.8768 30.576 79.4368 29.696 79.2768 28.592C79.2288 28.256 79.2048 27.912 79.2048 27.56C79.2048 27.08 79.2448 26.496 79.3248 25.808C79.4848 24.56 79.7408 23.536 80.0928 22.736C80.5248 21.776 81.1648 20.992 82.0128 20.384C82.8768 19.776 83.8448 19.472 84.9168 19.472C86.1968 19.472 87.0688 19.936 87.5328 20.864C87.5648 20.912 87.5888 20.936 87.6048 20.936C87.6368 20.936 87.6608 20.904 87.6768 20.84L87.7728 19.952ZM86.5248 27.872C86.6528 27.632 86.7568 27.368 86.8368 27.08C86.9168 26.792 86.9888 26.384 87.0528 25.856C87.1168 25.424 87.1488 25.048 87.1488 24.728C87.1488 24.456 87.1008 24.128 87.0048 23.744C86.9248 23.328 86.7408 23 86.4528 22.76C86.1648 22.504 85.7968 22.376 85.3488 22.376C84.8848 22.376 84.4688 22.504 84.1008 22.76C83.7488 23.016 83.4768 23.352 83.2848 23.768C83.0288 24.248 82.8528 24.936 82.7568 25.832C82.6928 26.28 82.6608 26.672 82.6608 27.008C82.6608 27.312 82.7008 27.6 82.7808 27.872C82.8608 28.304 83.0528 28.648 83.3568 28.904C83.6608 29.16 84.0448 29.288 84.5088 29.288C84.9728 29.288 85.3728 29.16 85.7088 28.904C86.0608 28.648 86.3328 28.304 86.5248 27.872ZM96.8258 32.192C95.5938 32.192 94.5618 31.872 93.7298 31.232C92.8978 30.592 92.3538 29.712 92.0978 28.592C92.0018 28.128 91.9538 27.64 91.9538 27.128C91.9538 26.856 91.9858 26.4 92.0498 25.76C92.1778 24.736 92.4258 23.808 92.7938 22.976C93.3058 21.888 94.0578 21.032 95.0498 20.408C96.0418 19.784 97.1538 19.472 98.3858 19.472C99.6338 19.472 100.682 19.792 101.53 20.432C102.394 21.072 102.922 21.88 103.114 22.856C103.178 23.096 103.21 23.384 103.21 23.72C103.21 23.8 103.178 23.872 103.114 23.936C103.066 23.984 103.002 24.016 102.922 24.032L100.21 24.44H100.162C100.002 24.44 99.9218 24.36 99.9218 24.2L99.8978 23.816C99.8338 23.4 99.6338 23.056 99.2978 22.784C98.9618 22.512 98.5378 22.376 98.0258 22.376C97.5298 22.376 97.0898 22.504 96.7058 22.76C96.3378 23.016 96.0578 23.368 95.8658 23.816C95.6258 24.328 95.4578 24.984 95.3618 25.784C95.3138 26.184 95.2898 26.552 95.2898 26.888C95.2898 27.24 95.3138 27.528 95.3618 27.752C95.4418 28.232 95.6338 28.608 95.9378 28.88C96.2418 29.152 96.6498 29.288 97.1618 29.288C97.6578 29.288 98.0978 29.16 98.4818 28.904C98.8818 28.632 99.1778 28.264 99.3698 27.8C99.4018 27.736 99.4178 27.688 99.4178 27.656C99.4338 27.64 99.4418 27.616 99.4418 27.584C99.4898 27.392 99.6098 27.312 99.8018 27.344L102.418 27.776C102.594 27.808 102.666 27.912 102.634 28.088C102.57 28.344 102.49 28.568 102.394 28.76C101.93 29.832 101.194 30.672 100.186 31.28C99.1778 31.888 98.0578 32.192 96.8258 32.192ZM103.997 32C103.917 32 103.853 31.976 103.805 31.928C103.757 31.864 103.741 31.792 103.757 31.712L105.749 15.488C105.749 15.408 105.781 15.344 105.845 15.296C105.909 15.232 105.981 15.2 106.061 15.2H108.773C108.853 15.2 108.917 15.232 108.965 15.296C109.013 15.344 109.029 15.408 109.013 15.488L108.029 23.576C108.013 23.624 108.021 23.656 108.053 23.672C108.085 23.672 108.117 23.656 108.149 23.624L111.797 19.832C111.909 19.72 112.029 19.664 112.157 19.664H115.253C115.397 19.664 115.469 19.712 115.469 19.808C115.469 19.888 115.437 19.96 115.373 20.024L111.941 23.888C111.909 23.952 111.893 24.008 111.893 24.056L114.437 31.664C114.453 31.696 114.461 31.736 114.461 31.784C114.461 31.928 114.373 32 114.197 32H111.317C111.173 32 111.077 31.928 111.029 31.784L109.397 26.168C109.397 26.136 109.373 26.12 109.325 26.12C109.293 26.104 109.269 26.112 109.253 26.144L107.525 28.064C107.509 28.08 107.493 28.104 107.477 28.136C107.461 28.152 107.453 28.176 107.453 28.208L107.021 31.712C107.005 31.792 106.965 31.864 106.901 31.928C106.853 31.976 106.789 32 106.709 32H103.997ZM162.36 32.168C160.888 32.168 159.728 31.88 158.88 31.304C158.032 30.712 157.608 29.936 157.608 28.976C157.608 28.816 157.616 28.688 157.632 28.592L157.656 28.352C157.672 28.272 157.704 28.208 157.752 28.16C157.816 28.096 157.888 28.064 157.968 28.064H160.56C160.64 28.064 160.704 28.096 160.752 28.16C160.8 28.208 160.816 28.272 160.8 28.352V28.376C160.752 28.728 160.904 29.032 161.256 29.288C161.608 29.528 162.072 29.648 162.648 29.648C163.192 29.648 163.64 29.536 163.992 29.312C164.36 29.072 164.544 28.776 164.544 28.424C164.544 28.168 164.408 27.976 164.136 27.848C163.864 27.704 163.448 27.56 162.888 27.416C162.184 27.208 161.632 27.024 161.232 26.864C160.368 26.544 159.68 26.16 159.168 25.712C158.656 25.264 158.4 24.632 158.4 23.816C158.4 22.952 158.632 22.192 159.096 21.536C159.56 20.88 160.2 20.376 161.016 20.024C161.832 19.672 162.752 19.496 163.776 19.496C165.168 19.496 166.264 19.816 167.064 20.456C167.88 21.08 168.288 21.904 168.288 22.928C168.288 23.136 168.28 23.288 168.264 23.384C168.248 23.464 168.208 23.536 168.144 23.6C168.096 23.648 168.032 23.672 167.952 23.672H165.456C165.376 23.672 165.312 23.648 165.264 23.6C165.216 23.536 165.2 23.464 165.216 23.384C165.248 23.032 165.104 22.736 164.784 22.496C164.48 22.256 164.04 22.136 163.464 22.136C162.92 22.136 162.464 22.24 162.096 22.448C161.744 22.656 161.568 22.944 161.568 23.312C161.568 23.6 161.72 23.824 162.024 23.984C162.328 24.128 162.824 24.288 163.512 24.464C164.088 24.608 164.496 24.72 164.736 24.8C165.712 25.104 166.48 25.496 167.04 25.976C167.6 26.44 167.88 27.096 167.88 27.944C167.88 28.136 167.872 28.288 167.856 28.4C167.696 29.584 167.12 30.512 166.128 31.184C165.136 31.84 163.88 32.168 162.36 32.168ZM176.968 22.088C176.952 22.168 176.912 22.24 176.848 22.304C176.8 22.352 176.736 22.376 176.656 22.376H174.424C174.36 22.376 174.312 22.416 174.28 22.496L173.656 27.584C173.64 27.68 173.632 27.808 173.632 27.968C173.632 28.752 174.016 29.144 174.784 29.144H175.552C175.632 29.144 175.696 29.176 175.744 29.24C175.808 29.288 175.832 29.352 175.816 29.432L175.528 31.712C175.496 31.904 175.392 32.008 175.216 32.024C174.576 32.056 174.104 32.072 173.8 32.072C172.616 32.072 171.728 31.896 171.136 31.544C170.56 31.176 170.272 30.512 170.272 29.552C170.272 29.424 170.288 29.216 170.32 28.928L171.112 22.496C171.144 22.416 171.112 22.376 171.016 22.376H169.696C169.616 22.376 169.552 22.352 169.504 22.304C169.456 22.24 169.44 22.168 169.456 22.088L169.72 19.952C169.72 19.872 169.752 19.808 169.816 19.76C169.88 19.696 169.952 19.664 170.032 19.664H171.352C171.432 19.664 171.472 19.624 171.472 19.544L171.832 16.688C171.848 16.608 171.88 16.544 171.928 16.496C171.992 16.432 172.064 16.4 172.144 16.4H174.76C174.84 16.4 174.904 16.432 174.952 16.496C175 16.544 175.016 16.608 175 16.688L174.64 19.544C174.64 19.624 174.68 19.664 174.76 19.664H176.992C177.072 19.664 177.136 19.696 177.184 19.76C177.232 19.808 177.248 19.872 177.232 19.952L176.968 22.088ZM186.196 19.952C186.212 19.872 186.244 19.808 186.292 19.76C186.356 19.696 186.428 19.664 186.508 19.664H189.244C189.324 19.664 189.388 19.696 189.436 19.76C189.484 19.808 189.5 19.872 189.484 19.952L188.044 31.712C188.028 31.792 187.988 31.864 187.924 31.928C187.876 31.976 187.812 32 187.732 32H184.996C184.916 32 184.852 31.976 184.804 31.928C184.756 31.864 184.74 31.792 184.756 31.712L184.876 30.68C184.892 30.616 184.884 30.584 184.852 30.584C184.82 30.568 184.788 30.584 184.756 30.632C183.988 31.672 182.948 32.192 181.636 32.192C180.612 32.192 179.74 31.872 179.02 31.232C178.3 30.576 177.86 29.696 177.7 28.592C177.652 28.256 177.628 27.912 177.628 27.56C177.628 27.08 177.668 26.496 177.748 25.808C177.908 24.56 178.164 23.536 178.516 22.736C178.948 21.776 179.588 20.992 180.436 20.384C181.3 19.776 182.268 19.472 183.34 19.472C184.62 19.472 185.492 19.936 185.956 20.864C185.988 20.912 186.012 20.936 186.028 20.936C186.06 20.936 186.084 20.904 186.1 20.84L186.196 19.952ZM184.948 27.872C185.076 27.632 185.18 27.368 185.26 27.08C185.34 26.792 185.412 26.384 185.476 25.856C185.54 25.424 185.572 25.048 185.572 24.728C185.572 24.456 185.524 24.128 185.428 23.744C185.348 23.328 185.164 23 184.876 22.76C184.588 22.504 184.22 22.376 183.772 22.376C183.308 22.376 182.892 22.504 182.524 22.76C182.172 23.016 181.9 23.352 181.708 23.768C181.452 24.248 181.276 24.936 181.18 25.832C181.116 26.28 181.084 26.672 181.084 27.008C181.084 27.312 181.124 27.6 181.204 27.872C181.284 28.304 181.476 28.648 181.78 28.904C182.084 29.16 182.468 29.288 182.932 29.288C183.396 29.288 183.796 29.16 184.132 28.904C184.484 28.648 184.756 28.304 184.948 27.872ZM195.249 32.192C194.017 32.192 192.985 31.872 192.153 31.232C191.321 30.592 190.777 29.712 190.521 28.592C190.425 28.128 190.377 27.64 190.377 27.128C190.377 26.856 190.409 26.4 190.473 25.76C190.601 24.736 190.849 23.808 191.217 22.976C191.729 21.888 192.481 21.032 193.473 20.408C194.465 19.784 195.577 19.472 196.809 19.472C198.057 19.472 199.105 19.792 199.953 20.432C200.817 21.072 201.345 21.88 201.537 22.856C201.601 23.096 201.633 23.384 201.633 23.72C201.633 23.8 201.601 23.872 201.537 23.936C201.489 23.984 201.425 24.016 201.345 24.032L198.633 24.44H198.585C198.425 24.44 198.345 24.36 198.345 24.2L198.321 23.816C198.257 23.4 198.057 23.056 197.721 22.784C197.385 22.512 196.961 22.376 196.449 22.376C195.953 22.376 195.513 22.504 195.129 22.76C194.761 23.016 194.481 23.368 194.289 23.816C194.049 24.328 193.881 24.984 193.785 25.784C193.737 26.184 193.713 26.552 193.713 26.888C193.713 27.24 193.737 27.528 193.785 27.752C193.865 28.232 194.057 28.608 194.361 28.88C194.665 29.152 195.073 29.288 195.585 29.288C196.081 29.288 196.521 29.16 196.905 28.904C197.305 28.632 197.601 28.264 197.793 27.8C197.825 27.736 197.841 27.688 197.841 27.656C197.857 27.64 197.865 27.616 197.865 27.584C197.913 27.392 198.033 27.312 198.225 27.344L200.841 27.776C201.017 27.808 201.089 27.912 201.057 28.088C200.993 28.344 200.913 28.568 200.817 28.76C200.353 29.832 199.617 30.672 198.609 31.28C197.601 31.888 196.481 32.192 195.249 32.192ZM202.421 32C202.341 32 202.277 31.976 202.229 31.928C202.181 31.864 202.165 31.792 202.181 31.712L204.173 15.488C204.173 15.408 204.205 15.344 204.269 15.296C204.333 15.232 204.405 15.2 204.485 15.2H207.197C207.277 15.2 207.341 15.232 207.389 15.296C207.437 15.344 207.453 15.408 207.437 15.488L206.453 23.576C206.437 23.624 206.445 23.656 206.477 23.672C206.509 23.672 206.541 23.656 206.573 23.624L210.221 19.832C210.333 19.72 210.453 19.664 210.581 19.664H213.677C213.821 19.664 213.893 19.712 213.893 19.808C213.893 19.888 213.861 19.96 213.797 20.024L210.365 23.888C210.333 23.952 210.317 24.008 210.317 24.056L212.861 31.664C212.877 31.696 212.885 31.736 212.885 31.784C212.885 31.928 212.797 32 212.621 32H209.741C209.597 32 209.501 31.928 209.453 31.784L207.821 26.168C207.821 26.136 207.797 26.12 207.749 26.12C207.717 26.104 207.693 26.112 207.677 26.144L205.949 28.064C205.933 28.08 205.917 28.104 205.901 28.136C205.885 28.152 205.877 28.176 205.877 28.208L205.445 31.712C205.429 31.792 205.389 31.864 205.325 31.928C205.277 31.976 205.213 32 205.133 32H202.421Z" fill="#2F20A3"/>
<path d="M115.276 36.8C115.164 36.8 115.124 36.72 115.156 36.56L115.228 35.936C115.26 35.776 115.348 35.696 115.492 35.696H115.588C116.18 35.68 116.652 35.576 117.004 35.384C117.356 35.208 117.684 34.872 117.988 34.376C118.292 33.88 118.668 33.112 119.116 32.072C119.148 31.992 119.156 31.944 119.14 31.928L116.596 20.168V20.12C116.596 19.976 116.668 19.904 116.812 19.904H117.604C117.668 19.904 117.724 19.92 117.772 19.952C117.82 19.984 117.852 20.032 117.868 20.096L119.932 30.272C119.932 30.304 119.948 30.32 119.98 30.32C120.028 30.32 120.06 30.304 120.076 30.272L124.516 20.096C124.596 19.968 124.7 19.904 124.828 19.904H125.62C125.796 19.904 125.844 19.992 125.764 20.168L119.764 33.224C119.284 34.264 118.86 35.032 118.492 35.528C118.124 36.024 117.716 36.36 117.268 36.536C116.82 36.712 116.212 36.8 115.444 36.8H115.276ZM130.496 32.192C129.392 32.192 128.488 31.904 127.784 31.328C127.096 30.736 126.672 29.936 126.512 28.928C126.48 28.752 126.464 28.456 126.464 28.04C126.464 27.4 126.52 26.696 126.632 25.928C126.776 24.616 126.976 23.624 127.232 22.952C127.632 21.96 128.256 21.176 129.104 20.6C129.952 20.008 130.928 19.712 132.032 19.712C133.12 19.712 134.024 20.008 134.744 20.6C135.464 21.192 135.888 21.976 136.016 22.952C136.048 23.112 136.064 23.384 136.064 23.768C136.064 24.248 136.008 24.968 135.896 25.928C135.8 26.664 135.704 27.256 135.608 27.704C135.528 28.152 135.424 28.56 135.296 28.928C134.896 29.92 134.264 30.712 133.4 31.304C132.552 31.896 131.584 32.192 130.496 32.192ZM130.616 31.064C131.448 31.064 132.184 30.832 132.824 30.368C133.464 29.888 133.912 29.264 134.168 28.496C134.344 28.032 134.504 27.184 134.648 25.952C134.776 24.96 134.84 24.232 134.84 23.768C134.84 22.904 134.568 22.2 134.024 21.656C133.496 21.112 132.784 20.84 131.888 20.84C131.056 20.84 130.32 21.072 129.68 21.536C129.056 22 128.608 22.624 128.336 23.408C128.144 23.936 127.984 24.784 127.856 25.952C127.744 26.928 127.688 27.608 127.688 27.992C127.688 28.232 127.696 28.4 127.712 28.496C127.776 29.28 128.064 29.904 128.576 30.368C129.104 30.832 129.784 31.064 130.616 31.064ZM147.051 20.144C147.083 19.984 147.171 19.904 147.315 19.904H148.059C148.139 19.904 148.195 19.928 148.227 19.976C148.275 20.024 148.291 20.08 148.275 20.144L146.835 31.76C146.835 31.824 146.811 31.88 146.763 31.928C146.715 31.976 146.651 32 146.571 32H145.827C145.763 32 145.707 31.976 145.659 31.928C145.627 31.88 145.619 31.824 145.635 31.76L145.779 30.584C145.779 30.536 145.763 30.512 145.731 30.512C145.715 30.496 145.699 30.512 145.683 30.56C144.867 31.632 143.707 32.168 142.203 32.168C141.147 32.168 140.291 31.872 139.635 31.28C138.979 30.688 138.651 29.872 138.651 28.832C138.651 28.704 138.667 28.496 138.699 28.208L139.683 20.144C139.715 19.984 139.803 19.904 139.947 19.904H140.691C140.851 19.904 140.915 19.984 140.883 20.144L139.947 27.872C139.931 28 139.923 28.176 139.923 28.4C139.923 29.216 140.155 29.864 140.619 30.344C141.099 30.808 141.755 31.04 142.587 31.04C143.531 31.04 144.323 30.752 144.963 30.176C145.603 29.584 145.987 28.816 146.115 27.872L147.051 20.144ZM156.385 19.808C156.913 19.808 157.345 19.904 157.681 20.096C157.793 20.128 157.833 20.232 157.801 20.408L157.489 21.176C157.409 21.336 157.305 21.384 157.177 21.32C156.857 21.192 156.473 21.136 156.025 21.152C155.161 21.168 154.401 21.512 153.745 22.184C153.105 22.84 152.721 23.648 152.593 24.608L151.729 31.76C151.697 31.92 151.609 32 151.465 32H150.697C150.617 32 150.553 31.976 150.505 31.928C150.473 31.88 150.465 31.824 150.481 31.76L151.921 20.144C151.921 20.08 151.945 20.024 151.993 19.976C152.041 19.928 152.105 19.904 152.185 19.904H152.953C153.017 19.904 153.065 19.928 153.097 19.976C153.145 20.024 153.161 20.08 153.145 20.144L152.953 21.776C152.937 21.824 152.945 21.856 152.977 21.872C153.009 21.872 153.033 21.848 153.049 21.8C153.449 21.176 153.929 20.688 154.489 20.336C155.049 19.984 155.681 19.808 156.385 19.808Z" fill="#6E4AFF"/>
<path fill-rule="evenodd" clip-rule="evenodd" d="M37.0666 1.30785L50.9261 9.53741C53.0159 10.7783 54.2941 13.0105 54.2941 15.4189V32.9935C54.2941 35.4568 52.9575 37.7311 50.792 38.9526L36.8877 46.7957C34.0411 48.4014 30.5472 48.4014 27.7005 46.7957L13.7963 38.9526C11.6307 37.7311 10.2941 35.4568 10.2941 32.9935L10.2941 15.4189C10.2941 13.0105 11.5724 10.7783 13.6621 9.53741L27.5216 1.30785C30.4584 -0.435952 34.1298 -0.435952 37.0666 1.30785Z" fill="url(#paint0_linear)"/>
<g filter="url(#filter0_d)">
<path d="M36.9707 22.5059L46.9838 28.4105C48.082 29.058 48.4407 30.4624 47.7852 31.5471C47.5867 31.8755 47.3081 32.1494 46.9747 32.344L35.5547 39.0088C34.264 39.7621 33.7556 39.9566 33.157 40.0842C32.5584 40.2117 31.9749 40.2109 31.3766 40.0817C30.7783 39.9525 30.2706 39.7566 28.9819 38.9997L17.2756 32.1241C16.1763 31.4785 15.8151 30.0748 16.4687 28.9889C16.668 28.6578 16.9487 28.3818 17.2848 28.1865L27.1118 22.475C29.05 21.3485 29.813 21.0581 30.7112 20.8683C31.6095 20.6785 32.4847 20.6813 33.3817 20.8767C34.2787 21.0721 35.0398 21.3673 36.9707 22.5059Z" fill="url(#paint1_linear)"/>
</g>
<g filter="url(#filter1_d)">
<path d="M36.9707 16.3233L46.9838 22.2279C48.082 22.8755 48.4407 24.2798 47.7852 25.3645C47.5867 25.6929 47.3081 25.9669 46.9747 26.1614L35.5547 32.8262C34.264 33.5795 33.7556 33.774 33.157 33.9016C32.5584 34.0292 31.9749 34.0284 31.3766 33.8991C30.7783 33.7699 30.2706 33.574 28.9819 32.8171L17.2756 25.9416C16.1763 25.2959 15.8151 23.8922 16.4687 22.8063C16.668 22.4753 16.9487 22.1993 17.2848 22.0039L27.1118 16.2924C29.05 15.1659 29.813 14.8755 30.7112 14.6858C31.6095 14.496 32.4847 14.4987 33.3817 14.6941C34.2787 14.8896 35.0398 15.1847 36.9707 16.3233Z" fill="url(#paint2_linear)" style="mix-blend-mode:screen"/>
</g>
<g filter="url(#filter2_d)">
<path d="M36.9707 10.1412L46.9838 16.0458C48.082 16.6934 48.4407 18.0977 47.7852 19.1824C47.5867 19.5108 47.3081 19.7847 46.9747 19.9793L35.5547 26.6441C34.264 27.3974 33.7556 27.5919 33.157 27.7195C32.5584 27.8471 31.9749 27.8463 31.3766 27.717C30.7783 27.5878 30.2706 27.3919 28.9819 26.635L17.2757 19.7594C16.1763 19.1138 15.8151 17.7101 16.4687 16.6242C16.668 16.2931 16.9487 16.0171 17.2848 15.8218L27.1118 10.1103C29.05 8.98379 29.813 8.69342 30.7112 8.50363C31.6095 8.31383 32.4847 8.31658 33.3817 8.51201C34.2787 8.70743 35.0398 9.00259 36.9707 10.1412Z" fill="url(#paint3_linear)" style="mix-blend-mode:screen"/>
</g>
<defs>
<filter id="filter0_d" x="0.143066" y="12.728" width="63.9698" height="51.4512" filterUnits="userSpaceOnUse" color-interpolation-filters="sRGB">
<feFlood flood-opacity="0" result="BackgroundImageFix"/>
<feColorMatrix in="SourceAlpha" type="matrix" values="0 0 0 0 0 0 0 0 0 0 0 0 0 0 0 0 0 0 127 0"/>
<feOffset dy="8"/>
<feGaussianBlur stdDeviation="8"/>
<feColorMatrix type="matrix" values="0 0 0 0 0.0768 0 0 0 0 0.07808 0 0 0 0 0.08 0 0 0 0.08 0"/>
<feBlend mode="normal" in2="BackgroundImageFix" result="effect1_dropShadow"/>
<feBlend mode="normal" in="SourceGraphic" in2="effect1_dropShadow" result="shape"/>
</filter>
<filter id="filter1_d" x="0.143066" y="6.54546" width="63.9698" height="51.4512" filterUnits="userSpaceOnUse" color-interpolation-filters="sRGB">
<feFlood flood-opacity="0" result="BackgroundImageFix"/>
<feColorMatrix in="SourceAlpha" type="matrix" values="0 0 0 0 0 0 0 0 0 0 0 0 0 0 0 0 0 0 127 0"/>
<feOffset dy="8"/>
<feGaussianBlur stdDeviation="8"/>
<feColorMatrix type="matrix" values="0 0 0 0 0.0768 0 0 0 0 0.07808 0 0 0 0 0.08 0 0 0 0.08 0"/>
<feBlend mode="normal" in2="BackgroundImageFix" result="effect1_dropShadow"/>
<feBlend mode="normal" in="SourceGraphic" in2="effect1_dropShadow" result="shape"/>
</filter>
<filter id="filter2_d" x="0.143082" y="0.363327" width="63.9698" height="51.4512" filterUnits="userSpaceOnUse" color-interpolation-filters="sRGB">
<feFlood flood-opacity="0" result="BackgroundImageFix"/>
<feColorMatrix in="SourceAlpha" type="matrix" values="0 0 0 0 0 0 0 0 0 0 0 0 0 0 0 0 0 0 127 0"/>
<feOffset dy="8"/>
<feGaussianBlur stdDeviation="8"/>
<feColorMatrix type="matrix" values="0 0 0 0 0.0768 0 0 0 0 0.07808 0 0 0 0 0.08 0 0 0 0.08 0"/>
<feBlend mode="normal" in2="BackgroundImageFix" result="effect1_dropShadow"/>
<feBlend mode="normal" in="SourceGraphic" in2="effect1_dropShadow" result="shape"/>
</filter>
<linearGradient id="paint0_linear" x1="32.2941" y1="0" x2="32.2941" y2="48" gradientUnits="userSpaceOnUse">
<stop stop-color="#282878"/>
<stop offset="1" stop-color="#3131A0"/>
</linearGradient>
<linearGradient id="paint1_linear" x1="41.1557" y1="35.5319" x2="27.3169" y2="20.8137" gradientUnits="userSpaceOnUse">
<stop stop-color="#FDE75B"/>
<stop offset="1" stop-color="#FC57B3"/>
</linearGradient>
<linearGradient id="paint2_linear" x1="41.9923" y1="29.1569" x2="27.684" y2="14.262" gradientUnits="userSpaceOnUse">
<stop stop-color="#F67AFE"/>
<stop offset="1" stop-color="#662DFF"/>
</linearGradient>
<linearGradient id="paint3_linear" x1="41.6617" y1="23.1633" x2="22.1834" y2="1.14929" gradientUnits="userSpaceOnUse">
<stop stop-color="#4AF2FF"/>
<stop offset="1" stop-color="#3D44FF"/>
</linearGradient>
</defs>
</svg>
