<svg width="22" height="23" viewBox="0 0 22 23" fill="none" xmlns="http://www.w3.org/2000/svg">
<path d="M11 0.876953C4.91333 0.876953 0 5.82879 0 11.9632C0 17.0628 3.44667 21.4973 8.36 22.7537C8.43333 22.7537 8.58 22.7537 8.65333 22.6798C8.72667 22.6059 8.8 22.532 8.8 22.3842V19.7235C8.8 19.6496 8.72667 19.5018 8.72667 19.4279C8.65333 19.354 8.58 19.354 8.43333 19.354H7.7C6.52667 19.354 5.79333 18.2453 5.13333 17.2845C4.98667 17.1367 4.91333 16.915 4.76667 16.7672C5.20667 16.9889 5.5 17.2845 5.86667 17.6541C6.38 18.1714 6.89333 18.6888 7.77333 18.6888C8.14 18.6888 8.87333 18.3193 8.87333 17.2106V16.8411C8.87333 16.6933 8.8 16.5455 8.58 16.4715C6.08667 15.7325 4.47333 13.737 4.47333 11.4458C4.47333 10.2633 4.98667 9.08075 5.86667 8.19385C5.86667 8.04603 5.86667 7.89822 5.86667 7.7504C5.5 7.01132 5.86667 5.97661 6.38 5.38534C6.89333 5.60707 7.40667 6.19833 7.84667 6.64178C7.92 6.7896 8.14 6.7896 8.28667 6.71569L8.50667 6.64178C9.31333 6.34615 10.2667 5.97661 11.1467 5.97661C12.0267 5.97661 12.98 6.34615 13.7867 6.64178L14.0067 6.71569C14.1533 6.7896 14.3 6.71569 14.4467 6.64178C14.8867 6.12442 15.4 5.60707 15.9133 5.38534C16.4267 6.05052 16.7933 7.01132 16.4267 7.7504C16.1333 7.89822 16.1333 8.04603 16.2067 8.19385C17.0867 9.15465 17.6 10.1894 17.6 11.298C17.6 13.737 15.7667 15.8803 13.1267 16.4715C12.98 16.4715 12.9067 16.5455 12.9067 16.6933C12.9067 16.8411 12.8333 16.915 12.9067 16.9889C13.1267 17.3584 13.2 18.0975 13.2 19.0583C13.2 20.3148 13.2 22.4581 13.2 22.4581C13.2 22.6059 13.2733 22.6798 13.3467 22.7537C13.42 22.8276 13.4933 22.8276 13.5667 22.8276H13.64C18.5533 21.4973 22 17.0628 22 11.9632C22 5.82879 17.0867 0.876953 11 0.876953Z" fill="#9399A3"/>
</svg>
