<svg width="16" height="16" viewBox="0 0 16 16" fill="none" xmlns="http://www.w3.org/2000/svg">
<path d="M8 0C3.57333 0 0 3.60943 0 8.08081C0 11.798 2.50667 15.0303 6.08 15.9461C6.13333 15.9461 6.24 15.9461 6.29333 15.8923C6.34667 15.8384 6.4 15.7845 6.4 15.6768V13.7374C6.4 13.6835 6.34667 13.5758 6.34667 13.5219C6.29333 13.468 6.24 13.468 6.13333 13.468H5.6C4.74667 13.468 4.21333 12.6599 3.73333 11.9596C3.62667 11.8519 3.57333 11.6902 3.46667 11.5825C3.78667 11.7441 4 11.9596 4.26667 12.229C4.64 12.6061 5.01333 12.9832 5.65333 12.9832C5.92 12.9832 6.45333 12.7138 6.45333 11.9057V11.6364C6.45333 11.5286 6.4 11.4209 6.24 11.367C4.42667 10.8283 3.25333 9.37374 3.25333 7.7037C3.25333 6.84175 3.62667 5.9798 4.26667 5.33333C4.26667 5.22559 4.26667 5.11785 4.26667 5.0101C4 4.47138 4.26667 3.71717 4.64 3.2862C5.01333 3.44781 5.38667 3.87879 5.70667 4.20202C5.76 4.30976 5.92 4.30976 6.02667 4.25589L6.18667 4.20202C6.77333 3.98653 7.46667 3.71717 8.10667 3.71717C8.74667 3.71717 9.44 3.98653 10.0267 4.20202L10.1867 4.25589C10.2933 4.30976 10.4 4.25589 10.5067 4.20202C10.8267 3.82492 11.2 3.44781 11.5733 3.2862C11.9467 3.77104 12.2133 4.47138 11.9467 5.0101C11.7333 5.11785 11.7333 5.22559 11.7867 5.33333C12.4267 6.03367 12.8 6.78788 12.8 7.59596C12.8 9.37374 11.4667 10.936 9.54667 11.367C9.44 11.367 9.38667 11.4209 9.38667 11.5286C9.38667 11.6364 9.33333 11.6902 9.38667 11.7441C9.54667 12.0135 9.6 12.5522 9.6 13.2525C9.6 14.1684 9.6 15.7306 9.6 15.7306C9.6 15.8384 9.65333 15.8923 9.70667 15.9461C9.76 16 9.81333 16 9.86667 16H9.92C13.4933 15.0303 16 11.798 16 8.08081C16 3.60943 12.4267 0 8 0Z" fill="#4E5052"/>
</svg>
