<svg width="33" height="32" viewBox="0 0 33 32" fill="none" xmlns="http://www.w3.org/2000/svg">
<path d="M16.4077 0C7.56771 0 0.407715 7.34598 0.407715 16.406C0.407715 23.656 4.99171 29.8041 11.3477 31.9717C12.1477 32.1261 12.441 31.6183 12.441 31.1828C12.441 30.7933 12.4277 29.761 12.421 28.3933C7.97038 29.3825 7.03171 26.1923 7.03171 26.1923C6.30371 24.2988 5.25171 23.7923 5.25171 23.7923C3.80238 22.7753 5.36372 22.7962 5.36372 22.7962C6.97038 22.9103 7.81438 24.4866 7.81438 24.4866C9.24105 26.9951 11.5597 26.2702 12.4744 25.8514C12.6184 24.7899 13.0304 24.0678 13.4877 23.6574C9.93438 23.247 6.19971 21.8362 6.19971 15.5504C6.19971 13.7598 6.81972 12.2962 7.84638 11.1484C7.66638 10.7338 7.12638 9.0656 7.98638 6.80616C7.98638 6.80616 9.32638 6.36651 12.3864 8.48822C13.6664 8.1237 15.0264 7.94284 16.3864 7.93449C17.7464 7.94284 19.1064 8.1237 20.3864 8.48822C23.4264 6.36651 24.7664 6.80616 24.7664 6.80616C25.6264 9.0656 25.0864 10.7338 24.9264 11.1484C25.9464 12.2962 26.5664 13.7598 26.5664 15.5504C26.5664 21.8529 22.8264 23.24 19.2664 23.6435C19.8264 24.136 20.3464 25.1419 20.3464 26.6793C20.3464 28.8747 20.3264 30.6388 20.3264 31.1717C20.3264 31.6016 20.6064 32.115 21.4264 31.9508C27.8277 29.7971 32.4077 23.6449 32.4077 16.406C32.4077 7.34598 25.2437 0 16.4077 0Z" fill="#3C5869"/>
</svg>
