<svg width="244" height="80" viewBox="0 0 244 80" fill="none" xmlns="http://www.w3.org/2000/svg">
<g clip-path="url(#clip0)">
<g filter="url(#filter0_d)">
<path d="M38.8034 37.7597L53.3679 46.6166C54.9652 47.588 55.4871 49.6944 54.5335 51.3215C54.2448 51.8141 53.8396 52.225 53.3547 52.5168L36.7438 62.514C34.8663 63.644 34.1269 63.9357 33.2562 64.1271C32.3855 64.3185 31.5367 64.3173 30.6665 64.1234C29.7963 63.9296 29.0577 63.6357 27.1833 62.5004L10.156 52.1871C8.55702 51.2186 8.03154 49.113 8.98233 47.4842C9.27222 46.9876 9.68052 46.5736 10.1694 46.2806L24.4632 37.7133C27.2824 36.0236 28.3922 35.588 29.6987 35.3034C31.0052 35.0187 32.2784 35.0228 33.5831 35.3159C34.8878 35.6091 35.9949 36.0518 38.8034 37.7597Z" fill="#333333"/>
</g>
<g filter="url(#filter1_d)">
<path d="M38.8034 28.4858L53.3679 37.3427C54.9652 38.314 55.4871 40.4205 54.5335 42.0476C54.2448 42.5401 53.8396 42.9511 53.3547 43.2429L36.7438 53.2401C34.8663 54.3701 34.1269 54.6618 33.2562 54.8532C32.3855 55.0446 31.5367 55.0434 30.6665 54.8495C29.7963 54.6557 29.0577 54.3618 27.1833 53.2265L10.156 42.9132C8.55703 41.9446 8.03155 39.8391 8.98234 38.2103C9.27222 37.7137 9.68052 37.2997 10.1694 37.0067L24.4632 28.4394C27.2824 26.7497 28.3922 26.3141 29.6987 26.0294C31.0052 25.7447 32.2784 25.7489 33.5831 26.042C34.8878 26.3351 35.9949 26.7779 38.8034 28.4858Z" fill="#333333"/>
</g>
<g filter="url(#filter2_d)">
<path d="M38.8034 19.2128L53.3679 28.0697C54.9652 29.0411 55.4871 31.1476 54.5335 32.7747C54.2448 33.2672 53.8396 33.6782 53.3547 33.97L36.7438 43.9672C34.8663 45.0971 34.1269 45.3889 33.2562 45.5803C32.3855 45.7716 31.5367 45.7704 30.6665 45.5766C29.7963 45.3827 29.0577 45.0889 27.1833 43.9536L10.156 33.6402C8.55703 32.6717 8.03154 30.5662 8.98233 28.9373C9.27222 28.4407 9.68052 28.0267 10.1694 27.7337L24.4632 19.1664C27.2824 17.4767 28.3922 17.0412 29.6987 16.7565C31.0052 16.4718 32.2784 16.4759 33.5831 16.7691C34.8878 17.0622 35.9949 17.5049 38.8034 19.2128Z" fill="#333333"/>
</g>
<g filter="url(#filter3_d)">
<path d="M38.8034 37.7597L53.3679 46.6166C54.9652 47.588 55.4871 49.6944 54.5335 51.3215C54.2448 51.8141 53.8396 52.225 53.3547 52.5168L36.7438 62.514C34.8663 63.644 34.1269 63.9357 33.2562 64.1271C32.3855 64.3185 31.5367 64.3173 30.6665 64.1234C29.7963 63.9296 29.0577 63.6357 27.1833 62.5004L10.156 52.1871C8.55702 51.2186 8.03154 49.113 8.98233 47.4842C9.27222 46.9876 9.68052 46.5736 10.1694 46.2806L24.4632 37.7133C27.2824 36.0236 28.3922 35.588 29.6987 35.3034C31.0052 35.0187 32.2784 35.0228 33.5831 35.3159C34.8878 35.6091 35.9949 36.0518 38.8034 37.7597Z" fill="url(#paint0_linear)"/>
</g>
<g filter="url(#filter4_d)">
<path d="M38.8034 28.4858L53.3679 37.3427C54.9652 38.314 55.4871 40.4205 54.5335 42.0476C54.2448 42.5401 53.8396 42.9511 53.3547 43.2429L36.7438 53.2401C34.8663 54.3701 34.1269 54.6618 33.2562 54.8532C32.3855 55.0446 31.5367 55.0434 30.6665 54.8495C29.7963 54.6557 29.0577 54.3618 27.1833 53.2265L10.156 42.9132C8.55703 41.9446 8.03155 39.8391 8.98234 38.2103C9.27222 37.7137 9.68052 37.2997 10.1694 37.0067L24.4632 28.4394C27.2824 26.7497 28.3922 26.3141 29.6987 26.0294C31.0052 25.7447 32.2784 25.7489 33.5831 26.042C34.8878 26.3351 35.9949 26.7779 38.8034 28.4858Z" fill="url(#paint1_linear)" style="mix-blend-mode:screen"/>
</g>
<g filter="url(#filter5_d)">
<path d="M38.8034 19.2128L53.3679 28.0697C54.9652 29.0411 55.4871 31.1476 54.5335 32.7747C54.2448 33.2672 53.8396 33.6782 53.3547 33.97L36.7438 43.9672C34.8663 45.0971 34.1269 45.3889 33.2562 45.5803C32.3855 45.7716 31.5367 45.7704 30.6665 45.5766C29.7963 45.3827 29.0577 45.0889 27.1833 43.9536L10.156 33.6402C8.55703 32.6717 8.03154 30.5662 8.98233 28.9373C9.27222 28.4407 9.68052 28.0267 10.1694 27.7337L24.4632 19.1664C27.2824 17.4767 28.3922 17.0412 29.6987 16.7565C31.0052 16.4718 32.2784 16.4759 33.5831 16.7691C34.8878 17.0622 35.9949 17.5049 38.8034 19.2128Z" fill="url(#paint2_linear)" style="mix-blend-mode:screen"/>
</g>
<path d="M89.2377 36.4533C89.365 37.0044 89.4287 37.6178 89.4287 38.2933C89.4287 38.7556 89.4014 39.2444 89.3468 39.76C89.1649 40.9867 88.8737 42.0622 88.4734 42.9867C87.9275 44.1956 87.1633 45.1467 86.1807 45.84C85.1981 46.5333 84.0973 46.88 82.8781 46.88C81.5862 46.88 80.6309 46.3911 80.0122 45.4133C79.994 45.3778 79.9668 45.3689 79.9304 45.3867C79.894 45.3867 79.8667 45.4133 79.8485 45.4667L79.7393 46.3467C79.7211 46.4356 79.6756 46.5156 79.6028 46.5867C79.5482 46.64 79.4755 46.6667 79.3845 46.6667H76.3002C76.1001 46.6667 76 46.56 76 46.3467L78.2654 28.32C78.2836 28.2311 78.3291 28.16 78.4019 28.1067C78.4747 28.0356 78.5566 28 78.6475 28H81.7318C81.8228 28 81.8955 28.0356 81.9501 28.1067C82.0047 28.16 82.0229 28.2311 82.0047 28.32L81.2951 34.0267C81.2769 34.08 81.286 34.1156 81.3224 34.1333C81.3588 34.1511 81.3951 34.1333 81.4315 34.08C82.2504 33.1911 83.2875 32.7467 84.5431 32.7467C85.835 32.7467 86.8722 33.0844 87.6546 33.76C88.4552 34.4178 88.9829 35.3156 89.2377 36.4533ZM84.5704 42.5067C85.0253 41.8489 85.3255 40.96 85.4711 39.84C85.5075 39.5911 85.5257 39.2533 85.5257 38.8267C85.5257 38.0622 85.4074 37.4578 85.1708 37.0133C84.8433 36.32 84.261 35.9733 83.424 35.9733C82.6598 35.9733 82.032 36.32 81.5407 37.0133C81.0676 37.6711 80.7492 38.6044 80.5854 39.8133C80.5308 40.1867 80.5035 40.5511 80.5035 40.9067C80.5035 41.5644 80.5945 42.0978 80.7765 42.5067C81.1222 43.2711 81.6954 43.6533 82.496 43.6533C83.3512 43.6533 84.0427 43.2711 84.5704 42.5067Z" fill="white"/>
<path d="M100.569 33.28C100.587 33.1911 100.624 33.12 100.678 33.0667C100.751 32.9956 100.833 32.96 100.924 32.96H104.036C104.126 32.96 104.199 32.9956 104.254 33.0667C104.308 33.12 104.327 33.1911 104.308 33.28L102.671 46.3467C102.653 46.4356 102.607 46.5156 102.534 46.5867C102.48 46.64 102.407 46.6667 102.316 46.6667H99.2044C99.1135 46.6667 99.0407 46.64 98.9861 46.5867C98.9315 46.5156 98.9133 46.4356 98.9315 46.3467L99.068 45.2C99.0862 45.1289 99.0771 45.0933 99.0407 45.0933C99.0043 45.0756 98.9679 45.0933 98.9315 45.1467C98.0581 46.3022 96.8753 46.88 95.3833 46.88C94.2187 46.88 93.227 46.5244 92.4082 45.8133C91.5894 45.0844 91.089 44.1067 90.907 42.88C90.8524 42.5067 90.8251 42.1244 90.8251 41.7333C90.8251 41.2 90.8706 40.5511 90.9616 39.7867C91.1436 38.4 91.4347 37.2622 91.835 36.3733C92.3263 35.3067 93.0542 34.4356 94.0185 33.76C95.0011 33.0844 96.102 32.7467 97.3211 32.7467C98.7768 32.7467 99.7685 33.2622 100.296 34.2933C100.333 34.3467 100.36 34.3733 100.378 34.3733C100.414 34.3733 100.442 34.3378 100.46 34.2667L100.569 33.28ZM99.1498 42.08C99.2954 41.8133 99.4137 41.52 99.5047 41.2C99.5957 40.88 99.6775 40.4267 99.7503 39.84C99.8231 39.36 99.8595 38.9422 99.8595 38.5867C99.8595 38.2844 99.8049 37.92 99.6957 37.4933C99.6048 37.0311 99.3955 36.6667 99.068 36.4C98.7404 36.1156 98.3219 35.9733 97.8124 35.9733C97.2847 35.9733 96.8116 36.1156 96.3931 36.4C95.9928 36.6844 95.6835 37.0578 95.4651 37.52C95.174 38.0533 94.9738 38.8178 94.8647 39.8133C94.7919 40.3111 94.7555 40.7467 94.7555 41.12C94.7555 41.4578 94.801 41.7778 94.892 42.08C94.9829 42.56 95.2013 42.9422 95.547 43.2267C95.8927 43.5111 96.3295 43.6533 96.8571 43.6533C97.3848 43.6533 97.8397 43.5111 98.2218 43.2267C98.6222 42.9422 98.9315 42.56 99.1498 42.08Z" fill="white"/>
<path d="M110.865 46.88C109.464 46.88 108.29 46.5244 107.344 45.8133C106.398 45.1022 105.779 44.1244 105.488 42.88C105.379 42.3644 105.324 41.8222 105.324 41.2533C105.324 40.9511 105.36 40.4444 105.433 39.7333C105.579 38.5956 105.861 37.5644 106.279 36.64C106.862 35.4311 107.717 34.48 108.845 33.7867C109.973 33.0933 111.238 32.7467 112.639 32.7467C114.058 32.7467 115.25 33.1022 116.214 33.8133C117.197 34.5244 117.797 35.4222 118.016 36.5067C118.089 36.7733 118.125 37.0933 118.125 37.4667C118.125 37.5556 118.089 37.6356 118.016 37.7067C117.961 37.76 117.888 37.7956 117.797 37.8133L114.713 38.2667H114.659C114.477 38.2667 114.386 38.1778 114.386 38L114.358 37.5733C114.286 37.1111 114.058 36.7289 113.676 36.4267C113.294 36.1244 112.812 35.9733 112.229 35.9733C111.665 35.9733 111.165 36.1156 110.728 36.4C110.31 36.6844 109.991 37.0756 109.773 37.5733C109.5 38.1422 109.309 38.8711 109.2 39.76C109.145 40.2044 109.118 40.6133 109.118 40.9867C109.118 41.3778 109.145 41.6978 109.2 41.9467C109.291 42.48 109.509 42.8978 109.855 43.2C110.201 43.5022 110.665 43.6533 111.247 43.6533C111.811 43.6533 112.311 43.5111 112.748 43.2267C113.203 42.9244 113.54 42.5156 113.758 42C113.794 41.9289 113.812 41.8756 113.812 41.84C113.831 41.8222 113.84 41.7956 113.84 41.76C113.894 41.5467 114.031 41.4578 114.249 41.4933L117.224 41.9733C117.424 42.0089 117.506 42.1244 117.47 42.32C117.397 42.6044 117.306 42.8533 117.197 43.0667C116.669 44.2578 115.832 45.1911 114.686 45.8667C113.54 46.5422 112.266 46.88 110.865 46.88Z" fill="white"/>
<path d="M119.021 46.6667C118.93 46.6667 118.857 46.64 118.802 46.5867C118.748 46.5156 118.73 46.4356 118.748 46.3467L121.013 28.32C121.013 28.2311 121.05 28.16 121.122 28.1067C121.195 28.0356 121.277 28 121.368 28H124.452C124.543 28 124.616 28.0356 124.671 28.1067C124.725 28.16 124.743 28.2311 124.725 28.32L123.606 37.3067C123.588 37.36 123.597 37.3956 123.633 37.4133C123.67 37.4133 123.706 37.3956 123.743 37.36L127.891 33.1467C128.019 33.0222 128.155 32.96 128.301 32.96H131.822C131.985 32.96 132.067 33.0133 132.067 33.12C132.067 33.2089 132.031 33.2889 131.958 33.36L128.055 37.6533C128.019 37.7244 128 37.7867 128 37.84L130.894 46.2933C130.912 46.3289 130.921 46.3733 130.921 46.4267C130.921 46.5867 130.821 46.6667 130.621 46.6667H127.345C127.182 46.6667 127.072 46.5867 127.018 46.4267L125.162 40.1867C125.162 40.1511 125.135 40.1333 125.08 40.1333C125.044 40.1156 125.016 40.1244 124.998 40.16L123.033 42.2933C123.015 42.3111 122.997 42.3378 122.978 42.3733C122.96 42.3911 122.951 42.4178 122.951 42.4533L122.46 46.3467C122.442 46.4356 122.396 46.5156 122.323 46.5867C122.269 46.64 122.196 46.6667 122.105 46.6667H119.021Z" fill="white"/>
<path d="M131.847 52C131.72 52 131.674 51.9111 131.711 51.7333L131.793 51.04C131.829 50.8622 131.929 50.7733 132.093 50.7733H132.202C132.875 50.7556 133.412 50.64 133.812 50.4267C134.213 50.2311 134.586 49.8578 134.931 49.3067C135.277 48.7556 135.705 47.9022 136.214 46.7467C136.251 46.6578 136.26 46.6044 136.242 46.5867L133.348 33.52V33.4667C133.348 33.3067 133.43 33.2267 133.594 33.2267H134.495C134.567 33.2267 134.631 33.2444 134.686 33.28C134.74 33.3156 134.777 33.3689 134.795 33.44L137.142 44.7467C137.142 44.7822 137.16 44.8 137.197 44.8C137.251 44.8 137.288 44.7822 137.306 44.7467L142.355 33.44C142.446 33.2978 142.565 33.2267 142.71 33.2267H143.611C143.811 33.2267 143.866 33.3244 143.775 33.52L136.951 48.0267C136.405 49.1822 135.923 50.0356 135.505 50.5867C135.086 51.1378 134.622 51.5111 134.113 51.7067C133.603 51.9022 132.912 52 132.038 52H131.847Z" fill="white"/>
<path d="M149.157 46.88C147.901 46.88 146.873 46.56 146.072 45.92C145.29 45.2622 144.808 44.3733 144.626 43.2533C144.589 43.0578 144.571 42.7289 144.571 42.2667C144.571 41.5556 144.635 40.7733 144.762 39.92C144.926 38.4622 145.154 37.36 145.445 36.6133C145.9 35.5111 146.609 34.64 147.574 34C148.538 33.3422 149.648 33.0133 150.904 33.0133C152.141 33.0133 153.169 33.3422 153.988 34C154.807 34.6578 155.289 35.5289 155.434 36.6133C155.471 36.7911 155.489 37.0933 155.489 37.52C155.489 38.0533 155.425 38.8533 155.298 39.92C155.189 40.7378 155.08 41.3956 154.97 41.8933C154.879 42.3911 154.761 42.8444 154.616 43.2533C154.161 44.3556 153.442 45.2356 152.459 45.8933C151.495 46.5511 150.394 46.88 149.157 46.88ZM149.293 45.6267C150.239 45.6267 151.076 45.3689 151.804 44.8533C152.532 44.32 153.042 43.6267 153.333 42.7733C153.533 42.2578 153.715 41.3156 153.879 39.9467C154.024 38.8444 154.097 38.0356 154.097 37.52C154.097 36.56 153.788 35.7778 153.169 35.1733C152.568 34.5689 151.759 34.2667 150.74 34.2667C149.794 34.2667 148.957 34.5244 148.229 35.04C147.519 35.5556 147.01 36.2489 146.7 37.12C146.482 37.7067 146.3 38.6489 146.154 39.9467C146.027 41.0311 145.963 41.7867 145.963 42.2133C145.963 42.48 145.972 42.6667 145.991 42.7733C146.063 43.6444 146.391 44.3378 146.973 44.8533C147.574 45.3689 148.347 45.6267 149.293 45.6267Z" fill="white"/>
<path d="M167.984 33.4933C168.02 33.3156 168.121 33.2267 168.284 33.2267H169.13C169.221 33.2267 169.285 33.2533 169.321 33.3067C169.376 33.36 169.394 33.4222 169.376 33.4933L167.738 46.4C167.738 46.4711 167.711 46.5333 167.657 46.5867C167.602 46.64 167.529 46.6667 167.438 46.6667H166.592C166.519 46.6667 166.456 46.64 166.401 46.5867C166.365 46.5333 166.356 46.4711 166.374 46.4L166.537 45.0933C166.537 45.04 166.519 45.0133 166.483 45.0133C166.465 44.9956 166.446 45.0133 166.428 45.0667C165.5 46.2578 164.181 46.8533 162.471 46.8533C161.27 46.8533 160.296 46.5244 159.55 45.8667C158.804 45.2089 158.431 44.3022 158.431 43.1467C158.431 43.0044 158.449 42.7733 158.486 42.4533L159.605 33.4933C159.641 33.3156 159.741 33.2267 159.905 33.2267H160.751C160.933 33.2267 161.006 33.3156 160.969 33.4933L159.905 42.08C159.887 42.2222 159.878 42.4178 159.878 42.6667C159.878 43.5733 160.142 44.2933 160.669 44.8267C161.215 45.3422 161.961 45.6 162.907 45.6C163.981 45.6 164.882 45.28 165.609 44.64C166.337 43.9822 166.774 43.1289 166.92 42.08L167.984 33.4933Z" fill="white"/>
<path d="M178.598 33.12C179.199 33.12 179.69 33.2267 180.072 33.44C180.2 33.4756 180.245 33.5911 180.209 33.7867L179.854 34.64C179.763 34.8178 179.645 34.8711 179.499 34.8C179.135 34.6578 178.699 34.5956 178.189 34.6133C177.206 34.6311 176.342 35.0133 175.596 35.76C174.868 36.4889 174.432 37.3867 174.286 38.4533L173.303 46.4C173.267 46.5778 173.167 46.6667 173.003 46.6667H172.13C172.039 46.6667 171.966 46.64 171.911 46.5867C171.875 46.5333 171.866 46.4711 171.884 46.4L173.522 33.4933C173.522 33.4222 173.549 33.36 173.604 33.3067C173.658 33.2533 173.731 33.2267 173.822 33.2267H174.695C174.768 33.2267 174.823 33.2533 174.859 33.3067C174.914 33.36 174.932 33.4222 174.914 33.4933L174.695 35.3067C174.677 35.36 174.686 35.3956 174.723 35.4133C174.759 35.4133 174.786 35.3867 174.805 35.3333C175.259 34.64 175.805 34.0978 176.442 33.7067C177.079 33.3156 177.798 33.12 178.598 33.12Z" fill="white"/>
<path d="M185.394 46.8533C183.72 46.8533 182.4 46.5333 181.436 45.8933C180.472 45.2356 179.99 44.3733 179.99 43.3067C179.99 43.1289 179.999 42.9867 180.017 42.88L180.044 42.6133C180.062 42.5244 180.099 42.4533 180.153 42.4C180.226 42.3289 180.308 42.2933 180.399 42.2933H183.347C183.438 42.2933 183.51 42.3289 183.565 42.4C183.62 42.4533 183.638 42.5244 183.62 42.6133V42.64C183.565 43.0311 183.738 43.3689 184.138 43.6533C184.539 43.92 185.066 44.0533 185.721 44.0533C186.34 44.0533 186.849 43.9289 187.25 43.68C187.668 43.4133 187.878 43.0844 187.878 42.6933C187.878 42.4089 187.723 42.1956 187.414 42.0533C187.104 41.8933 186.631 41.7333 185.994 41.5733C185.194 41.3422 184.566 41.1378 184.111 40.96C183.128 40.6044 182.346 40.1778 181.764 39.68C181.181 39.1822 180.89 38.48 180.89 37.5733C180.89 36.6133 181.154 35.7689 181.682 35.04C182.209 34.3111 182.937 33.7511 183.865 33.36C184.793 32.9689 185.84 32.7733 187.004 32.7733C188.587 32.7733 189.834 33.1289 190.743 33.84C191.671 34.5333 192.135 35.4489 192.135 36.5867C192.135 36.8178 192.126 36.9867 192.108 37.0933C192.09 37.1822 192.044 37.2622 191.972 37.3333C191.917 37.3867 191.844 37.4133 191.753 37.4133H188.915C188.824 37.4133 188.751 37.3867 188.696 37.3333C188.642 37.2622 188.624 37.1822 188.642 37.0933C188.678 36.7022 188.514 36.3733 188.15 36.1067C187.805 35.84 187.304 35.7067 186.649 35.7067C186.031 35.7067 185.512 35.8222 185.094 36.0533C184.693 36.2844 184.493 36.6044 184.493 37.0133C184.493 37.3333 184.666 37.5822 185.012 37.76C185.357 37.92 185.921 38.0978 186.704 38.2933C187.359 38.4533 187.823 38.5778 188.096 38.6667C189.206 39.0044 190.079 39.44 190.716 39.9733C191.353 40.4889 191.671 41.2178 191.671 42.16C191.671 42.3733 191.662 42.5422 191.644 42.6667C191.462 43.9822 190.807 45.0133 189.679 45.76C188.551 46.4889 187.122 46.8533 185.394 46.8533Z" fill="white"/>
<path d="M202.007 35.6533C201.988 35.7422 201.943 35.8222 201.87 35.8933C201.816 35.9467 201.743 35.9733 201.652 35.9733H199.113C199.041 35.9733 198.986 36.0178 198.95 36.1067L198.24 41.76C198.222 41.8667 198.213 42.0089 198.213 42.1867C198.213 43.0578 198.649 43.4933 199.523 43.4933H200.396C200.487 43.4933 200.56 43.5289 200.615 43.6C200.687 43.6533 200.715 43.7244 200.697 43.8133L200.369 46.3467C200.333 46.56 200.214 46.6756 200.014 46.6933C199.286 46.7289 198.75 46.7467 198.404 46.7467C197.057 46.7467 196.047 46.5511 195.374 46.16C194.719 45.7511 194.392 45.0133 194.392 43.9467C194.392 43.8044 194.41 43.5733 194.446 43.2533L195.347 36.1067C195.383 36.0178 195.347 35.9733 195.238 35.9733H193.737C193.646 35.9733 193.573 35.9467 193.518 35.8933C193.464 35.8222 193.445 35.7422 193.464 35.6533L193.764 33.28C193.764 33.1911 193.8 33.12 193.873 33.0667C193.946 32.9956 194.028 32.96 194.119 32.96H195.62C195.711 32.96 195.756 32.9156 195.756 32.8267L196.166 29.6533C196.184 29.5644 196.22 29.4933 196.275 29.44C196.348 29.3689 196.43 29.3333 196.521 29.3333H199.496C199.587 29.3333 199.659 29.3689 199.714 29.44C199.769 29.4933 199.787 29.5644 199.769 29.6533L199.359 32.8267C199.359 32.9156 199.405 32.96 199.496 32.96H202.034C202.125 32.96 202.198 32.9956 202.252 33.0667C202.307 33.12 202.325 33.1911 202.307 33.28L202.007 35.6533Z" fill="white"/>
<path d="M212.502 33.28C212.52 33.1911 212.556 33.12 212.611 33.0667C212.684 32.9956 212.766 32.96 212.857 32.96H215.968C216.059 32.96 216.132 32.9956 216.187 33.0667C216.241 33.12 216.259 33.1911 216.241 33.28L214.603 46.3467C214.585 46.4356 214.54 46.5156 214.467 46.5867C214.412 46.64 214.34 46.6667 214.249 46.6667H211.137C211.046 46.6667 210.973 46.64 210.919 46.5867C210.864 46.5156 210.846 46.4356 210.864 46.3467L211.001 45.2C211.019 45.1289 211.01 45.0933 210.973 45.0933C210.937 45.0756 210.901 45.0933 210.864 45.1467C209.991 46.3022 208.808 46.88 207.316 46.88C206.151 46.88 205.16 46.5244 204.341 45.8133C203.522 45.0844 203.022 44.1067 202.84 42.88C202.785 42.5067 202.758 42.1244 202.758 41.7333C202.758 41.2 202.803 40.5511 202.894 39.7867C203.076 38.4 203.367 37.2622 203.768 36.3733C204.259 35.3067 204.987 34.4356 205.951 33.76C206.934 33.0844 208.035 32.7467 209.254 32.7467C210.71 32.7467 211.701 33.2622 212.229 34.2933C212.265 34.3467 212.293 34.3733 212.311 34.3733C212.347 34.3733 212.374 34.3378 212.393 34.2667L212.502 33.28ZM211.083 42.08C211.228 41.8133 211.346 41.52 211.437 41.2C211.528 40.88 211.61 40.4267 211.683 39.84C211.756 39.36 211.792 38.9422 211.792 38.5867C211.792 38.2844 211.738 37.92 211.628 37.4933C211.537 37.0311 211.328 36.6667 211.001 36.4C210.673 36.1156 210.255 35.9733 209.745 35.9733C209.217 35.9733 208.744 36.1156 208.326 36.4C207.926 36.6844 207.616 37.0578 207.398 37.52C207.107 38.0533 206.907 38.8178 206.797 39.8133C206.725 40.3111 206.688 40.7467 206.688 41.12C206.688 41.4578 206.734 41.7778 206.825 42.08C206.916 42.56 207.134 42.9422 207.48 43.2267C207.825 43.5111 208.262 43.6533 208.79 43.6533C209.318 43.6533 209.772 43.5111 210.155 43.2267C210.555 42.9422 210.864 42.56 211.083 42.08Z" fill="white"/>
<path d="M222.797 46.88C221.396 46.88 220.223 46.5244 219.276 45.8133C218.33 45.1022 217.712 44.1244 217.42 42.88C217.311 42.3644 217.257 41.8222 217.257 41.2533C217.257 40.9511 217.293 40.4444 217.366 39.7333C217.511 38.5956 217.793 37.5644 218.212 36.64C218.794 35.4311 219.649 34.48 220.778 33.7867C221.906 33.0933 223.17 32.7467 224.572 32.7467C225.991 32.7467 227.183 33.1022 228.147 33.8133C229.13 34.5244 229.73 35.4222 229.948 36.5067C230.021 36.7733 230.058 37.0933 230.058 37.4667C230.058 37.5556 230.021 37.6356 229.948 37.7067C229.894 37.76 229.821 37.7956 229.73 37.8133L226.646 38.2667H226.591C226.409 38.2667 226.318 38.1778 226.318 38L226.291 37.5733C226.218 37.1111 225.991 36.7289 225.609 36.4267C225.227 36.1244 224.744 35.9733 224.162 35.9733C223.598 35.9733 223.098 36.1156 222.661 36.4C222.242 36.6844 221.924 37.0756 221.706 37.5733C221.433 38.1422 221.242 38.8711 221.132 39.76C221.078 40.2044 221.051 40.6133 221.051 40.9867C221.051 41.3778 221.078 41.6978 221.132 41.9467C221.223 42.48 221.442 42.8978 221.788 43.2C222.133 43.5022 222.597 43.6533 223.18 43.6533C223.744 43.6533 224.244 43.5111 224.681 43.2267C225.136 42.9244 225.472 42.5156 225.691 42C225.727 41.9289 225.745 41.8756 225.745 41.84C225.763 41.8222 225.772 41.7956 225.772 41.76C225.827 41.5467 225.964 41.4578 226.182 41.4933L229.157 41.9733C229.357 42.0089 229.439 42.1244 229.403 42.32C229.33 42.6044 229.239 42.8533 229.13 43.0667C228.602 44.2578 227.765 45.1911 226.619 45.8667C225.472 46.5422 224.199 46.88 222.797 46.88Z" fill="white"/>
<path d="M230.953 46.6667C230.862 46.6667 230.79 46.64 230.735 46.5867C230.68 46.5156 230.662 46.4356 230.68 46.3467L232.946 28.32C232.946 28.2311 232.982 28.16 233.055 28.1067C233.128 28.0356 233.21 28 233.301 28H236.385C236.476 28 236.549 28.0356 236.603 28.1067C236.658 28.16 236.676 28.2311 236.658 28.32L235.539 37.3067C235.521 37.36 235.53 37.3956 235.566 37.4133C235.602 37.4133 235.639 37.3956 235.675 37.36L239.824 33.1467C239.951 33.0222 240.088 32.96 240.233 32.96H243.754C243.918 32.96 244 33.0133 244 33.12C244 33.2089 243.964 33.2889 243.891 33.36L239.988 37.6533C239.951 37.7244 239.933 37.7867 239.933 37.84L242.826 46.2933C242.845 46.3289 242.854 46.3733 242.854 46.4267C242.854 46.5867 242.754 46.6667 242.553 46.6667H239.278C239.114 46.6667 239.005 46.5867 238.951 46.4267L237.095 40.1867C237.095 40.1511 237.067 40.1333 237.013 40.1333C236.976 40.1156 236.949 40.1244 236.931 40.16L234.966 42.2933C234.947 42.3111 234.929 42.3378 234.911 42.3733C234.893 42.3911 234.884 42.4178 234.884 42.4533L234.392 46.3467C234.374 46.4356 234.329 46.5156 234.256 46.5867C234.201 46.64 234.129 46.6667 234.038 46.6667H230.953Z" fill="white"/>
</g>
<defs>
<filter id="filter0_d" x="-7.49146" y="27.0928" width="78.5016" height="61.1769" filterUnits="userSpaceOnUse" color-interpolation-filters="sRGB">
<feFlood flood-opacity="0" result="BackgroundImageFix"/>
<feColorMatrix in="SourceAlpha" type="matrix" values="0 0 0 0 0 0 0 0 0 0 0 0 0 0 0 0 0 0 127 0"/>
<feOffset dy="8"/>
<feGaussianBlur stdDeviation="8"/>
<feColorMatrix type="matrix" values="0 0 0 0 0.0768 0 0 0 0 0.07808 0 0 0 0 0.08 0 0 0 0.08 0"/>
<feBlend mode="normal" in2="BackgroundImageFix" result="effect1_dropShadow"/>
<feBlend mode="normal" in="SourceGraphic" in2="effect1_dropShadow" result="shape"/>
</filter>
<filter id="filter1_d" x="-7.49146" y="17.8188" width="78.5016" height="61.1769" filterUnits="userSpaceOnUse" color-interpolation-filters="sRGB">
<feFlood flood-opacity="0" result="BackgroundImageFix"/>
<feColorMatrix in="SourceAlpha" type="matrix" values="0 0 0 0 0 0 0 0 0 0 0 0 0 0 0 0 0 0 127 0"/>
<feOffset dy="8"/>
<feGaussianBlur stdDeviation="8"/>
<feColorMatrix type="matrix" values="0 0 0 0 0.0768 0 0 0 0 0.07808 0 0 0 0 0.08 0 0 0 0.08 0"/>
<feBlend mode="normal" in2="BackgroundImageFix" result="effect1_dropShadow"/>
<feBlend mode="normal" in="SourceGraphic" in2="effect1_dropShadow" result="shape"/>
</filter>
<filter id="filter2_d" x="-7.49146" y="8.5459" width="78.5016" height="61.1769" filterUnits="userSpaceOnUse" color-interpolation-filters="sRGB">
<feFlood flood-opacity="0" result="BackgroundImageFix"/>
<feColorMatrix in="SourceAlpha" type="matrix" values="0 0 0 0 0 0 0 0 0 0 0 0 0 0 0 0 0 0 127 0"/>
<feOffset dy="8"/>
<feGaussianBlur stdDeviation="8"/>
<feColorMatrix type="matrix" values="0 0 0 0 0.0768 0 0 0 0 0.07808 0 0 0 0 0.08 0 0 0 0.08 0"/>
<feBlend mode="normal" in2="BackgroundImageFix" result="effect1_dropShadow"/>
<feBlend mode="normal" in="SourceGraphic" in2="effect1_dropShadow" result="shape"/>
</filter>
<filter id="filter3_d" x="-7.49146" y="27.0928" width="78.5016" height="61.1769" filterUnits="userSpaceOnUse" color-interpolation-filters="sRGB">
<feFlood flood-opacity="0" result="BackgroundImageFix"/>
<feColorMatrix in="SourceAlpha" type="matrix" values="0 0 0 0 0 0 0 0 0 0 0 0 0 0 0 0 0 0 127 0"/>
<feOffset dy="8"/>
<feGaussianBlur stdDeviation="8"/>
<feColorMatrix type="matrix" values="0 0 0 0 0.0768 0 0 0 0 0.07808 0 0 0 0 0.08 0 0 0 0.08 0"/>
<feBlend mode="normal" in2="BackgroundImageFix" result="effect1_dropShadow"/>
<feBlend mode="normal" in="SourceGraphic" in2="effect1_dropShadow" result="shape"/>
</filter>
<filter id="filter4_d" x="-7.49146" y="17.8188" width="78.5016" height="61.1769" filterUnits="userSpaceOnUse" color-interpolation-filters="sRGB">
<feFlood flood-opacity="0" result="BackgroundImageFix"/>
<feColorMatrix in="SourceAlpha" type="matrix" values="0 0 0 0 0 0 0 0 0 0 0 0 0 0 0 0 0 0 127 0"/>
<feOffset dy="8"/>
<feGaussianBlur stdDeviation="8"/>
<feColorMatrix type="matrix" values="0 0 0 0 0.0768 0 0 0 0 0.07808 0 0 0 0 0.08 0 0 0 0.08 0"/>
<feBlend mode="normal" in2="BackgroundImageFix" result="effect1_dropShadow"/>
<feBlend mode="normal" in="SourceGraphic" in2="effect1_dropShadow" result="shape"/>
</filter>
<filter id="filter5_d" x="-7.49146" y="8.5459" width="78.5016" height="61.1769" filterUnits="userSpaceOnUse" color-interpolation-filters="sRGB">
<feFlood flood-opacity="0" result="BackgroundImageFix"/>
<feColorMatrix in="SourceAlpha" type="matrix" values="0 0 0 0 0 0 0 0 0 0 0 0 0 0 0 0 0 0 127 0"/>
<feOffset dy="8"/>
<feGaussianBlur stdDeviation="8"/>
<feColorMatrix type="matrix" values="0 0 0 0 0.0768 0 0 0 0 0.07808 0 0 0 0 0.08 0 0 0 0.08 0"/>
<feBlend mode="normal" in2="BackgroundImageFix" result="effect1_dropShadow"/>
<feBlend mode="normal" in="SourceGraphic" in2="effect1_dropShadow" result="shape"/>
</filter>
<linearGradient id="paint0_linear" x1="44.8907" y1="57.2987" x2="24.1029" y2="35.86" gradientUnits="userSpaceOnUse">
<stop stop-color="#FFF1AC"/>
<stop offset="1" stop-color="#D4796E"/>
</linearGradient>
<linearGradient id="paint1_linear" x1="46.1075" y1="47.7362" x2="24.6287" y2="26.0544" gradientUnits="userSpaceOnUse">
<stop stop-color="#E3B9EE"/>
<stop offset="1" stop-color="#D4796E"/>
</linearGradient>
<linearGradient id="paint2_linear" x1="45.6267" y1="38.746" x2="16.3132" y2="6.62042" gradientUnits="userSpaceOnUse">
<stop stop-color="#7A82CB"/>
<stop offset="1" stop-color="#61AFAE"/>
</linearGradient>
<clipPath id="clip0">
<rect width="244" height="80" fill="white"/>
</clipPath>
</defs>
</svg>
