<svg width="165" height="34" viewBox="0 0 165 34" fill="none" xmlns="http://www.w3.org/2000/svg">
<path d="M108.974 8.53955H107.466C107.405 8.53955 107.374 8.57153 107.374 8.6355V22.0044C107.374 22.0683 107.405 22.1003 107.466 22.1003H108.974C109.036 22.1003 109.067 22.0683 109.067 22.0044V8.6355C109.036 8.57153 109.005 8.53955 108.974 8.53955Z" fill="#7A7B82"/>
<path d="M136.457 12.6973H138.15C138.181 12.6973 138.242 12.7613 138.242 12.7933V14.3604C138.242 14.4244 138.211 14.4564 138.15 14.4564H136.457C136.426 14.4564 136.396 14.4884 136.396 14.5204V22.0044C136.396 22.0683 136.365 22.1003 136.303 22.1003H134.795C134.734 22.1003 134.703 22.0683 134.703 22.0044V14.5204C134.703 14.4884 134.672 14.4564 134.641 14.4564H132.979C132.918 14.4564 132.887 14.4244 132.887 14.3604V12.7933C132.887 12.7293 132.918 12.6973 132.979 12.6973H134.641C134.672 12.6973 134.703 12.6654 134.703 12.6334V8.6355C134.703 8.57153 134.734 8.53955 134.795 8.53955H136.303C136.365 8.53955 136.396 8.57153 136.396 8.6355V12.6334C136.396 12.6654 136.426 12.6973 136.457 12.6973Z" fill="#7A7B82"/>
<path d="M139.75 9.69098H141.258C141.32 9.69098 141.35 9.72297 141.35 9.78693V11.3541C141.35 11.4181 141.32 11.45 141.258 11.45H139.75C139.689 11.45 139.658 11.4181 139.658 11.3541V9.78693C139.658 9.72297 139.689 9.69098 139.75 9.69098Z" fill="#7A7B82"/>
<path d="M139.75 12.6974H141.258C141.32 12.6974 141.35 12.7613 141.35 12.7933V22.0044C141.35 22.0684 141.32 22.1004 141.258 22.1004H139.75C139.689 22.1004 139.658 22.0684 139.658 22.0044V12.7933C139.658 12.7294 139.689 12.6974 139.75 12.6974Z" fill="#7A7B82"/>
<path fill-rule="evenodd" clip-rule="evenodd" d="M155.846 20.5012C154.953 20.5012 154.184 20.1174 153.63 19.4778C153.599 19.4138 153.599 19.3498 153.661 19.3178L158.831 17.0471L160.339 16.3754C160.401 16.3434 160.401 16.3115 160.401 16.2795C159.908 14.0726 157.969 12.4415 155.692 12.5375C153.291 12.6334 151.291 14.6483 151.199 17.143C151.076 19.9255 153.199 22.2283 155.877 22.2283C157.815 22.2283 159.477 20.981 160.185 19.2219C160.216 19.1579 160.185 19.094 160.124 19.094L158.616 18.8061C158.585 18.8061 158.523 18.8061 158.523 18.8701C157.969 19.8296 156.984 20.5012 155.846 20.5012ZM155.846 14.2966C156.738 14.2966 157.538 14.7123 158.062 15.352C158.092 15.416 158.092 15.4799 158.031 15.5119C158.031 15.5119 153.045 17.7187 152.984 17.7507C152.922 17.7827 152.861 17.7187 152.861 17.6868V17.4309C152.83 15.6718 154.184 14.2966 155.846 14.2966Z" fill="#7A7B82"/>
<path d="M149.506 12.6974H150.983C151.045 12.6974 151.076 12.7613 151.014 12.8253L147.967 22.0364C147.936 22.0684 147.906 22.1004 147.875 22.1004H145.782C145.721 22.1004 145.69 22.0684 145.69 22.0364L142.643 12.8253C142.643 12.7613 142.674 12.6974 142.735 12.6974H144.213C144.274 12.6974 144.305 12.7294 144.305 12.7613L146.705 20.0854C146.767 20.2454 146.952 20.2454 147.013 20.0854L149.414 12.7613C149.444 12.7294 149.475 12.6974 149.506 12.6974Z" fill="#7A7B82"/>
<path d="M128.271 20.5012C126.424 20.5012 124.978 18.7741 125.316 16.7911C125.501 15.7037 126.547 14.5843 127.594 14.3604C128.732 14.1046 129.81 14.5203 130.487 15.3199C130.517 15.3519 130.579 15.3519 130.61 15.3199L131.687 14.2005C131.718 14.1685 131.718 14.1046 131.687 14.0726C130.794 13.0491 129.471 12.4415 128.025 12.5054C125.655 12.6334 123.685 14.6483 123.562 17.111C123.439 19.8935 125.563 22.1963 128.24 22.1963C129.594 22.1963 130.825 21.5886 131.687 20.6291C131.718 20.5971 131.718 20.5651 131.687 20.5331L130.61 19.4137C130.579 19.3818 130.517 19.3818 130.487 19.4137C129.963 20.1174 129.163 20.5012 128.271 20.5012Z" fill="#7A7B82"/>
<path fill-rule="evenodd" clip-rule="evenodd" d="M118.207 20.5012C117.315 20.5012 116.545 20.1174 115.991 19.4777C115.96 19.4137 115.96 19.3498 116.022 19.3178L121.192 17.047L122.7 16.3754C122.762 16.3434 122.762 16.3114 122.762 16.2794C122.269 14.0726 120.331 12.4415 118.053 12.5374C115.653 12.6334 113.652 14.6483 113.56 17.143C113.437 19.9255 115.56 22.2282 118.238 22.2282C120.177 22.2282 121.839 20.9809 122.546 19.2218C122.577 19.1579 122.546 19.0939 122.485 19.0939L120.977 18.8061C120.946 18.8061 120.885 18.8061 120.885 18.87C120.331 19.8295 119.315 20.5012 118.207 20.5012ZM118.207 14.2965C119.1 14.2965 119.9 14.7123 120.423 15.3519C120.454 15.4159 120.454 15.4799 120.392 15.5118C120.392 15.5118 115.406 17.7187 115.345 17.7506C115.283 17.7826 115.222 17.7187 115.222 17.6867V17.4308C115.191 15.6718 116.545 14.2965 118.207 14.2965Z" fill="#7A7B82"/>
<path d="M110.759 8.53955H112.267C112.298 8.53955 112.36 8.57153 112.36 8.6355V22.0044C112.36 22.0683 112.329 22.1003 112.267 22.1003H110.759C110.698 22.1003 110.667 22.0683 110.667 22.0044V8.6355C110.667 8.57153 110.698 8.53955 110.759 8.53955Z" fill="#7A7B82"/>
<path fill-rule="evenodd" clip-rule="evenodd" d="M96.9103 17.3988C96.9103 14.7123 99.003 12.5374 101.588 12.5374C104.173 12.5374 106.266 14.7123 106.266 17.3988C106.266 20.0854 104.173 22.2603 101.588 22.2603C99.003 22.2603 96.9103 20.0854 96.9103 17.3988ZM104.573 17.3988C104.573 15.7037 103.25 14.2965 101.588 14.2965C99.9263 14.2965 98.6029 15.7037 98.6029 17.3988C98.6029 19.0939 99.9571 20.5012 101.588 20.5012C103.219 20.5012 104.573 19.0939 104.573 17.3988Z" fill="#7A7B82"/>
<path d="M90.0473 16.7911C89.7087 18.7741 91.1552 20.5012 93.0017 20.5012C93.8942 20.5012 94.6944 20.1174 95.2176 19.4137C95.2484 19.3818 95.3099 19.3818 95.3407 19.4137L96.4178 20.5331C96.4486 20.5651 96.4486 20.5971 96.4178 20.6291C95.5561 21.5886 94.3251 22.1963 92.971 22.1963C90.2935 22.1963 88.1699 19.8935 88.293 17.111C88.4162 14.6483 90.3858 12.6334 92.7555 12.5054C94.202 12.4415 95.5253 13.0491 96.4178 14.0726C96.4486 14.1046 96.4486 14.1685 96.4178 14.2005L95.3407 15.3199C95.3099 15.3519 95.2484 15.3519 95.2176 15.3199C94.5405 14.5203 93.4634 14.1046 92.3247 14.3604C91.2783 14.5843 90.2319 15.7037 90.0473 16.7911Z" fill="#7A7B82"/>
<path d="M79.5163 12.5374C78.5315 12.5374 77.3928 13.1771 76.8696 13.9447C76.8388 14.0086 76.7157 13.9767 76.7157 13.9127V12.7933C76.7157 12.7613 76.6849 12.6973 76.6234 12.6973H75.1154C75.0846 12.6973 75.023 12.7293 75.023 12.7933V22.0364C75.023 22.0683 75.0538 22.1323 75.1154 22.1323H76.6234C76.6542 22.1323 76.7157 22.1003 76.7157 22.0364V17.4308C76.7157 15.6718 77.8544 14.4244 79.4855 14.4244C81.6398 14.4244 82.2861 15.8956 82.2861 17.6227V22.0364C82.2861 22.0683 82.3169 22.1323 82.3784 22.1323H83.8865C83.9172 22.1323 83.9788 22.1003 83.9788 22.0364V17.6227C84.0096 14.9362 82.7785 12.5374 79.5163 12.5374Z" fill="#7A7B82"/>
<path fill-rule="evenodd" clip-rule="evenodd" d="M69.5757 20.5012C68.6832 20.5012 67.9138 20.1174 67.3599 19.4777C67.3291 19.4137 67.3291 19.3498 67.3906 19.3178L72.561 17.047L74.069 16.3754C74.1305 16.3434 74.1305 16.3114 74.1305 16.2794C73.6381 14.0726 71.6992 12.4415 69.4218 12.5374C67.0213 12.6334 65.0209 14.6483 64.9286 17.143C64.8055 19.9255 66.929 22.2282 69.6065 22.2282C71.5454 22.2282 73.2073 20.9809 73.9151 19.2218C73.9459 19.1579 73.9151 19.0939 73.8535 19.0939L72.3455 18.8061C72.3148 18.8061 72.2532 18.8061 72.2532 18.87C71.6992 19.8295 70.7144 20.5012 69.5757 20.5012ZM69.5757 14.2965C70.4682 14.2965 71.2684 14.7123 71.7916 15.3519C71.8224 15.4159 71.8224 15.4799 71.7608 15.5118C71.7608 15.5118 66.7751 17.7187 66.7136 17.7506C66.652 17.7826 66.5905 17.7187 66.5905 17.6867V17.4308C66.5905 15.6718 67.9446 14.2965 69.5757 14.2965Z" fill="#7A7B82"/>
<path fill-rule="evenodd" clip-rule="evenodd" d="M56.6191 13.7528C57.2654 12.9532 58.1887 12.4734 59.3582 12.4415C61.6048 12.4095 63.636 14.0726 64.0053 16.4073C64.5593 19.4777 62.2819 22.1643 59.4197 22.1643C58.1887 22.1643 57.2347 21.6525 56.5884 20.853C56.5268 20.789 56.4345 20.821 56.4345 20.9169V26.1941C56.4345 26.2581 56.4037 26.2901 56.3422 26.2901H54.8649C54.8034 26.2901 54.7726 26.2581 54.7726 26.1941V12.7933C54.7726 12.7293 54.8034 12.6973 54.8649 12.6973H56.3729C56.4345 12.6973 56.4653 12.7293 56.4653 12.7933V13.6888C56.4653 13.7847 56.5576 13.8167 56.6191 13.7528ZM56.496 16.7911C56.1575 18.902 57.9117 20.725 59.9429 20.3732C61.174 20.1493 62.1896 19.1259 62.3742 17.8466C62.7127 15.7357 60.9585 13.9127 58.9273 14.2645C57.6963 14.4564 56.7115 15.5118 56.496 16.7911Z" fill="#7A7B82"/>
<path fill-rule="evenodd" clip-rule="evenodd" d="M49.233 12.5374C46.6478 12.5374 44.5551 14.7123 44.5551 17.3988C44.5551 20.0854 46.6478 22.2603 49.233 22.2603C51.8181 22.2603 53.9109 20.0854 53.9109 17.3988C53.9109 14.7123 51.8181 12.5374 49.233 12.5374ZM49.233 14.2965C50.8948 14.2965 52.2182 15.7037 52.2182 17.3988C52.2182 19.0939 50.8641 20.5012 49.233 20.5012C47.6018 20.5012 46.2477 19.0939 46.2477 17.3988C46.2477 15.7037 47.6018 14.2965 49.233 14.2965Z" fill="#7A7B82"/>
<path fill-rule="evenodd" clip-rule="evenodd" d="M33.1759 8.43457C34.8528 10.8506 35.8356 13.7843 35.8356 16.9479C35.8356 20.1115 34.8528 23.0455 33.1759 25.4613L29.304 21.5893C30.0644 20.2134 30.4972 18.631 30.4972 16.9479C30.4972 15.2648 30.0644 13.6827 29.304 12.3069L33.1759 8.43457Z" fill="#DCDEE0"/>
<path fill-rule="evenodd" clip-rule="evenodd" d="M29.4011 4.65963L25.5288 8.53162C24.153 7.77121 22.5709 7.3384 20.8878 7.3384C15.5808 7.3384 11.2783 11.6408 11.2783 16.9478C11.2783 22.2548 15.5808 26.5572 20.8878 26.5572C22.5709 26.5572 24.153 26.1244 25.5288 25.364L29.4011 29.236C26.9851 30.9128 24.0514 31.8956 20.8878 31.8956C12.6324 31.8956 5.93994 25.2032 5.93994 16.9478C5.93994 8.69243 12.6324 2 20.8878 2C24.0514 2 26.9851 2.98279 29.4011 4.65963Z" fill="#7A7B82"/>
<path d="M108.974 8.53955H107.466C107.405 8.53955 107.374 8.57153 107.374 8.6355V22.0044C107.374 22.0683 107.405 22.1003 107.466 22.1003H108.974C109.036 22.1003 109.067 22.0683 109.067 22.0044V8.6355C109.036 8.57153 109.005 8.53955 108.974 8.53955Z" fill="#141414"/>
<path d="M136.457 12.6973H138.15C138.181 12.6973 138.242 12.7613 138.242 12.7933V14.3604C138.242 14.4244 138.211 14.4564 138.15 14.4564H136.457C136.426 14.4564 136.396 14.4884 136.396 14.5204V22.0044C136.396 22.0683 136.365 22.1003 136.303 22.1003H134.795C134.734 22.1003 134.703 22.0683 134.703 22.0044V14.5204C134.703 14.4884 134.672 14.4564 134.641 14.4564H132.979C132.918 14.4564 132.887 14.4244 132.887 14.3604V12.7933C132.887 12.7293 132.918 12.6973 132.979 12.6973H134.641C134.672 12.6973 134.703 12.6654 134.703 12.6334V8.6355C134.703 8.57153 134.734 8.53955 134.795 8.53955H136.303C136.365 8.53955 136.396 8.57153 136.396 8.6355V12.6334C136.396 12.6654 136.426 12.6973 136.457 12.6973Z" fill="#141414"/>
<path d="M139.75 9.69098H141.258C141.32 9.69098 141.35 9.72297 141.35 9.78693V11.3541C141.35 11.4181 141.32 11.45 141.258 11.45H139.75C139.689 11.45 139.658 11.4181 139.658 11.3541V9.78693C139.658 9.72297 139.689 9.69098 139.75 9.69098Z" fill="#141414"/>
<path d="M139.75 12.6974H141.258C141.32 12.6974 141.35 12.7613 141.35 12.7933V22.0044C141.35 22.0684 141.32 22.1004 141.258 22.1004H139.75C139.689 22.1004 139.658 22.0684 139.658 22.0044V12.7933C139.658 12.7294 139.689 12.6974 139.75 12.6974Z" fill="#141414"/>
<path fill-rule="evenodd" clip-rule="evenodd" d="M155.846 20.5012C154.953 20.5012 154.184 20.1174 153.63 19.4778C153.599 19.4138 153.599 19.3498 153.661 19.3178L158.831 17.0471L160.339 16.3754C160.401 16.3434 160.401 16.3115 160.401 16.2795C159.908 14.0726 157.969 12.4415 155.692 12.5375C153.291 12.6334 151.291 14.6483 151.199 17.143C151.076 19.9255 153.199 22.2283 155.877 22.2283C157.815 22.2283 159.477 20.981 160.185 19.2219C160.216 19.1579 160.185 19.094 160.124 19.094L158.616 18.8061C158.585 18.8061 158.523 18.8061 158.523 18.8701C157.969 19.8296 156.984 20.5012 155.846 20.5012ZM155.846 14.2966C156.738 14.2966 157.538 14.7123 158.062 15.352C158.092 15.416 158.092 15.4799 158.031 15.5119C158.031 15.5119 153.045 17.7187 152.984 17.7507C152.922 17.7827 152.861 17.7187 152.861 17.6868V17.4309C152.83 15.6718 154.184 14.2966 155.846 14.2966Z" fill="#141414"/>
<path d="M149.506 12.6974H150.983C151.045 12.6974 151.076 12.7613 151.014 12.8253L147.967 22.0364C147.936 22.0684 147.906 22.1004 147.875 22.1004H145.782C145.721 22.1004 145.69 22.0684 145.69 22.0364L142.643 12.8253C142.643 12.7613 142.674 12.6974 142.735 12.6974H144.213C144.274 12.6974 144.305 12.7294 144.305 12.7613L146.705 20.0854C146.767 20.2454 146.952 20.2454 147.013 20.0854L149.414 12.7613C149.444 12.7294 149.475 12.6974 149.506 12.6974Z" fill="#141414"/>
<path d="M128.271 20.5012C126.424 20.5012 124.978 18.7741 125.316 16.7911C125.501 15.7037 126.547 14.5843 127.594 14.3604C128.732 14.1046 129.81 14.5203 130.487 15.3199C130.517 15.3519 130.579 15.3519 130.61 15.3199L131.687 14.2005C131.718 14.1685 131.718 14.1046 131.687 14.0726C130.794 13.0491 129.471 12.4415 128.025 12.5054C125.655 12.6334 123.685 14.6483 123.562 17.111C123.439 19.8935 125.563 22.1963 128.24 22.1963C129.594 22.1963 130.825 21.5886 131.687 20.6291C131.718 20.5971 131.718 20.5651 131.687 20.5331L130.61 19.4137C130.579 19.3818 130.517 19.3818 130.487 19.4137C129.963 20.1174 129.163 20.5012 128.271 20.5012Z" fill="#141414"/>
<path fill-rule="evenodd" clip-rule="evenodd" d="M118.207 20.5012C117.315 20.5012 116.545 20.1174 115.991 19.4777C115.96 19.4137 115.96 19.3498 116.022 19.3178L121.192 17.047L122.7 16.3754C122.762 16.3434 122.762 16.3114 122.762 16.2794C122.269 14.0726 120.331 12.4415 118.053 12.5374C115.653 12.6334 113.652 14.6483 113.56 17.143C113.437 19.9255 115.56 22.2282 118.238 22.2282C120.177 22.2282 121.839 20.9809 122.546 19.2218C122.577 19.1579 122.546 19.0939 122.485 19.0939L120.977 18.8061C120.946 18.8061 120.885 18.8061 120.885 18.87C120.331 19.8295 119.315 20.5012 118.207 20.5012ZM118.207 14.2965C119.1 14.2965 119.9 14.7123 120.423 15.3519C120.454 15.4159 120.454 15.4799 120.392 15.5118C120.392 15.5118 115.406 17.7187 115.345 17.7506C115.283 17.7826 115.222 17.7187 115.222 17.6867V17.4308C115.191 15.6718 116.545 14.2965 118.207 14.2965Z" fill="#141414"/>
<path d="M110.759 8.53955H112.267C112.298 8.53955 112.36 8.57153 112.36 8.6355V22.0044C112.36 22.0683 112.329 22.1003 112.267 22.1003H110.759C110.698 22.1003 110.667 22.0683 110.667 22.0044V8.6355C110.667 8.57153 110.698 8.53955 110.759 8.53955Z" fill="#141414"/>
<path fill-rule="evenodd" clip-rule="evenodd" d="M96.9103 17.3988C96.9103 14.7123 99.003 12.5374 101.588 12.5374C104.173 12.5374 106.266 14.7123 106.266 17.3988C106.266 20.0854 104.173 22.2603 101.588 22.2603C99.003 22.2603 96.9103 20.0854 96.9103 17.3988ZM104.573 17.3988C104.573 15.7037 103.25 14.2965 101.588 14.2965C99.9263 14.2965 98.6029 15.7037 98.6029 17.3988C98.6029 19.0939 99.9571 20.5012 101.588 20.5012C103.219 20.5012 104.573 19.0939 104.573 17.3988Z" fill="#141414"/>
<path d="M90.0473 16.7911C89.7087 18.7741 91.1552 20.5012 93.0017 20.5012C93.8942 20.5012 94.6944 20.1174 95.2176 19.4137C95.2484 19.3818 95.3099 19.3818 95.3407 19.4137L96.4178 20.5331C96.4486 20.5651 96.4486 20.5971 96.4178 20.6291C95.5561 21.5886 94.3251 22.1963 92.971 22.1963C90.2935 22.1963 88.1699 19.8935 88.293 17.111C88.4162 14.6483 90.3858 12.6334 92.7555 12.5054C94.202 12.4415 95.5253 13.0491 96.4178 14.0726C96.4486 14.1046 96.4486 14.1685 96.4178 14.2005L95.3407 15.3199C95.3099 15.3519 95.2484 15.3519 95.2176 15.3199C94.5405 14.5203 93.4634 14.1046 92.3247 14.3604C91.2783 14.5843 90.2319 15.7037 90.0473 16.7911Z" fill="#141414"/>
<path d="M79.5163 12.5374C78.5315 12.5374 77.3928 13.1771 76.8696 13.9447C76.8388 14.0086 76.7157 13.9767 76.7157 13.9127V12.7933C76.7157 12.7613 76.6849 12.6973 76.6234 12.6973H75.1154C75.0846 12.6973 75.023 12.7293 75.023 12.7933V22.0364C75.023 22.0683 75.0538 22.1323 75.1154 22.1323H76.6234C76.6542 22.1323 76.7157 22.1003 76.7157 22.0364V17.4308C76.7157 15.6718 77.8544 14.4244 79.4855 14.4244C81.6398 14.4244 82.2861 15.8956 82.2861 17.6227V22.0364C82.2861 22.0683 82.3169 22.1323 82.3784 22.1323H83.8865C83.9172 22.1323 83.9788 22.1003 83.9788 22.0364V17.6227C84.0096 14.9362 82.7785 12.5374 79.5163 12.5374Z" fill="#141414"/>
<path fill-rule="evenodd" clip-rule="evenodd" d="M69.5757 20.5012C68.6832 20.5012 67.9138 20.1174 67.3599 19.4777C67.3291 19.4137 67.3291 19.3498 67.3906 19.3178L72.561 17.047L74.069 16.3754C74.1305 16.3434 74.1305 16.3114 74.1305 16.2794C73.6381 14.0726 71.6992 12.4415 69.4218 12.5374C67.0213 12.6334 65.0209 14.6483 64.9286 17.143C64.8055 19.9255 66.929 22.2282 69.6065 22.2282C71.5454 22.2282 73.2073 20.9809 73.9151 19.2218C73.9459 19.1579 73.9151 19.0939 73.8535 19.0939L72.3455 18.8061C72.3148 18.8061 72.2532 18.8061 72.2532 18.87C71.6992 19.8295 70.7144 20.5012 69.5757 20.5012ZM69.5757 14.2965C70.4682 14.2965 71.2684 14.7123 71.7916 15.3519C71.8224 15.4159 71.8224 15.4799 71.7608 15.5118C71.7608 15.5118 66.7751 17.7187 66.7136 17.7506C66.652 17.7826 66.5905 17.7187 66.5905 17.6867V17.4308C66.5905 15.6718 67.9446 14.2965 69.5757 14.2965Z" fill="#141414"/>
<path fill-rule="evenodd" clip-rule="evenodd" d="M56.6191 13.7528C57.2654 12.9532 58.1887 12.4734 59.3582 12.4415C61.6048 12.4095 63.636 14.0726 64.0053 16.4073C64.5593 19.4777 62.2819 22.1643 59.4197 22.1643C58.1887 22.1643 57.2347 21.6525 56.5884 20.853C56.5268 20.789 56.4345 20.821 56.4345 20.9169V26.1941C56.4345 26.2581 56.4037 26.2901 56.3422 26.2901H54.8649C54.8034 26.2901 54.7726 26.2581 54.7726 26.1941V12.7933C54.7726 12.7293 54.8034 12.6973 54.8649 12.6973H56.3729C56.4345 12.6973 56.4653 12.7293 56.4653 12.7933V13.6888C56.4653 13.7847 56.5576 13.8167 56.6191 13.7528ZM56.496 16.7911C56.1575 18.902 57.9117 20.725 59.9429 20.3732C61.174 20.1493 62.1896 19.1259 62.3742 17.8466C62.7127 15.7357 60.9585 13.9127 58.9273 14.2645C57.6963 14.4564 56.7115 15.5118 56.496 16.7911Z" fill="#141414"/>
<path fill-rule="evenodd" clip-rule="evenodd" d="M49.233 12.5374C46.6478 12.5374 44.5551 14.7123 44.5551 17.3988C44.5551 20.0854 46.6478 22.2603 49.233 22.2603C51.8181 22.2603 53.9109 20.0854 53.9109 17.3988C53.9109 14.7123 51.8181 12.5374 49.233 12.5374ZM49.233 14.2965C50.8948 14.2965 52.2182 15.7037 52.2182 17.3988C52.2182 19.0939 50.8641 20.5012 49.233 20.5012C47.6018 20.5012 46.2477 19.0939 46.2477 17.3988C46.2477 15.7037 47.6018 14.2965 49.233 14.2965Z" fill="#141414"/>
<path fill-rule="evenodd" clip-rule="evenodd" d="M33.1759 8.43457C34.8528 10.8506 35.8356 13.7843 35.8356 16.9479C35.8356 20.1115 34.8528 23.0455 33.1759 25.4613L29.304 21.5893C30.0644 20.2134 30.4972 18.631 30.4972 16.9479C30.4972 15.2648 30.0644 13.6827 29.304 12.3069L33.1759 8.43457Z" fill="#8FC7FF"/>
<path fill-rule="evenodd" clip-rule="evenodd" d="M29.4011 4.65963L25.5288 8.53162C24.153 7.77121 22.5709 7.3384 20.8878 7.3384C15.5808 7.3384 11.2783 11.6408 11.2783 16.9478C11.2783 22.2548 15.5808 26.5572 20.8878 26.5572C22.5709 26.5572 24.153 26.1244 25.5288 25.364L29.4011 29.236C26.9851 30.9128 24.0514 31.8956 20.8878 31.8956C12.6324 31.8956 5.93994 25.2032 5.93994 16.9478C5.93994 8.69243 12.6324 2 20.8878 2C24.0514 2 26.9851 2.98279 29.4011 4.65963Z" fill="#297EFF"/>
</svg>
