<svg width="165" height="34" viewBox="0 0 165 34" fill="none" xmlns="http://www.w3.org/2000/svg">
<path d="M21.6965 23.4661C24.2244 22.5272 25.544 20.7193 25.544 17.6077C25.544 14.4961 22.9219 11.7543 19.6456 11.7488C16.1881 11.7432 13.58 14.4848 13.6216 17.6077C13.6633 20.7307 15.1528 22.8082 17.5365 23.5594L13.3137 33.9482C7.66197 32.485 1.91382 25.8176 1.91382 17.6077C1.91382 7.88381 9.72699 0.000843048 19.5201 0.000843048C29.3132 0.000843048 37.2519 7.88381 37.2519 17.6077C37.2519 25.9453 31.5582 32.5199 25.7859 33.9773L21.6965 23.4661Z" fill="#7A7B82" stroke="#7A7B82" stroke-width="0.234464" stroke-linecap="round" stroke-linejoin="round"/>
<path d="M54.8143 6.07254C54.8143 7.99943 54.3244 9.50352 53.3444 10.5848C52.371 11.6591 51.0056 12.1963 49.2482 12.1963C47.5627 12.1963 46.2202 11.6453 45.2206 10.5432C44.2276 9.44114 43.7311 7.95091 43.7311 6.07254C43.7311 4.15257 44.2178 2.66235 45.1912 1.60186C46.1712 0.534442 47.5431 0.000732422 49.307 0.000732422C50.398 0.000732422 51.3616 0.246794 52.1979 0.738914C53.0341 1.23104 53.6776 1.93803 54.1284 2.85989C54.5857 3.77481 54.8143 4.8457 54.8143 6.07254ZM47.6215 6.07254C47.6215 7.0845 47.7489 7.85734 48.0037 8.39105C48.2585 8.91783 48.6864 9.18122 49.2874 9.18122C49.8819 9.18122 50.3 8.91783 50.5417 8.39105C50.79 7.85734 50.9141 7.0845 50.9141 6.07254C50.9141 5.0675 50.79 4.30852 50.5417 3.79561C50.2935 3.2827 49.8688 3.02624 49.2678 3.02624C48.6798 3.02624 48.2585 3.2827 48.0037 3.79561C47.7489 4.30159 47.6215 5.06057 47.6215 6.07254Z" fill="#7A7B82"/>
<path d="M63.6546 12.1961C63.0928 12.1961 62.5898 12.099 62.1455 11.9049C61.7013 11.7039 61.2603 11.347 60.8226 10.8341H60.6462C60.7638 11.6589 60.8226 12.1718 60.8226 12.3728V17.1034H56.991V0.208426H60.1072L60.6462 1.70558H60.8226C61.5347 0.568851 62.5179 0.000488281 63.7722 0.000488281C65.0004 0.000488281 65.9641 0.541126 66.6631 1.6224C67.3621 2.70368 67.7116 4.18697 67.7116 6.07228C67.7116 7.97144 67.3458 9.4686 66.6141 10.5637C65.8889 11.6519 64.9025 12.1961 63.6546 12.1961ZM62.3709 3.19234C61.8091 3.19234 61.4138 3.40721 61.1852 3.83694C60.963 4.25975 60.8422 4.8905 60.8226 5.72918V6.05148C60.8226 7.06345 60.95 7.7947 61.2048 8.24523C61.4596 8.69576 61.8613 8.92103 62.4101 8.92103C62.9001 8.92103 63.2561 8.69923 63.4783 8.25563C63.7004 7.8051 63.8114 7.06345 63.8114 6.03069C63.8114 5.01872 63.7004 4.29441 63.4783 3.85774C63.2561 3.41414 62.887 3.19234 62.3709 3.19234Z" fill="#7A7B82"/>
<path d="M75.2536 12.1961C73.4048 12.1961 71.9675 11.6762 70.9418 10.6365C69.9227 9.58992 69.4131 8.10316 69.4131 6.17626C69.4131 4.18698 69.8867 2.6621 70.834 1.60161C71.7813 0.534198 73.1336 0.000488281 74.891 0.000488281C76.5635 0.000488281 77.8537 0.464884 78.7618 1.39368C79.6764 2.31554 80.1338 3.64634 80.1338 5.38609V7.19516H73.2839C73.31 7.85363 73.5354 8.37001 73.9601 8.7443C74.3912 9.11859 74.9759 9.30573 75.7142 9.30573C76.3871 9.30573 77.0044 9.23989 77.5663 9.10819C78.1347 8.96957 78.7488 8.73737 79.4086 8.4116V11.3331C78.8075 11.6589 78.1869 11.8842 77.5467 12.0089C76.9064 12.1337 76.1421 12.1961 75.2536 12.1961ZM75.0282 2.76607C74.5774 2.76607 74.1985 2.91856 73.8915 3.22353C73.5909 3.52158 73.4146 3.99291 73.3623 4.63752H76.6549C76.6419 4.06915 76.4883 3.61515 76.1943 3.27552C75.9069 2.93589 75.5182 2.76607 75.0282 2.76607Z" fill="#7A7B82"/>
<path d="M89.3228 11.9881V5.56283C89.3228 4.7796 89.215 4.19044 88.9994 3.79536C88.7904 3.39334 88.4507 3.19234 87.9803 3.19234C87.3335 3.19234 86.8664 3.46612 86.579 4.01369C86.2915 4.56126 86.1478 5.50045 86.1478 6.83125V11.9881H82.3162V0.208426H85.207L85.6872 1.66399H85.9126C86.2392 1.10949 86.69 0.693615 87.2649 0.416364C87.8464 0.139114 88.5127 0.000488281 89.264 0.000488281C90.4922 0.000488281 91.4461 0.378243 92.1255 1.13375C92.8115 1.88926 93.1544 2.95321 93.1544 4.3256V11.9881H89.3228Z" fill="#7A7B82"/>
<path d="M108.573 8.71441C108.573 9.83728 108.188 10.7002 107.417 11.3033C106.646 11.8994 105.542 12.1974 104.105 12.1974C102.661 12.1974 101.501 11.9652 100.626 11.5008V9.39021C101.9 10.014 103.086 10.3259 104.183 10.3259C105.601 10.3259 106.31 9.87194 106.31 8.96394C106.31 8.67282 106.231 8.43023 106.074 8.23615C105.918 8.04208 105.66 7.84107 105.3 7.63313C104.941 7.42519 104.441 7.18952 103.801 6.92613C102.553 6.41322 101.707 5.9003 101.263 5.38738C100.825 4.87447 100.606 4.20906 100.606 3.39116C100.606 2.40692 100.979 1.64447 101.723 1.10383C102.475 0.556258 103.494 0.282471 104.781 0.282471C106.055 0.282471 107.26 0.556258 108.397 1.10383L107.652 2.94409C106.483 2.43118 105.5 2.17472 104.703 2.17472C103.487 2.17472 102.88 2.54208 102.88 3.2768C102.88 3.63722 103.037 3.9422 103.35 4.19173C103.67 4.44126 104.363 4.78436 105.428 5.22103C106.323 5.58839 106.973 5.92456 107.378 6.22954C107.783 6.53452 108.083 6.88801 108.279 7.29003C108.475 7.68511 108.573 8.15991 108.573 8.71441Z" fill="#7A7B82"/>
<path d="M120.667 6.21914C120.667 8.09752 120.213 9.5635 119.305 10.6171C118.397 11.6706 117.133 12.1974 115.513 12.1974C114.5 12.1974 113.605 11.9548 112.828 11.4696C112.05 10.9844 111.452 10.2878 111.034 9.37982C110.616 8.47182 110.407 7.41826 110.407 6.21914C110.407 4.35462 110.858 2.89904 111.759 1.85241C112.661 0.805785 113.932 0.282471 115.571 0.282471C117.139 0.282471 118.381 0.819647 119.295 1.894C120.21 2.96142 120.667 4.40314 120.667 6.21914ZM112.779 6.21914C112.779 8.87383 113.703 10.2012 115.552 10.2012C117.381 10.2012 118.296 8.87383 118.296 6.21914C118.296 3.59217 117.375 2.27869 115.532 2.27869C114.565 2.27869 113.863 2.61832 113.425 3.29759C112.994 3.97686 112.779 4.95071 112.779 6.21914Z" fill="#7A7B82"/>
<path d="M130.969 11.9878L130.646 10.4803H130.528C130.208 11.014 129.751 11.4333 129.156 11.7383C128.568 12.0433 127.895 12.1958 127.137 12.1958C125.824 12.1958 124.844 11.8492 124.197 11.1561C123.551 10.4629 123.227 9.41284 123.227 8.00578V0.48877H125.55V7.5795C125.55 8.45978 125.72 9.12172 126.059 9.56533C126.399 10.002 126.932 10.2203 127.657 10.2203C128.624 10.2203 129.332 9.91536 129.783 9.3054C130.241 8.68852 130.469 7.65921 130.469 6.2175V0.48877H132.782V11.9878H130.969Z" fill="#7A7B82"/>
<path d="M141.553 0.282471C142.017 0.282471 142.399 0.317128 142.699 0.386441L142.474 2.66338C142.147 2.58021 141.808 2.53862 141.455 2.53862C140.534 2.53862 139.786 2.85746 139.211 3.49514C138.642 4.13282 138.358 4.96112 138.358 5.98002V11.9895H136.055V0.490411H137.858L138.162 2.51782H138.28C138.639 1.83162 139.106 1.28751 139.681 0.885496C140.263 0.48348 140.886 0.282471 141.553 0.282471Z" fill="#7A7B82"/>
<path d="M149.098 12.1974C147.459 12.1974 146.211 11.6914 145.355 10.6794C144.506 9.66054 144.081 8.20149 144.081 6.30232C144.081 4.36848 144.525 2.88171 145.414 1.84202C146.309 0.802319 147.599 0.282471 149.285 0.282471C150.428 0.282471 151.457 0.507738 152.371 0.958274L151.676 2.9233C150.702 2.52128 149.899 2.32028 149.265 2.32028C147.39 2.32028 146.453 3.64069 146.453 6.28152C146.453 7.57074 146.684 8.54113 147.148 9.19267C147.619 9.83728 148.305 10.1596 149.206 10.1596C150.232 10.1596 151.202 9.88927 152.117 9.34863V11.48C151.705 11.7365 151.264 11.9201 150.794 12.031C150.33 12.1419 149.765 12.1974 149.098 12.1974Z" fill="#7A7B82"/>
<path d="M159.415 12.1974C157.729 12.1974 156.41 11.6775 155.456 10.6379C154.509 9.59122 154.035 8.15298 154.035 6.32311C154.035 4.44472 154.476 2.96835 155.358 1.894C156.24 0.819647 157.452 0.282471 158.994 0.282471C160.424 0.282471 161.555 0.743403 162.384 1.66527C163.214 2.58713 163.629 3.85556 163.629 5.47056V6.79097H156.407C156.439 7.90691 156.723 8.7664 157.259 9.36942C157.795 9.96551 158.549 10.2636 159.523 10.2636C160.163 10.2636 160.757 10.2012 161.306 10.0764C161.862 9.94472 162.456 9.72985 163.09 9.4318V11.4176C162.528 11.7018 161.96 11.9028 161.385 12.0206C160.81 12.1385 160.153 12.1974 159.415 12.1974ZM158.994 2.13313C158.262 2.13313 157.674 2.37919 157.23 2.87132C156.792 3.36344 156.531 4.08083 156.446 5.02349H161.365C161.352 4.0739 161.136 3.35651 160.718 2.87132C160.3 2.37919 159.725 2.13313 158.994 2.13313Z" fill="#7A7B82"/>
<path d="M46.1718 33.3712H43.8689V21.8722H46.1718V33.3712ZM43.7317 18.8259C43.7317 18.3892 43.8427 18.053 44.0649 17.8174C44.2935 17.5817 44.6169 17.4639 45.035 17.4639C45.4401 17.4639 45.7536 17.5817 45.9758 17.8174C46.2044 18.053 46.3188 18.3892 46.3188 18.8259C46.3188 19.2417 46.2044 19.571 45.9758 19.8136C45.7536 20.0492 45.4401 20.1671 45.035 20.1671C44.6169 20.1671 44.2935 20.0492 44.0649 19.8136C43.8427 19.571 43.7317 19.2417 43.7317 18.8259Z" fill="#7A7B82"/>
<path d="M59.0106 33.3743H56.698V26.3043C56.698 25.4171 56.5281 24.7551 56.1884 24.3185C55.8552 23.8818 55.3228 23.6635 54.5911 23.6635C53.6176 23.6635 52.9055 23.9684 52.4548 24.5784C52.004 25.1884 51.7786 26.2107 51.7786 27.6455V33.3743H49.4757V21.8752H51.2788L51.6022 23.3827H51.7198C52.0465 22.8352 52.5103 22.4124 53.1113 22.1143C53.7124 21.8163 54.3787 21.6672 55.1104 21.6672C57.7106 21.6672 59.0106 23.0708 59.0106 25.878V33.3743Z" fill="#7A7B82"/>
<path d="M64.5076 33.3712H62.2047V21.8722H64.5076V33.3712ZM62.0675 18.8259C62.0675 18.3892 62.1786 18.053 62.4007 17.8174C62.6293 17.5817 62.9527 17.4639 63.3708 17.4639C63.7759 17.4639 64.0895 17.5817 64.3116 17.8174C64.5402 18.053 64.6546 18.3892 64.6546 18.8259C64.6546 19.2417 64.5402 19.571 64.3116 19.8136C64.0895 20.0492 63.7759 20.1671 63.3708 20.1671C62.9527 20.1671 62.6293 20.0492 62.4007 19.8136C62.1786 19.571 62.0675 19.2417 62.0675 18.8259Z" fill="#7A7B82"/>
<path d="M71.8484 31.6087C72.4102 31.6087 72.9721 31.5152 73.5339 31.328V33.1683C73.2791 33.2861 72.9492 33.3831 72.5442 33.4594C72.1457 33.5426 71.7308 33.5842 71.2996 33.5842C69.1176 33.5842 68.0266 32.3642 68.0266 29.9244V23.7279H66.5469V22.6466L68.1344 21.7525L68.9184 19.3196H70.3393V21.8772H73.4261V23.7279H70.3393V29.8828C70.3393 30.472 70.4765 30.9087 70.7509 31.1929C71.0318 31.4701 71.3976 31.6087 71.8484 31.6087Z" fill="#7A7B82"/>
<path d="M77.9954 33.3712H75.6925V21.8722H77.9954V33.3712ZM75.5553 18.8259C75.5553 18.3892 75.6664 18.053 75.8885 17.8174C76.1171 17.5817 76.4405 17.4639 76.8586 17.4639C77.2637 17.4639 77.5773 17.5817 77.7994 17.8174C78.028 18.053 78.1424 18.3892 78.1424 18.8259C78.1424 19.2417 78.028 19.571 77.7994 19.8136C77.5773 20.0492 77.2637 20.1671 76.8586 20.1671C76.4405 20.1671 76.1171 20.0492 75.8885 19.8136C75.6664 19.571 75.5553 19.2417 75.5553 18.8259Z" fill="#7A7B82"/>
<path d="M88.0779 33.3742L87.6173 31.7731H87.5389C87.0163 32.4731 86.4903 32.9514 85.9612 33.2079C85.432 33.4574 84.7526 33.5821 83.9229 33.5821C82.858 33.5821 82.025 33.2772 81.424 32.6672C80.8295 32.0573 80.5322 31.1943 80.5322 30.0784C80.5322 28.8931 80.9471 27.999 81.7768 27.396C82.6065 26.7929 83.8706 26.4637 85.5692 26.4082L87.4409 26.3459V25.7324C87.4409 24.9977 87.2776 24.4502 86.9509 24.0897C86.6308 23.7224 86.131 23.5387 85.4516 23.5387C84.8963 23.5387 84.3638 23.6253 83.8543 23.7986C83.3447 23.9719 82.8547 24.1764 82.3843 24.412L81.6396 22.6653C82.2275 22.3396 82.871 22.0935 83.5701 21.9272C84.2691 21.7539 84.929 21.6672 85.5496 21.6672C86.9281 21.6672 87.9668 21.9861 88.6658 22.6238C89.3714 23.2614 89.7242 24.263 89.7242 25.6285V33.3742H88.0779ZM84.648 31.7107C85.4843 31.7107 86.1539 31.4646 86.6569 30.9725C87.1665 30.4735 87.4213 29.7769 87.4213 28.8827V27.8846L86.0298 27.947C84.9453 27.9886 84.1548 28.1827 83.6583 28.5292C83.1683 28.8689 82.9233 29.3922 82.9233 30.0992C82.9233 30.6121 83.067 31.0106 83.3545 31.2948C83.6419 31.5721 84.0731 31.7107 84.648 31.7107Z" fill="#7A7B82"/>
<path d="M96.9823 31.6087C97.5442 31.6087 98.106 31.5152 98.6679 31.328V33.1683C98.4131 33.2861 98.0831 33.3831 97.6781 33.4594C97.2796 33.5426 96.8647 33.5842 96.4336 33.5842C94.2515 33.5842 93.1605 32.3642 93.1605 29.9244V23.7279H91.6808V22.6466L93.2683 21.7525L94.0523 19.3196H95.4732V21.8772H98.5601V23.7279H95.4732V29.8828C95.4732 30.472 95.6104 30.9087 95.8848 31.1929C96.1657 31.4701 96.5316 31.6087 96.9823 31.6087Z" fill="#7A7B82"/>
<path d="M103.129 33.3712H100.826V21.8722H103.129V33.3712ZM100.689 18.8259C100.689 18.3892 100.8 18.053 101.022 17.8174C101.251 17.5817 101.574 17.4639 101.993 17.4639C102.398 17.4639 102.711 17.5817 102.933 17.8174C103.162 18.053 103.276 18.3892 103.276 18.8259C103.276 19.2417 103.162 19.571 102.933 19.8136C102.711 20.0492 102.398 20.1671 101.993 20.1671C101.574 20.1671 101.251 20.0492 101.022 19.8136C100.8 19.571 100.689 19.2417 100.689 18.8259Z" fill="#7A7B82"/>
<path d="M108.899 33.3733L104.783 21.8743H107.213L109.418 28.5595C109.797 29.6824 110.026 30.5904 110.104 31.2835H110.183C110.241 30.7845 110.47 29.8765 110.868 28.5595L113.073 21.8743H115.523L111.388 33.3733H108.899Z" fill="#7A7B82"/>
<path d="M121.896 33.5821C120.211 33.5821 118.891 33.0623 117.937 32.0226C116.99 30.976 116.516 29.5377 116.516 27.7079C116.516 25.8295 116.957 24.3531 117.839 23.2788C118.721 22.2044 119.933 21.6672 121.475 21.6672C122.905 21.6672 124.036 22.1282 124.865 23.05C125.695 23.9719 126.11 25.2403 126.11 26.8553V28.1757H118.888C118.92 29.2917 119.204 30.1511 119.74 30.7542C120.276 31.3503 121.03 31.6483 122.004 31.6483C122.644 31.6483 123.239 31.5859 123.787 31.4612C124.343 31.3295 124.937 31.1146 125.571 30.8166V32.8024C125.009 33.0866 124.441 33.2876 123.866 33.4054C123.291 33.5232 122.634 33.5821 121.896 33.5821ZM121.475 23.5179C120.743 23.5179 120.155 23.764 119.711 24.2561C119.273 24.7482 119.012 25.4656 118.927 26.4082H123.846C123.833 25.4587 123.617 24.7413 123.199 24.2561C122.781 23.764 122.206 23.5179 121.475 23.5179Z" fill="#7A7B82"/>
<path d="M130.682 20.251H131.171C131.412 20.251 131.605 20.1892 131.75 20.0655C131.898 19.9388 131.972 19.7789 131.972 19.5859C131.972 19.3597 131.907 19.1983 131.777 19.1018C131.648 19.0022 131.443 18.9525 131.162 18.9525H130.682V20.251ZM132.646 19.5678C132.646 19.8091 132.581 20.0233 132.452 20.2103C132.325 20.3943 132.145 20.5315 131.913 20.622L132.99 22.4093H132.23L131.293 20.8075H130.682V22.4093H130.013V18.3778H131.194C131.694 18.3778 132.061 18.4759 132.293 18.6719C132.528 18.868 132.646 19.1666 132.646 19.5678ZM127.864 20.3913C127.864 19.788 128.014 19.2224 128.316 18.6945C128.618 18.1667 129.032 17.7504 129.56 17.4458C130.088 17.1411 130.657 16.9888 131.266 16.9888C131.869 16.9888 132.435 17.1396 132.963 17.4412C133.491 17.7429 133.907 18.1576 134.212 18.6855C134.516 19.2134 134.669 19.782 134.669 20.3913C134.669 20.9855 134.522 21.5435 134.23 22.0654C133.937 22.5872 133.527 23.005 132.999 23.3187C132.471 23.6324 131.894 23.7893 131.266 23.7893C130.642 23.7893 130.066 23.6339 129.538 23.3232C129.01 23.0095 128.598 22.5917 128.303 22.0699C128.01 21.5481 127.864 20.9885 127.864 20.3913ZM128.339 20.3913C128.339 20.9131 128.47 21.4018 128.732 21.8573C128.995 22.3097 129.352 22.6672 129.805 22.9296C130.26 23.189 130.747 23.3187 131.266 23.3187C131.791 23.3187 132.278 23.1875 132.728 22.9251C133.177 22.6626 133.533 22.3082 133.795 21.8618C134.061 21.4123 134.194 20.9222 134.194 20.3913C134.194 19.8664 134.062 19.3793 133.8 18.9298C133.537 18.4804 133.182 18.1244 132.732 17.862C132.286 17.5966 131.797 17.4639 131.266 17.4639C130.741 17.4639 130.254 17.5951 129.805 17.8575C129.355 18.1199 128.998 18.4759 128.732 18.9253C128.47 19.3717 128.339 19.8604 128.339 20.3913Z" fill="#7A7B82"/>
</svg>
