<svg width="375" height="626" viewBox="0 0 375 626" fill="none" xmlns="http://www.w3.org/2000/svg">
<rect x="-32" y="362" width="256" height="88" fill="#BFE3B9"/>
<rect x="112" y="538" width="200" height="88" fill="#7A9FB8"/>
<rect x="224" y="450" width="88" height="88" fill="#FFF1AC"/>
<path d="M488 538C488 586.601 448.601 626 400 626C351.399 626 312 586.601 312 538C312 489.399 351.399 450 400 450C448.601 450 488 489.399 488 538Z" fill="#E69D9B"/>
<path d="M312 318C312 342.301 292.301 362 268 362C243.699 362 224 342.301 224 318C224 293.699 243.699 274 268 274C292.301 274 312 293.699 312 318Z" fill="#E69D9B"/>
<path d="M402 272L402 360.871L402 449.743C353.399 449.743 314 409.954 314 360.871C314 311.789 353.399 272 402 272Z" fill="#BFE3B9"/>
<path d="M312 449.776L224 361.776L312 361.776L312 449.776Z" fill="#7A9FB8"/>
<rect x="402" y="88" width="184" height="88" transform="rotate(90 402 88)" fill="#FFF1AC"/>
<path d="M402 44C402 68.3005 382.301 88 358 88C333.699 88 314 68.3005 314 44C314 19.6995 333.699 0 358 0C382.301 0 402 19.6995 402 44Z" fill="#E69D9B"/>
</svg>
