<svg width="816" height="560" viewBox="0 0 816 560" fill="none" xmlns="http://www.w3.org/2000/svg">
<rect y="448" width="336" height="112" fill="#7A9FB8"/>
<rect x="560" y="448" width="256" height="112" fill="#BFE3B9"/>
<rect x="672" y="112" width="336" height="112" transform="rotate(90 672 112)" fill="#FFF1AC"/>
<rect x="224" y="336" width="112" height="112" fill="#FFF1AC"/>
<path d="M560 448C560 509.856 509.856 560 448 560C386.144 560 336 509.856 336 448C336 386.144 386.144 336 448 336C509.856 336 560 386.144 560 448Z" fill="#E69D9B"/>
<path d="M672 56C672 86.9279 646.928 112 616 112C585.072 112 560 86.9279 560 56C560 25.0721 585.072 0 616 0C646.928 0 672 25.0721 672 56Z" fill="#E69D9B"/>
<path d="M336 168C336 198.928 310.928 224 280 224C249.072 224 224 198.928 224 168C224 137.072 249.072 112 280 112C310.928 112 336 137.072 336 168Z" fill="#E69D9B"/>
<path d="M448 112L448 224L448 336C386.144 336 336 285.856 336 224C336 162.144 386.144 112 448 112Z" fill="#BFE3B9"/>
<path d="M336 224L224 336L224 224L336 224Z" fill="#7A9FB8"/>
</svg>
