<svg width="33" height="32" viewBox="0 0 33 32" fill="none" xmlns="http://www.w3.org/2000/svg">
<path d="M32.7961 5.31477C31.6061 5.87692 30.3381 6.24954 29.0161 6.43046C30.3761 5.556 31.4141 4.18185 31.9021 2.52554C30.6341 3.33969 29.2341 3.91477 27.7421 4.23569C26.5381 2.85508 24.8221 2 22.9501 2C19.3181 2 16.3941 5.17477 16.3941 9.06677C16.3941 9.62677 16.4381 10.1652 16.5461 10.6778C11.0921 10.3914 6.26614 7.57631 3.02414 3.288C2.45814 4.34554 2.12614 5.556 2.12614 6.85908C2.12614 9.30585 3.29614 11.4748 5.04014 12.7305C3.98614 12.7089 2.95214 12.3794 2.07614 11.8603C2.07614 11.8818 2.07614 11.9098 2.07614 11.9378C2.07614 15.3711 4.35014 18.2228 7.33214 18.8797C6.79814 19.0369 6.21614 19.1123 5.61214 19.1123C5.19214 19.1123 4.76814 19.0865 4.37014 18.9917C5.22014 21.7895 7.63214 23.8465 10.5001 23.9132C8.26814 25.7935 5.43414 26.9265 2.36614 26.9265C1.82814 26.9265 1.31214 26.9006 0.796143 26.8295C3.70214 28.8477 7.14614 30 10.8601 30C22.9321 30 29.5321 19.2308 29.5321 9.896C29.5321 9.58369 29.5221 9.28215 29.5081 8.98277C30.8101 7.98769 31.9041 6.74492 32.7961 5.31477Z" fill="#3C5869"/>
</svg>
