<svg width="21" height="21" viewBox="0 0 21 21" fill="none" xmlns="http://www.w3.org/2000/svg">
<path d="M10.8503 2.37845C6.42368 2.37845 2.85034 5.98788 2.85034 10.4593C2.85034 14.1764 5.35701 17.4088 8.93034 18.3246C8.98368 18.3246 9.09034 18.3246 9.14368 18.2707C9.19701 18.2168 9.25034 18.163 9.25034 18.0552V16.1158C9.25034 16.062 9.19701 15.9542 9.19701 15.9003C9.14368 15.8465 9.09034 15.8465 8.98368 15.8465H8.45034C7.59701 15.8465 7.06368 15.0384 6.58368 14.338C6.47701 14.2303 6.42368 14.0687 6.31701 13.9609C6.63701 14.1226 6.85034 14.338 7.11701 14.6074C7.49034 14.9845 7.86368 15.3616 8.50368 15.3616C8.77034 15.3616 9.30368 15.0923 9.30368 14.2842V14.0148C9.30368 13.9071 9.25034 13.7993 9.09034 13.7455C7.27701 13.2067 6.10368 11.7522 6.10368 10.0822C6.10368 9.2202 6.47701 8.35825 7.11701 7.71178C7.11701 7.60404 7.11701 7.49629 7.11701 7.38855C6.85034 6.84983 7.11701 6.09562 7.49034 5.66464C7.86368 5.82626 8.23701 6.25724 8.55701 6.58047C8.61034 6.68821 8.77034 6.68821 8.87701 6.63434L9.03701 6.58047C9.62368 6.36498 10.317 6.09562 10.957 6.09562C11.597 6.09562 12.2903 6.36498 12.877 6.58047L13.037 6.63434C13.1437 6.68821 13.2503 6.63434 13.357 6.58047C13.677 6.20336 14.0503 5.82626 14.4237 5.66464C14.797 6.14949 15.0637 6.84983 14.797 7.38855C14.5837 7.49629 14.5837 7.60404 14.637 7.71178C15.277 8.41212 15.6503 9.16633 15.6503 9.97441C15.6503 11.7522 14.317 13.3145 12.397 13.7455C12.2903 13.7455 12.237 13.7993 12.237 13.9071C12.237 14.0148 12.1837 14.0687 12.237 14.1226C12.397 14.3919 12.4503 14.9306 12.4503 15.631C12.4503 16.5468 12.4503 18.1091 12.4503 18.1091C12.4503 18.2168 12.5037 18.2707 12.557 18.3246C12.6103 18.3784 12.6637 18.3784 12.717 18.3784H12.7703C16.3437 17.4088 18.8503 14.1764 18.8503 10.4593C18.8503 5.98788 15.277 2.37845 10.8503 2.37845Z" fill="#3C5869"/>
</svg>
