<svg width="20" height="18" viewBox="0 0 20 18" fill="none" xmlns="http://www.w3.org/2000/svg">
<path fill-rule="evenodd" clip-rule="evenodd" d="M10 0C9.44771 0 9 0.447715 9 1V8.58579L6.70711 6.29289C6.31658 5.90237 5.68342 5.90237 5.29289 6.29289C4.90237 6.68342 4.90237 7.31658 5.29289 7.70711L9.29218 11.7064C9.29459 11.7088 9.29702 11.7112 9.29945 11.7136C9.3938 11.8063 9.50195 11.8764 9.61722 11.9241C9.73512 11.973 9.86441 12 10 12C10.2728 12 10.5201 11.8907 10.7005 11.7136C10.703 11.7112 10.7054 11.7088 10.7078 11.7064L14.7071 7.70711C15.0976 7.31658 15.0976 6.68342 14.7071 6.29289C14.3166 5.90237 13.6834 5.90237 13.2929 6.29289L11 8.58579V1C11 0.447715 10.5523 0 10 0ZM0 12C0 11.4477 0.447715 11 1 11C1.55228 11 2 11.4477 2 12V15C2 15.5523 2.44772 16 3 16H17C17.5523 16 18 15.5523 18 15V12C18 11.4477 18.4477 11 19 11C19.5523 11 20 11.4477 20 12V15C20 16.6569 18.6569 18 17 18H3C1.34315 18 0 16.6569 0 15V12Z" fill="#3C5869"/>
</svg>
