<svg width="148" height="25" viewBox="0 0 148 25" fill="none" xmlns="http://www.w3.org/2000/svg">
<path d="M141.629 16.9188C140.518 16.9188 139.56 16.3998 138.87 15.5349C138.832 15.4484 138.832 15.3619 138.908 15.3187L145.347 12.2483L147.225 11.3401C147.302 11.2969 147.302 11.2536 147.302 11.2104C146.688 8.22642 144.274 6.02091 141.438 6.15064C138.448 6.28038 135.957 9.00484 135.842 12.378C135.689 16.1403 138.333 19.254 141.668 19.254C144.082 19.254 146.152 17.5674 147.033 15.1889C147.072 15.1025 147.033 15.016 146.957 15.016L145.079 14.6268C145.04 14.6268 144.964 14.6268 144.964 14.7132C144.274 16.0106 143.047 16.9188 141.629 16.9188ZM141.629 8.52914C142.741 8.52914 143.737 9.09133 144.389 9.95624C144.427 10.0427 144.427 10.1292 144.351 10.1725C144.351 10.1725 138.142 13.1564 138.065 13.1997C137.989 13.2429 137.912 13.1564 137.912 13.1132V12.7672C137.874 10.3887 139.56 8.52914 141.629 8.52914Z" fill="#7A7B82"/>
<path d="M135.574 6.36847H133.735C133.696 6.36847 133.658 6.41171 133.62 6.45496L130.63 16.3582C130.554 16.5744 130.324 16.5744 130.247 16.3582L127.258 6.45496C127.258 6.41171 127.219 6.36847 127.143 6.36847H125.303C125.226 6.36847 125.188 6.45496 125.188 6.54145L128.982 18.9961C128.982 19.0394 129.021 19.0826 129.097 19.0826H131.703C131.742 19.0826 131.78 19.0394 131.818 18.9961L135.612 6.54145C135.689 6.45496 135.651 6.36847 135.574 6.36847Z" fill="#7A7B82"/>
<path d="M123.464 6.36847H121.586C121.509 6.36847 121.471 6.41171 121.471 6.49821V18.9529C121.471 19.0394 121.509 19.0826 121.586 19.0826H123.464C123.541 19.0826 123.579 19.0394 123.579 18.9529V6.49821C123.579 6.45496 123.541 6.36847 123.464 6.36847Z" fill="#7A7B82"/>
<path d="M123.464 2.30157H121.586C121.509 2.30157 121.471 2.34482 121.471 2.43131V4.55034C121.471 4.63683 121.509 4.68008 121.586 4.68008H123.464C123.541 4.68008 123.579 4.63683 123.579 4.55034V2.43131C123.579 2.34482 123.541 2.30157 123.464 2.30157Z" fill="#7A7B82"/>
<path d="M119.592 6.36794H117.485C117.446 6.36794 117.408 6.3247 117.408 6.28145V0.875769C117.408 0.789278 117.37 0.746033 117.293 0.746033H115.415C115.338 0.746033 115.3 0.789278 115.3 0.875769V6.28145C115.3 6.3247 115.262 6.36794 115.223 6.36794H113.154C113.077 6.36794 113.039 6.41119 113.039 6.49768V8.61671C113.039 8.7032 113.077 8.74644 113.154 8.74644H115.223C115.262 8.74644 115.3 8.78969 115.3 8.83294V18.9524C115.3 19.0389 115.338 19.0821 115.415 19.0821H117.293C117.37 19.0821 117.408 19.0389 117.408 18.9524V8.83294C117.408 8.78969 117.446 8.74644 117.485 8.74644H119.592C119.669 8.74644 119.707 8.7032 119.707 8.61671V6.49768C119.707 6.45443 119.631 6.36794 119.592 6.36794Z" fill="#7A7B82"/>
<path d="M107.29 16.9206C104.991 16.9206 103.189 14.5854 103.611 11.9041C103.841 10.4338 105.144 8.9202 106.447 8.61748C107.865 8.27152 109.207 8.83371 110.05 9.91484C110.088 9.95809 110.165 9.95809 110.203 9.91484C110.51 9.56888 111.468 8.48774 111.544 8.40125C111.583 8.35801 111.583 8.27152 111.544 8.22827C110.433 6.84442 108.785 6.02275 106.984 6.10924C104.033 6.28222 101.58 9.00669 101.427 12.3366C101.273 16.0989 103.918 19.2126 107.252 19.2126C108.938 19.2126 110.471 18.391 111.544 17.0936C111.583 17.0503 111.583 17.0071 111.544 16.9639C111.314 16.7044 110.471 15.753 110.203 15.4503C110.165 15.407 110.088 15.407 110.05 15.4503C109.398 16.4017 108.402 16.9206 107.29 16.9206Z" fill="#7A7B82"/>
<path d="M94.7576 16.9188C93.6461 16.9188 92.688 16.3998 91.9982 15.5349C91.9598 15.4484 91.9598 15.3619 92.0365 15.3187L98.4751 12.2483L100.353 11.3401C100.43 11.2969 100.43 11.2536 100.43 11.2104C99.8165 8.22642 97.402 6.02091 94.566 6.15064C91.5766 6.28038 89.0854 9.00484 88.9705 12.378C88.8172 16.1403 91.4616 19.254 94.7959 19.254C97.2104 19.254 99.28 17.5674 100.161 15.1889C100.2 15.1025 100.161 15.016 100.085 15.016L98.2069 14.6268C98.1685 14.6268 98.0919 14.6268 98.0919 14.7132C97.402 16.0106 96.1373 16.9188 94.7576 16.9188ZM94.7576 8.52914C95.869 8.52914 96.8655 9.09133 97.517 9.95624C97.5553 10.0427 97.5553 10.1292 97.4787 10.1725C97.4787 10.1725 91.27 13.1564 91.1933 13.1997C91.1167 13.2429 91.04 13.1564 91.04 13.1132V12.7672C91.0017 10.3887 92.688 8.52914 94.7576 8.52914Z" fill="#7A7B82"/>
<path d="M87.3611 0.746033H85.4831C85.4065 0.746033 85.3682 0.789278 85.3682 0.875769V18.9524C85.3682 19.0389 85.4065 19.0821 85.4831 19.0821H87.3611C87.4377 19.0821 87.476 19.0389 87.476 18.9524V0.875769C87.476 0.789278 87.3994 0.746033 87.3611 0.746033Z" fill="#7A7B82"/>
<path d="M83.26 0.746033H81.3821C81.3054 0.746033 81.2671 0.789278 81.2671 0.875769V18.9524C81.2671 19.0389 81.3054 19.0821 81.3821 19.0821H83.26C83.3367 19.0821 83.375 19.0389 83.375 18.9524V0.875769C83.3367 0.789278 83.2983 0.746033 83.26 0.746033Z" fill="#7A7B82"/>
<path d="M74.062 8.53091C76.1316 8.53091 77.7796 10.4337 77.7796 12.7257C77.7796 15.0177 76.0933 16.9205 74.062 16.9205C72.0308 16.9205 70.3445 15.0177 70.3445 12.7257C70.3445 10.4337 71.9925 8.53091 74.062 8.53091ZM74.062 6.1524C70.8427 6.1524 68.2366 9.0931 68.2366 12.7257C68.2366 16.3583 70.8427 19.299 74.062 19.299C77.2814 19.299 79.8875 16.3583 79.8875 12.7257C79.8875 9.0931 77.2814 6.1524 74.062 6.1524Z" fill="#7A7B82"/>
<path d="M63.3694 16.9206C61.0699 16.9206 59.2686 14.5854 59.6902 11.9041C59.9201 10.4338 61.2232 8.9202 62.5262 8.61748C63.9443 8.27152 65.2857 8.83371 66.1288 9.91484C66.1672 9.95809 66.2438 9.95809 66.2821 9.91484C66.5887 9.56888 67.5469 8.48774 67.6235 8.40125C67.6618 8.35801 67.6618 8.27152 67.6235 8.22827C66.5121 6.84442 64.8641 6.02275 63.0628 6.10924C60.1117 6.28222 57.6589 9.00669 57.5056 12.3366C57.3523 16.0989 59.9968 19.2126 63.3311 19.2126C65.0174 19.2126 66.5504 18.391 67.6235 17.0936C67.6618 17.0503 67.6618 17.0071 67.6235 16.9639C67.3936 16.7044 66.5504 15.753 66.2821 15.4503C66.2438 15.407 66.1672 15.407 66.1288 15.4503C65.4773 16.4017 64.4808 16.9206 63.3694 16.9206Z" fill="#7A7B82"/>
<path d="M44.3211 6.1524C43.0947 6.1524 41.6766 7.01731 41.0251 8.05521C40.9868 8.1417 40.8335 8.09845 40.8335 8.01196V6.49837C40.8335 6.45512 40.7952 6.36863 40.7185 6.36863H38.8406C38.8022 6.36863 38.7256 6.41188 38.7256 6.49837V12.769V18.9963C38.7256 19.0396 38.7639 19.126 38.8406 19.126H40.7185C40.7568 19.126 40.8335 19.0828 40.8335 18.9963V12.769C40.8335 10.3905 42.2515 8.70389 44.2828 8.70389C46.9656 8.70389 47.7704 10.6932 47.7704 13.0284V18.9963C47.7704 19.0396 47.8087 19.126 47.8854 19.126H49.7633C49.8016 19.126 49.8783 19.0828 49.8783 18.9963V13.0284C49.9166 9.39582 48.3836 6.1524 44.3211 6.1524Z" fill="#7A7B82"/>
<path d="M31.9424 16.9188C30.831 16.9188 29.8728 16.3998 29.183 15.5349C29.1447 15.4484 29.1447 15.3619 29.2213 15.3187L35.66 12.2483L37.5379 11.3401C37.6146 11.2969 37.6146 11.2536 37.6146 11.2104C37.0014 8.22642 34.5869 6.02091 31.7508 6.15064C28.7614 6.28038 26.2702 9.00484 26.1553 12.378C26.002 16.1403 28.6464 19.254 31.9807 19.254C34.3953 19.254 36.4648 17.5674 37.3463 15.1889C37.3846 15.1025 37.3463 15.016 37.2697 15.016L35.3917 14.6268C35.3534 14.6268 35.2767 14.6268 35.2767 14.7132C34.5869 16.0106 33.3605 16.9188 31.9424 16.9188ZM31.9424 8.52914C33.0539 8.52914 34.0503 9.09133 34.7019 9.95624C34.7402 10.0427 34.7402 10.1292 34.6635 10.1725C34.6635 10.1725 28.4548 13.1564 28.3781 13.1997C28.3015 13.2429 28.2248 13.1564 28.2248 13.1132V12.7672C28.2248 10.3887 29.9112 8.52914 31.9424 8.52914Z" fill="#7A7B82"/>
<path d="M19.2183 6.02069C17.7619 6.06394 16.6122 6.71262 15.8073 7.79376C15.7307 7.88025 15.6157 7.837 15.6157 7.70727V6.49639C15.6157 6.4099 15.5774 6.36666 15.5007 6.36666H13.6228C13.5461 6.36666 13.5078 6.4099 13.5078 6.49639V24.6162C13.5078 24.7027 13.5461 24.746 13.6228 24.746H15.4624C15.5391 24.746 15.5774 24.7027 15.5774 24.6162V17.4807C15.5774 17.351 15.6924 17.3078 15.769 17.3942C16.5738 18.4754 17.7619 19.1673 19.295 19.1673C22.8592 19.1673 25.6953 15.5347 25.0054 11.3831C24.5455 8.22621 22.0161 5.97745 19.2183 6.02069ZM19.9465 16.7456C17.417 17.2213 15.2325 14.7563 15.654 11.9021C15.9223 10.1723 17.1487 8.74516 18.6817 8.48569C21.2112 8.00999 23.3958 10.475 22.9742 13.3292C22.7442 15.059 21.4795 16.4429 19.9465 16.7456Z" fill="#7A7B82"/>
<path d="M6.60915 6.1524C3.38982 6.1524 0.783691 9.0931 0.783691 12.7257C0.783691 16.3583 3.38982 19.299 6.60915 19.299C9.82848 19.299 12.4346 16.3583 12.4346 12.7257C12.4346 9.0931 9.82848 6.1524 6.60915 6.1524ZM6.60915 8.53091C8.67871 8.53091 10.3267 10.4337 10.3267 12.7257C10.3267 15.0177 8.64039 16.9205 6.60915 16.9205C4.5779 16.9205 2.89159 15.0177 2.89159 12.7257C2.89159 10.4337 4.5779 8.53091 6.60915 8.53091Z" fill="#7A7B82"/>
</svg>
