<svg width="165" height="34" viewBox="0 0 165 34" fill="none" xmlns="http://www.w3.org/2000/svg">
<path d="M21.6965 23.4661C24.2244 22.5272 25.544 20.7193 25.544 17.6077C25.544 14.4961 22.9219 11.7543 19.6456 11.7488C16.1881 11.7432 13.58 14.4848 13.6216 17.6077C13.6633 20.7307 15.1528 22.8082 17.5365 23.5594L13.3137 33.9482C7.66197 32.485 1.91382 25.8176 1.91382 17.6077C1.91382 7.88381 9.72699 0.000843048 19.5201 0.000843048C29.3132 0.000843048 37.2519 7.88381 37.2519 17.6077C37.2519 25.9453 31.5582 32.5199 25.7859 33.9773L21.6965 23.4661Z" fill="#7A7B82" stroke="#7A7B82" stroke-width="0.234464" stroke-linecap="round" stroke-linejoin="round"/>
<path d="M54.8143 6.07254C54.8143 7.99943 54.3244 9.50352 53.3444 10.5848C52.371 11.6591 51.0056 12.1963 49.2482 12.1963C47.5627 12.1963 46.2202 11.6453 45.2206 10.5432C44.2276 9.44114 43.7311 7.95091 43.7311 6.07254C43.7311 4.15257 44.2178 2.66235 45.1912 1.60186C46.1712 0.534442 47.5431 0.000732422 49.307 0.000732422C50.398 0.000732422 51.3616 0.246794 52.1979 0.738914C53.0341 1.23104 53.6776 1.93803 54.1284 2.85989C54.5857 3.77481 54.8143 4.8457 54.8143 6.07254ZM47.6215 6.07254C47.6215 7.0845 47.7489 7.85734 48.0037 8.39105C48.2585 8.91783 48.6864 9.18122 49.2874 9.18122C49.8819 9.18122 50.3 8.91783 50.5417 8.39105C50.79 7.85734 50.9141 7.0845 50.9141 6.07254C50.9141 5.0675 50.79 4.30852 50.5417 3.79561C50.2935 3.2827 49.8688 3.02624 49.2678 3.02624C48.6798 3.02624 48.2585 3.2827 48.0037 3.79561C47.7489 4.30159 47.6215 5.06057 47.6215 6.07254Z" fill="#7A7B82"/>
<path d="M63.6546 12.1961C63.0928 12.1961 62.5898 12.099 62.1455 11.9049C61.7013 11.7039 61.2603 11.347 60.8226 10.8341H60.6462C60.7638 11.6589 60.8226 12.1718 60.8226 12.3728V17.1034H56.991V0.208426H60.1072L60.6462 1.70558H60.8226C61.5347 0.568851 62.5179 0.000488281 63.7722 0.000488281C65.0004 0.000488281 65.9641 0.541126 66.6631 1.6224C67.3621 2.70368 67.7116 4.18697 67.7116 6.07228C67.7116 7.97144 67.3458 9.4686 66.6141 10.5637C65.8889 11.6519 64.9025 12.1961 63.6546 12.1961ZM62.3709 3.19234C61.8091 3.19234 61.4138 3.40721 61.1852 3.83694C60.963 4.25975 60.8422 4.8905 60.8226 5.72918V6.05148C60.8226 7.06345 60.95 7.7947 61.2048 8.24523C61.4596 8.69576 61.8613 8.92103 62.4101 8.92103C62.9001 8.92103 63.2561 8.69923 63.4783 8.25563C63.7004 7.8051 63.8114 7.06345 63.8114 6.03069C63.8114 5.01872 63.7004 4.29441 63.4783 3.85774C63.2561 3.41414 62.887 3.19234 62.3709 3.19234Z" fill="#7A7B82"/>
<path d="M75.2536 12.1961C73.4048 12.1961 71.9675 11.6762 70.9418 10.6365C69.9227 9.58992 69.4131 8.10316 69.4131 6.17626C69.4131 4.18698 69.8867 2.6621 70.834 1.60161C71.7813 0.534198 73.1336 0.000488281 74.891 0.000488281C76.5635 0.000488281 77.8537 0.464884 78.7618 1.39368C79.6764 2.31554 80.1338 3.64634 80.1338 5.38609V7.19516H73.2839C73.31 7.85363 73.5354 8.37001 73.9601 8.7443C74.3912 9.11859 74.9759 9.30573 75.7142 9.30573C76.3871 9.30573 77.0044 9.23989 77.5663 9.10819C78.1347 8.96957 78.7488 8.73737 79.4086 8.4116V11.3331C78.8075 11.6589 78.1869 11.8842 77.5467 12.0089C76.9064 12.1337 76.1421 12.1961 75.2536 12.1961ZM75.0282 2.76607C74.5774 2.76607 74.1985 2.91856 73.8915 3.22353C73.5909 3.52158 73.4146 3.99291 73.3623 4.63752H76.6549C76.6419 4.06915 76.4883 3.61515 76.1943 3.27552C75.9069 2.93589 75.5182 2.76607 75.0282 2.76607Z" fill="#7A7B82"/>
<path d="M89.3228 11.9881V5.56283C89.3228 4.7796 89.215 4.19044 88.9994 3.79536C88.7904 3.39334 88.4507 3.19234 87.9803 3.19234C87.3335 3.19234 86.8664 3.46612 86.579 4.01369C86.2915 4.56126 86.1478 5.50045 86.1478 6.83125V11.9881H82.3162V0.208426H85.207L85.6872 1.66399H85.9126C86.2392 1.10949 86.69 0.693615 87.2649 0.416364C87.8464 0.139114 88.5127 0.000488281 89.264 0.000488281C90.4922 0.000488281 91.4461 0.378243 92.1255 1.13375C92.8115 1.88926 93.1544 2.95321 93.1544 4.3256V11.9881H89.3228Z" fill="#7A7B82"/>
<path d="M108.573 8.71441C108.573 9.83728 108.188 10.7002 107.417 11.3033C106.646 11.8994 105.542 12.1974 104.105 12.1974C102.661 12.1974 101.501 11.9652 100.626 11.5008V9.39021C101.9 10.014 103.086 10.3259 104.183 10.3259C105.601 10.3259 106.31 9.87194 106.31 8.96394C106.31 8.67282 106.231 8.43023 106.074 8.23615C105.918 8.04208 105.66 7.84107 105.3 7.63313C104.941 7.42519 104.441 7.18952 103.801 6.92613C102.553 6.41322 101.707 5.9003 101.263 5.38738C100.825 4.87447 100.606 4.20906 100.606 3.39116C100.606 2.40692 100.979 1.64447 101.723 1.10383C102.475 0.556258 103.494 0.282471 104.781 0.282471C106.055 0.282471 107.26 0.556258 108.397 1.10383L107.652 2.94409C106.483 2.43118 105.5 2.17472 104.703 2.17472C103.487 2.17472 102.88 2.54208 102.88 3.2768C102.88 3.63722 103.037 3.9422 103.35 4.19173C103.67 4.44126 104.363 4.78436 105.428 5.22103C106.323 5.58839 106.973 5.92456 107.378 6.22954C107.783 6.53452 108.083 6.88801 108.279 7.29003C108.475 7.68511 108.573 8.15991 108.573 8.71441Z" fill="#7A7B82"/>
<path d="M120.667 6.21914C120.667 8.09752 120.213 9.5635 119.305 10.6171C118.397 11.6706 117.133 12.1974 115.513 12.1974C114.5 12.1974 113.605 11.9548 112.828 11.4696C112.05 10.9844 111.452 10.2878 111.034 9.37982C110.616 8.47182 110.407 7.41826 110.407 6.21914C110.407 4.35462 110.858 2.89904 111.759 1.85241C112.661 0.805785 113.932 0.282471 115.571 0.282471C117.139 0.282471 118.381 0.819647 119.295 1.894C120.21 2.96142 120.667 4.40314 120.667 6.21914ZM112.779 6.21914C112.779 8.87383 113.703 10.2012 115.552 10.2012C117.381 10.2012 118.296 8.87383 118.296 6.21914C118.296 3.59217 117.375 2.27869 115.532 2.27869C114.565 2.27869 113.863 2.61832 113.425 3.29759C112.994 3.97686 112.779 4.95071 112.779 6.21914Z" fill="#7A7B82"/>
<path d="M130.969 11.9878L130.646 10.4803H130.528C130.208 11.014 129.751 11.4333 129.156 11.7383C128.568 12.0433 127.895 12.1958 127.137 12.1958C125.824 12.1958 124.844 11.8492 124.197 11.1561C123.551 10.4629 123.227 9.41284 123.227 8.00578V0.48877H125.55V7.5795C125.55 8.45978 125.72 9.12172 126.059 9.56533C126.399 10.002 126.932 10.2203 127.657 10.2203C128.624 10.2203 129.332 9.91536 129.783 9.3054C130.241 8.68852 130.469 7.65921 130.469 6.2175V0.48877H132.782V11.9878H130.969Z" fill="#7A7B82"/>
<path d="M141.553 0.282471C142.017 0.282471 142.399 0.317128 142.699 0.386441L142.474 2.66338C142.147 2.58021 141.808 2.53862 141.455 2.53862C140.534 2.53862 139.786 2.85746 139.211 3.49514C138.642 4.13282 138.358 4.96112 138.358 5.98002V11.9895H136.055V0.490411H137.858L138.162 2.51782H138.28C138.639 1.83162 139.106 1.28751 139.681 0.885496C140.263 0.48348 140.886 0.282471 141.553 0.282471Z" fill="#7A7B82"/>
<path d="M149.098 12.1974C147.459 12.1974 146.211 11.6914 145.355 10.6794C144.506 9.66054 144.081 8.20149 144.081 6.30232C144.081 4.36848 144.525 2.88171 145.414 1.84202C146.309 0.802319 147.599 0.282471 149.285 0.282471C150.428 0.282471 151.457 0.507738 152.371 0.958274L151.676 2.9233C150.702 2.52128 149.899 2.32028 149.265 2.32028C147.39 2.32028 146.453 3.64069 146.453 6.28152C146.453 7.57074 146.684 8.54113 147.148 9.19267C147.619 9.83728 148.305 10.1596 149.206 10.1596C150.232 10.1596 151.202 9.88927 152.117 9.34863V11.48C151.705 11.7365 151.264 11.9201 150.794 12.031C150.33 12.1419 149.765 12.1974 149.098 12.1974Z" fill="#7A7B82"/>
<path d="M159.415 12.1974C157.729 12.1974 156.41 11.6775 155.456 10.6379C154.509 9.59122 154.035 8.15298 154.035 6.32311C154.035 4.44472 154.476 2.96835 155.358 1.894C156.24 0.819647 157.452 0.282471 158.994 0.282471C160.424 0.282471 161.555 0.743403 162.384 1.66527C163.214 2.58713 163.629 3.85556 163.629 5.47056V6.79097H156.407C156.439 7.90691 156.723 8.7664 157.259 9.36942C157.795 9.96551 158.549 10.2636 159.523 10.2636C160.163 10.2636 160.757 10.2012 161.306 10.0764C161.862 9.94472 162.456 9.72985 163.09 9.4318V11.4176C162.528 11.7018 161.96 11.9028 161.385 12.0206C160.81 12.1385 160.153 12.1974 159.415 12.1974ZM158.994 2.13313C158.262 2.13313 157.674 2.37919 157.23 2.87132C156.792 3.36344 156.531 4.08083 156.446 5.02349H161.365C161.352 4.0739 161.136 3.35651 160.718 2.87132C160.3 2.37919 159.725 2.13313 158.994 2.13313Z" fill="#7A7B82"/>
<path d="M46.1718 33.3712H43.8689V21.8722H46.1718V33.3712ZM43.7317 18.8259C43.7317 18.3892 43.8427 18.053 44.0649 17.8174C44.2935 17.5817 44.6169 17.4639 45.035 17.4639C45.4401 17.4639 45.7536 17.5817 45.9758 17.8174C46.2044 18.053 46.3188 18.3892 46.3188 18.8259C46.3188 19.2417 46.2044 19.571 45.9758 19.8136C45.7536 20.0492 45.4401 20.1671 45.035 20.1671C44.6169 20.1671 44.2935 20.0492 44.0649 19.8136C43.8427 19.571 43.7317 19.2417 43.7317 18.8259Z" fill="#7A7B82"/>
<path d="M59.0106 33.3743H56.698V26.3043C56.698 25.4171 56.5281 24.7551 56.1884 24.3185C55.8552 23.8818 55.3228 23.6635 54.5911 23.6635C53.6176 23.6635 52.9055 23.9684 52.4548 24.5784C52.004 25.1884 51.7786 26.2107 51.7786 27.6455V33.3743H49.4757V21.8752H51.2788L51.6022 23.3827H51.7198C52.0465 22.8352 52.5103 22.4124 53.1113 22.1143C53.7124 21.8163 54.3787 21.6672 55.1104 21.6672C57.7106 21.6672 59.0106 23.0708 59.0106 25.878V33.3743Z" fill="#7A7B82"/>
<path d="M64.5076 33.3712H62.2047V21.8722H64.5076V33.3712ZM62.0675 18.8259C62.0675 18.3892 62.1786 18.053 62.4007 17.8174C62.6293 17.5817 62.9527 17.4639 63.3708 17.4639C63.7759 17.4639 64.0895 17.5817 64.3116 17.8174C64.5402 18.053 64.6546 18.3892 64.6546 18.8259C64.6546 19.2417 64.5402 19.571 64.3116 19.8136C64.0895 20.0492 63.7759 20.1671 63.3708 20.1671C62.9527 20.1671 62.6293 20.0492 62.4007 19.8136C62.1786 19.571 62.0675 19.2417 62.0675 18.8259Z" fill="#7A7B82"/>
<path d="M71.8484 31.6087C72.4102 31.6087 72.9721 31.5152 73.5339 31.328V33.1683C73.2791 33.2861 72.9492 33.3831 72.5442 33.4594C72.1457 33.5426 71.7308 33.5842 71.2996 33.5842C69.1176 33.5842 68.0266 32.3642 68.0266 29.9244V23.7279H66.5469V22.6466L68.1344 21.7525L68.9184 19.3196H70.3393V21.8772H73.4261V23.7279H70.3393V29.8828C70.3393 30.472 70.4765 30.9087 70.7509 31.1929C71.0318 31.4701 71.3976 31.6087 71.8484 31.6087Z" fill="#7A7B82"/>
<path d="M77.9954 33.3712H75.6925V21.8722H77.9954V33.3712ZM75.5553 18.8259C75.5553 18.3892 75.6664 18.053 75.8885 17.8174C76.1171 17.5817 76.4405 17.4639 76.8586 17.4639C77.2637 17.4639 77.5773 17.5817 77.7994 17.8174C78.028 18.053 78.1424 18.3892 78.1424 18.8259C78.1424 19.2417 78.028 19.571 77.7994 19.8136C77.5773 20.0492 77.2637 20.1671 76.8586 20.1671C76.4405 20.1671 76.1171 20.0492 75.8885 19.8136C75.6664 19.571 75.5553 19.2417 75.5553 18.8259Z" fill="#7A7B82"/>
<path d="M88.0779 33.3742L87.6173 31.7731H87.5389C87.0163 32.4731 86.4903 32.9514 85.9612 33.2079C85.432 33.4574 84.7526 33.5821 83.9229 33.5821C82.858 33.5821 82.025 33.2772 81.424 32.6672C80.8295 32.0573 80.5322 31.1943 80.5322 30.0784C80.5322 28.8931 80.9471 27.999 81.7768 27.396C82.6065 26.7929 83.8706 26.4637 85.5692 26.4082L87.4409 26.3459V25.7324C87.4409 24.9977 87.2776 24.4502 86.9509 24.0897C86.6308 23.7224 86.131 23.5387 85.4516 23.5387C84.8963 23.5387 84.3638 23.6253 83.8543 23.7986C83.3447 23.9719 82.8547 24.1764 82.3843 24.412L81.6396 22.6653C82.2275 22.3396 82.871 22.0935 83.5701 21.9272C84.2691 21.7539 84.929 21.6672 85.5496 21.6672C86.9281 21.6672 87.9668 21.9861 88.6658 22.6238C89.3714 23.2614 89.7242 24.263 89.7242 25.6285V33.3742H88.0779ZM84.648 31.7107C85.4843 31.7107 86.1539 31.4646 86.6569 30.9725C87.1665 30.4735 87.4213 29.7769 87.4213 28.8827V27.8846L86.0298 27.947C84.9453 27.9886 84.1548 28.1827 83.6583 28.5292C83.1683 28.8689 82.9233 29.3922 82.9233 30.0992C82.9233 30.6121 83.067 31.0106 83.3545 31.2948C83.6419 31.5721 84.0731 31.7107 84.648 31.7107Z" fill="#7A7B82"/>
<path d="M96.9823 31.6087C97.5442 31.6087 98.106 31.5152 98.6679 31.328V33.1683C98.4131 33.2861 98.0831 33.3831 97.6781 33.4594C97.2796 33.5426 96.8647 33.5842 96.4336 33.5842C94.2515 33.5842 93.1605 32.3642 93.1605 29.9244V23.7279H91.6808V22.6466L93.2683 21.7525L94.0523 19.3196H95.4732V21.8772H98.5601V23.7279H95.4732V29.8828C95.4732 30.472 95.6104 30.9087 95.8848 31.1929C96.1657 31.4701 96.5316 31.6087 96.9823 31.6087Z" fill="#7A7B82"/>
<path d="M103.129 33.3712H100.826V21.8722H103.129V33.3712ZM100.689 18.8259C100.689 18.3892 100.8 18.053 101.022 17.8174C101.251 17.5817 101.574 17.4639 101.993 17.4639C102.398 17.4639 102.711 17.5817 102.933 17.8174C103.162 18.053 103.276 18.3892 103.276 18.8259C103.276 19.2417 103.162 19.571 102.933 19.8136C102.711 20.0492 102.398 20.1671 101.993 20.1671C101.574 20.1671 101.251 20.0492 101.022 19.8136C100.8 19.571 100.689 19.2417 100.689 18.8259Z" fill="#7A7B82"/>
<path d="M108.899 33.3733L104.783 21.8743H107.213L109.418 28.5595C109.797 29.6824 110.026 30.5904 110.104 31.2835H110.183C110.241 30.7845 110.47 29.8765 110.868 28.5595L113.073 21.8743H115.523L111.388 33.3733H108.899Z" fill="#7A7B82"/>
<path d="M121.896 33.5821C120.211 33.5821 118.891 33.0623 117.937 32.0226C116.99 30.976 116.516 29.5377 116.516 27.7079C116.516 25.8295 116.957 24.3531 117.839 23.2788C118.721 22.2044 119.933 21.6672 121.475 21.6672C122.905 21.6672 124.036 22.1282 124.865 23.05C125.695 23.9719 126.11 25.2403 126.11 26.8553V28.1757H118.888C118.92 29.2917 119.204 30.1511 119.74 30.7542C120.276 31.3503 121.03 31.6483 122.004 31.6483C122.644 31.6483 123.239 31.5859 123.787 31.4612C124.343 31.3295 124.937 31.1146 125.571 30.8166V32.8024C125.009 33.0866 124.441 33.2876 123.866 33.4054C123.291 33.5232 122.634 33.5821 121.896 33.5821ZM121.475 23.5179C120.743 23.5179 120.155 23.764 119.711 24.2561C119.273 24.7482 119.012 25.4656 118.927 26.4082H123.846C123.833 25.4587 123.617 24.7413 123.199 24.2561C122.781 23.764 122.206 23.5179 121.475 23.5179Z" fill="#7A7B82"/>
<path d="M130.682 20.251H131.171C131.412 20.251 131.605 20.1892 131.75 20.0655C131.898 19.9388 131.972 19.7789 131.972 19.5859C131.972 19.3597 131.907 19.1983 131.777 19.1018C131.648 19.0022 131.443 18.9525 131.162 18.9525H130.682V20.251ZM132.646 19.5678C132.646 19.8091 132.581 20.0233 132.452 20.2103C132.325 20.3943 132.145 20.5315 131.913 20.622L132.99 22.4093H132.23L131.293 20.8075H130.682V22.4093H130.013V18.3778H131.194C131.694 18.3778 132.061 18.4759 132.293 18.6719C132.528 18.868 132.646 19.1666 132.646 19.5678ZM127.864 20.3913C127.864 19.788 128.014 19.2224 128.316 18.6945C128.618 18.1667 129.032 17.7504 129.56 17.4458C130.088 17.1411 130.657 16.9888 131.266 16.9888C131.869 16.9888 132.435 17.1396 132.963 17.4412C133.491 17.7429 133.907 18.1576 134.212 18.6855C134.516 19.2134 134.669 19.782 134.669 20.3913C134.669 20.9855 134.522 21.5435 134.23 22.0654C133.937 22.5872 133.527 23.005 132.999 23.3187C132.471 23.6324 131.894 23.7893 131.266 23.7893C130.642 23.7893 130.066 23.6339 129.538 23.3232C129.01 23.0095 128.598 22.5917 128.303 22.0699C128.01 21.5481 127.864 20.9885 127.864 20.3913ZM128.339 20.3913C128.339 20.9131 128.47 21.4018 128.732 21.8573C128.995 22.3097 129.352 22.6672 129.805 22.9296C130.26 23.189 130.747 23.3187 131.266 23.3187C131.791 23.3187 132.278 23.1875 132.728 22.9251C133.177 22.6626 133.533 22.3082 133.795 21.8618C134.061 21.4123 134.194 20.9222 134.194 20.3913C134.194 19.8664 134.062 19.3793 133.8 18.9298C133.537 18.4804 133.182 18.1244 132.732 17.862C132.286 17.5966 131.797 17.4639 131.266 17.4639C130.741 17.4639 130.254 17.5951 129.805 17.8575C129.355 18.1199 128.998 18.4759 128.732 18.9253C128.47 19.3717 128.339 19.8604 128.339 20.3913Z" fill="#7A7B82"/>
<path d="M54.8132 6.0765C54.8132 8.00473 54.3229 9.50986 53.3423 10.5919C52.3682 11.667 51.0018 12.2045 49.2432 12.2045C47.5566 12.2045 46.2131 11.6531 45.2128 10.5503C44.2191 9.44744 43.7223 7.95618 43.7223 6.0765C43.7223 4.1552 44.2093 2.66395 45.1834 1.60272C46.1641 0.534567 47.5369 0.000488281 49.3021 0.000488281C50.3939 0.000488281 51.3581 0.24672 52.1949 0.739181C53.0318 1.23164 53.6757 1.93912 54.1268 2.86162C54.5844 3.77719 54.8132 4.84881 54.8132 6.0765ZM47.6154 6.0765C47.6154 7.08917 47.7429 7.86254 47.9978 8.39662C48.2528 8.92376 48.681 9.18733 49.2825 9.18733C49.8774 9.18733 50.2958 8.92376 50.5377 8.39662C50.7861 7.86254 50.9103 7.08917 50.9103 6.0765C50.9103 5.07077 50.7861 4.31126 50.5377 3.798C50.2893 3.28473 49.8643 3.02809 49.2629 3.02809C48.6745 3.02809 48.2528 3.28473 47.9978 3.798C47.7429 4.30433 47.6154 5.06383 47.6154 6.0765Z" fill="black"/>
<path d="M63.6585 12.2045C63.0963 12.2045 62.5929 12.1074 62.1484 11.9132C61.7038 11.712 61.2625 11.3548 60.8245 10.8416H60.648C60.7657 11.667 60.8245 12.1802 60.8245 12.3814V17.1152H56.9902V0.20857H60.1086L60.648 1.70676H60.8245C61.5371 0.569245 62.521 0.000488281 63.7762 0.000488281C65.0053 0.000488281 65.9696 0.541501 66.6691 1.62353C67.3686 2.70555 67.7183 4.18987 67.7183 6.07648C67.7183 7.97697 67.3522 9.47516 66.62 10.5711C65.8944 11.66 64.9072 12.2045 63.6585 12.2045ZM62.3739 3.19455C61.8117 3.19455 61.4162 3.40957 61.1873 3.8396C60.9651 4.2627 60.8441 4.89389 60.8245 5.73315V6.05568C60.8245 7.06834 60.952 7.8001 61.207 8.25094C61.4619 8.70179 61.864 8.92721 62.4131 8.92721C62.9034 8.92721 63.2597 8.70525 63.482 8.26135C63.7043 7.8105 63.8154 7.06834 63.8154 6.03487C63.8154 5.0222 63.7043 4.29738 63.482 3.86041C63.2597 3.4165 62.8904 3.19455 62.3739 3.19455Z" fill="black"/>
<path d="M75.2658 12.2045C73.4157 12.2045 71.9774 11.6843 70.951 10.6439C69.9312 9.59656 69.4213 8.10877 69.4213 6.18054C69.4213 4.18988 69.8952 2.66395 70.8432 1.60272C71.7911 0.534567 73.1444 0.000488281 74.903 0.000488281C76.5766 0.000488281 77.8678 0.465206 78.7765 1.39464C79.6917 2.31714 80.1494 3.64887 80.1494 5.38983V7.20015H73.2948C73.3209 7.85907 73.5465 8.37581 73.9714 8.75036C74.4029 9.12491 74.988 9.31218 75.7267 9.31218C76.4001 9.31218 77.0179 9.24629 77.5801 9.1145C78.1489 8.97578 78.7634 8.74342 79.4237 8.41743V11.341C78.8222 11.667 78.2012 11.8924 77.5605 12.0173C76.9198 12.1421 76.1549 12.2045 75.2658 12.2045ZM75.0403 2.76799C74.5892 2.76799 74.21 2.92058 73.9027 3.22577C73.602 3.52402 73.4255 3.99567 73.3732 4.64073H76.6681C76.655 4.07197 76.5014 3.61766 76.2072 3.27779C75.9196 2.93792 75.5306 2.76799 75.0403 2.76799Z" fill="black"/>
<path d="M89.3449 11.9964V5.56668C89.3449 4.78291 89.237 4.19334 89.0213 3.79799C88.8121 3.3957 88.4721 3.19455 88.0014 3.19455C87.3542 3.19455 86.8868 3.46852 86.5991 4.01647C86.3115 4.56442 86.1676 5.50426 86.1676 6.83599V11.9964H82.3334V0.20857H85.2262L85.7067 1.66515H85.9323C86.2592 1.11026 86.7103 0.694095 87.2856 0.416653C87.8674 0.13921 88.5342 0.000488281 89.2861 0.000488281C90.5151 0.000488281 91.4696 0.378504 92.1495 1.13454C92.8359 1.89057 93.1792 2.95525 93.1792 4.3286V11.9964H89.3449Z" fill="black"/>
<path d="M108.609 8.7205C108.609 9.84415 108.223 10.7077 107.452 11.3111C106.681 11.9076 105.576 12.2059 104.137 12.2059C102.693 12.2059 101.532 11.9735 100.656 11.5088V9.39677C101.931 10.021 103.118 10.3331 104.216 10.3331C105.635 10.3331 106.344 9.87883 106.344 8.9702C106.344 8.67888 106.265 8.43612 106.109 8.24191C105.952 8.0477 105.693 7.84655 105.334 7.63847C104.974 7.43038 104.474 7.19455 103.833 6.93098C102.585 6.41771 101.738 5.90444 101.294 5.39116C100.856 4.87789 100.637 4.21202 100.637 3.39356C100.637 2.40863 101.009 1.64566 101.755 1.10464C102.506 0.556692 103.526 0.282715 104.814 0.282715C106.089 0.282715 107.295 0.556692 108.433 1.10464L107.687 2.94618C106.517 2.43291 105.533 2.17627 104.736 2.17627C103.52 2.17627 102.912 2.54389 102.912 3.27912C102.912 3.63979 103.069 3.94498 103.382 4.19468C103.703 4.44438 104.396 4.78772 105.461 5.2247C106.357 5.59231 107.007 5.92871 107.413 6.2339C107.818 6.53909 108.119 6.89283 108.315 7.29513C108.511 7.69049 108.609 8.16561 108.609 8.7205Z" fill="black"/>
<path d="M120.711 6.2235C120.711 8.10318 120.257 9.57017 119.348 10.6245C118.44 11.6788 117.175 12.2059 115.553 12.2059C114.54 12.2059 113.644 11.9631 112.866 11.4776C112.088 10.9921 111.49 10.295 111.072 9.38637C110.653 8.47774 110.444 7.42345 110.444 6.2235C110.444 4.35768 110.895 2.9011 111.797 1.85375C112.7 0.806392 113.971 0.282715 115.612 0.282715C117.181 0.282715 118.423 0.820264 119.338 1.89536C120.254 2.96352 120.711 4.40624 120.711 6.2235ZM112.817 6.2235C112.817 8.88003 113.742 10.2083 115.592 10.2083C117.423 10.2083 118.338 8.88003 118.338 6.2235C118.338 3.59471 117.416 2.28032 115.573 2.28032C114.605 2.28032 113.902 2.62019 113.464 3.29993C113.033 3.97966 112.817 4.95419 112.817 6.2235Z" fill="black"/>
<path d="M131.02 11.996L130.696 10.4874H130.579C130.258 11.0215 129.801 11.4411 129.206 11.7463C128.617 12.0515 127.944 12.2041 127.186 12.2041C125.872 12.2041 124.891 11.8573 124.244 11.1637C123.597 10.4701 123.273 9.41927 123.273 8.01123V0.489014H125.597V7.58466C125.597 8.46555 125.767 9.12795 126.107 9.57186C126.447 10.0088 126.98 10.2273 127.705 10.2273C128.673 10.2273 129.382 9.92213 129.833 9.31176C130.291 8.69444 130.52 7.66443 130.52 6.22172V0.489014H132.834V11.996H131.02Z" fill="black"/>
<path d="M141.612 0.282715C142.076 0.282715 142.459 0.317396 142.759 0.386757L142.534 2.66528C142.207 2.58204 141.867 2.54043 141.514 2.54043C140.592 2.54043 139.844 2.85949 139.268 3.49761C138.7 4.13574 138.415 4.9646 138.415 5.98421V11.9978H136.111V0.490799H137.915L138.219 2.51962H138.337C138.696 1.83294 139.164 1.28845 139.739 0.886158C140.321 0.483863 140.945 0.282715 141.612 0.282715Z" fill="black"/>
<path d="M149.162 12.2059C147.521 12.2059 146.272 11.6996 145.416 10.6869C144.566 9.66728 144.141 8.20723 144.141 6.30673C144.141 4.37155 144.586 2.88376 145.475 1.84334C146.37 0.802923 147.661 0.282715 149.348 0.282715C150.492 0.282715 151.522 0.508138 152.437 0.958986L151.741 2.92537C150.767 2.52308 149.963 2.32193 149.329 2.32193C147.452 2.32193 146.514 3.64326 146.514 6.28592C146.514 7.57604 146.746 8.5471 147.21 9.19909C147.681 9.84415 148.368 10.1667 149.27 10.1667C150.296 10.1667 151.267 9.89617 152.182 9.35515V11.488C151.77 11.7446 151.329 11.9285 150.858 12.0394C150.394 12.1504 149.829 12.2059 149.162 12.2059Z" fill="black"/>
<path d="M159.486 12.2059C157.799 12.2059 156.479 11.6857 155.524 10.6453C154.576 9.59792 154.102 8.15867 154.102 6.32754C154.102 4.44785 154.544 2.97046 155.426 1.89536C156.309 0.820264 157.521 0.282715 159.064 0.282715C160.496 0.282715 161.627 0.743967 162.457 1.66647C163.288 2.58897 163.703 3.85828 163.703 5.4744V6.79573H156.475C156.508 7.91244 156.792 8.77252 157.329 9.37596C157.865 9.97247 158.62 10.2707 159.594 10.2707C160.234 10.2707 160.829 10.2083 161.379 10.0834C161.934 9.95166 162.529 9.73664 163.163 9.43839V11.4256C162.601 11.71 162.032 11.9111 161.457 12.029C160.882 12.1469 160.225 12.2059 159.486 12.2059ZM159.064 2.13466C158.332 2.13466 157.744 2.38089 157.299 2.87335C156.861 3.36582 156.6 4.08371 156.515 5.02702H161.437C161.424 4.07677 161.209 3.35888 160.79 2.87335C160.372 2.38089 159.796 2.13466 159.064 2.13466Z" fill="black"/>
<path d="M46.1641 33.3947H43.8596V21.8877H46.1641V33.3947ZM43.7223 18.8393C43.7223 18.4023 43.8334 18.0659 44.0557 17.8301C44.2845 17.5942 44.6081 17.4763 45.0265 17.4763C45.4318 17.4763 45.7457 17.5942 45.9679 17.8301C46.1967 18.0659 46.3111 18.4023 46.3111 18.8393C46.3111 19.2554 46.1967 19.5849 45.9679 19.8277C45.7457 20.0635 45.4318 20.1814 45.0265 20.1814C44.6081 20.1814 44.2845 20.0635 44.0557 19.8277C43.8334 19.5849 43.7223 19.2554 43.7223 18.8393Z" fill="black"/>
<path d="M59.0119 33.397H56.6976V26.3222C56.6976 25.4343 56.5276 24.7719 56.1877 24.335C55.8542 23.898 55.3214 23.6795 54.5892 23.6795C53.6151 23.6795 52.9025 23.9847 52.4515 24.5951C52.0004 25.2054 51.7748 26.2285 51.7748 27.6643V33.397H49.4703V21.89H51.2747L51.5983 23.3986H51.716C52.0429 22.8506 52.507 22.4275 53.1085 22.1293C53.7099 21.831 54.3768 21.6819 55.109 21.6819C57.7109 21.6819 59.0119 23.0865 59.0119 25.8956V33.397Z" fill="black"/>
<path d="M64.5127 33.3947H62.2082V21.8877H64.5127V33.3947ZM62.0709 18.8393C62.0709 18.4023 62.1821 18.0659 62.4043 17.8301C62.6332 17.5942 62.9568 17.4763 63.3752 17.4763C63.7805 17.4763 64.0943 17.5942 64.3166 17.8301C64.5454 18.0659 64.6598 18.4023 64.6598 18.8393C64.6598 19.2554 64.5454 19.5849 64.3166 19.8277C64.0943 20.0635 63.7805 20.1814 63.3752 20.1814C62.9568 20.1814 62.6332 20.0635 62.4043 19.8277C62.1821 19.5849 62.0709 19.2554 62.0709 18.8393Z" fill="black"/>
<path d="M71.8585 31.6307C72.4208 31.6307 72.983 31.537 73.5452 31.3498V33.1913C73.2903 33.3092 72.9601 33.4063 72.5548 33.4826C72.156 33.5658 71.7409 33.6075 71.3094 33.6075C69.1259 33.6075 68.0341 32.3867 68.0341 29.9452V23.7444H66.5533V22.6623L68.142 21.7676L68.9265 19.333H70.3484V21.8924H73.4374V23.7444H70.3484V29.9036C70.3484 30.4932 70.4857 30.9301 70.7602 31.2145C71.0414 31.492 71.4075 31.6307 71.8585 31.6307Z" fill="black"/>
<path d="M78.0096 33.3947H75.7052V21.8877H78.0096V33.3947ZM75.5679 18.8393C75.5679 18.4023 75.679 18.0659 75.9013 17.8301C76.1301 17.5942 76.4537 17.4763 76.8721 17.4763C77.2774 17.4763 77.5912 17.5942 77.8135 17.8301C78.0423 18.0659 78.1567 18.4023 78.1567 18.8393C78.1567 19.2554 78.0423 19.5849 77.8135 19.8277C77.5912 20.0635 77.2774 20.1814 76.8721 20.1814C76.4537 20.1814 76.1301 20.0635 75.9013 19.8277C75.679 19.5849 75.5679 19.2554 75.5679 18.8393Z" fill="black"/>
<path d="M88.0993 33.397L87.6384 31.7947H87.56C87.037 32.4953 86.5107 32.9739 85.9812 33.2305C85.4516 33.4802 84.7717 33.605 83.9414 33.605C82.8758 33.605 82.0423 33.2999 81.4408 32.6895C80.8459 32.0791 80.5485 31.2156 80.5485 30.0988C80.5485 28.9128 80.9636 28.018 81.7939 27.4146C82.6241 26.8111 83.8892 26.4817 85.5889 26.4262L87.4619 26.3638V25.7499C87.4619 25.0147 87.2985 24.4667 86.9716 24.1061C86.6513 23.7384 86.1511 23.5546 85.4712 23.5546C84.9155 23.5546 84.3827 23.6413 83.8728 23.8147C83.3629 23.9881 82.8726 24.1928 82.4019 24.4286L81.6566 22.6807C82.245 22.3547 82.8889 22.1085 83.5884 21.942C84.2879 21.7686 84.9482 21.6819 85.5693 21.6819C86.9487 21.6819 87.9882 22.0009 88.6877 22.6391C89.3938 23.2772 89.7468 24.2795 89.7468 25.6459V33.397H88.0993ZM84.6671 31.7323C85.5039 31.7323 86.174 31.4861 86.6774 30.9936C87.1873 30.4942 87.4423 29.7971 87.4423 28.9024V27.9036L86.0498 27.966C84.9646 28.0076 84.1735 28.2018 83.6767 28.5486C83.1864 28.8885 82.9412 29.4122 82.9412 30.1197C82.9412 30.6329 83.085 31.0318 83.3727 31.3161C83.6603 31.5936 84.0918 31.7323 84.6671 31.7323Z" fill="black"/>
<path d="M97.0099 31.6307C97.5722 31.6307 98.1344 31.537 98.6966 31.3498V33.1913C98.4417 33.3092 98.1115 33.4063 97.7062 33.4826C97.3074 33.5658 96.8923 33.6075 96.4608 33.6075C94.2772 33.6075 93.1855 32.3867 93.1855 29.9452V23.7444H91.7047V22.6623L93.2933 21.7676L94.0778 19.333H95.4998V21.8924H98.5888V23.7444H95.4998V29.9036C95.4998 30.4932 95.637 30.9301 95.9116 31.2145C96.1927 31.492 96.5588 31.6307 97.0099 31.6307Z" fill="black"/>
<path d="M103.161 33.3947H100.857V21.8877H103.161V33.3947ZM100.719 18.8393C100.719 18.4023 100.83 18.0659 101.053 17.8301C101.282 17.5942 101.605 17.4763 102.024 17.4763C102.429 17.4763 102.743 17.5942 102.965 17.8301C103.194 18.0659 103.308 18.4023 103.308 18.8393C103.308 19.2554 103.194 19.5849 102.965 19.8277C102.743 20.0635 102.429 20.1814 102.024 20.1814C101.605 20.1814 101.282 20.0635 101.053 19.8277C100.83 19.5849 100.719 19.2554 100.719 18.8393Z" fill="black"/>
<path d="M108.935 33.3966L104.816 21.8896H107.248L109.455 28.5795C109.834 29.7032 110.063 30.6118 110.141 31.3054H110.219C110.278 30.806 110.507 29.8974 110.906 28.5795L113.112 21.8896H115.564L111.426 33.3966H108.935Z" fill="black"/>
<path d="M121.941 33.605C120.254 33.605 118.934 33.0848 117.979 32.0444C117.031 30.9971 116.557 29.5578 116.557 27.7267C116.557 25.847 116.999 24.3696 117.881 23.2945C118.764 22.2194 119.976 21.6819 121.519 21.6819C122.951 21.6819 124.082 22.1431 124.912 23.0656C125.742 23.9881 126.158 25.2574 126.158 26.8736V28.1949H118.93C118.963 29.3116 119.247 30.1717 119.784 30.7751C120.32 31.3716 121.075 31.6699 122.049 31.6699C122.689 31.6699 123.284 31.6074 123.834 31.4826C124.389 31.3508 124.984 31.1358 125.618 30.8375V32.8247C125.056 33.1091 124.487 33.3103 123.912 33.4282C123.337 33.5461 122.68 33.605 121.941 33.605ZM121.519 23.5338C120.787 23.5338 120.199 23.7801 119.754 24.2725C119.316 24.765 119.055 25.4829 118.97 26.4262H123.892C123.879 25.4759 123.664 24.758 123.245 24.2725C122.827 23.7801 122.251 23.5338 121.519 23.5338Z" fill="black"/>
<path d="M130.734 20.265H131.223C131.464 20.265 131.657 20.2031 131.802 20.0794C131.95 19.9526 132.024 19.7926 132.024 19.5994C132.024 19.373 131.959 19.2115 131.829 19.1149C131.7 19.0153 131.494 18.9655 131.214 18.9655H130.734V20.265ZM132.699 19.5813C132.699 19.8228 132.634 20.0371 132.504 20.2242C132.377 20.4084 132.198 20.5457 131.965 20.6363L133.043 22.4247H132.282L131.345 20.8219H130.734V22.4247H130.063V18.3905H131.245C131.746 18.3905 132.113 18.4886 132.345 18.6848C132.581 18.881 132.699 19.1798 132.699 19.5813ZM127.913 20.4054C127.913 19.8017 128.064 19.2357 128.366 18.7074C128.667 18.1792 129.082 17.7627 129.611 17.4578C130.139 17.1529 130.708 17.0005 131.318 17.0005C131.921 17.0005 132.487 17.1514 133.016 17.4533C133.544 17.7551 133.96 18.1702 134.265 18.6984C134.57 19.2266 134.723 19.7956 134.723 20.4054C134.723 21 134.576 21.5584 134.283 22.0806C133.991 22.6028 133.58 23.0209 133.052 23.3348C132.524 23.6487 131.946 23.8057 131.318 23.8057C130.693 23.8057 130.116 23.6502 129.588 23.3393C129.06 23.0254 128.648 22.6073 128.352 22.0851C128.059 21.5629 127.913 21.003 127.913 20.4054ZM128.388 20.4054C128.388 20.9276 128.52 21.4165 128.782 21.8723C129.045 22.3251 129.402 22.6828 129.855 22.9454C130.311 23.205 130.798 23.3348 131.318 23.3348C131.843 23.3348 132.33 23.2035 132.78 22.9409C133.23 22.6783 133.586 22.3236 133.849 21.8769C134.114 21.4271 134.247 20.9366 134.247 20.4054C134.247 19.8801 134.116 19.3926 133.853 18.9429C133.591 18.4931 133.234 18.137 132.785 17.8743C132.338 17.6087 131.849 17.4759 131.318 17.4759C130.792 17.4759 130.305 17.6072 129.855 17.8698C129.405 18.1324 129.048 18.4886 128.782 18.9384C128.52 19.3851 128.388 19.8741 128.388 20.4054Z" fill="black"/>
<path d="M21.6726 23.4817C24.2023 22.5422 25.5228 20.7331 25.5228 17.6193C25.5228 14.5056 22.8989 11.7618 19.6203 11.7563C16.1604 11.7508 13.5505 14.4942 13.5921 17.6193C13.6338 20.7444 15.1244 22.8234 17.5097 23.5752L13.284 33.9711C7.62835 32.5069 1.87622 25.8349 1.87622 17.6193C1.87622 7.88867 9.6948 0.000244141 19.4947 0.000244141C29.2946 0.000244141 37.2387 7.88867 37.2387 17.6193C37.2387 25.9626 31.5411 32.5418 25.7648 34.0002L21.6726 23.4817Z" fill="#3DA638" stroke="#7A7B82" stroke-width="0.306819" stroke-linecap="round" stroke-linejoin="round"/>
</svg>
