<svg width="623" height="428" viewBox="0 0 623 428" fill="none" xmlns="http://www.w3.org/2000/svg">
<rect y="342.4" width="256.529" height="85.6" fill="#7A9FB8"/>
<rect x="427.549" y="342.4" width="195.451" height="85.6" fill="#BFE3B9"/>
<rect x="513.059" y="85.6" width="256.8" height="85.5098" transform="rotate(90 513.059 85.6)" fill="#FFF1AC"/>
<rect x="171.02" y="256.8" width="85.5098" height="85.6" fill="#FFF1AC"/>
<path d="M427.549 342.4C427.549 389.676 389.265 428 342.039 428C294.813 428 256.529 389.676 256.529 342.4C256.529 295.124 294.813 256.8 342.039 256.8C389.265 256.8 427.549 295.124 427.549 342.4Z" fill="#E69D9B"/>
<path d="M513.059 42.8C513.059 66.4378 493.917 85.6 470.304 85.6C446.691 85.6 427.549 66.4378 427.549 42.8C427.549 19.1622 446.691 0 470.304 0C493.917 0 513.059 19.1622 513.059 42.8Z" fill="#E69D9B"/>
<path d="M256.529 128.4C256.529 152.038 237.387 171.2 213.775 171.2C190.162 171.2 171.02 152.038 171.02 128.4C171.02 104.762 190.162 85.6 213.775 85.6C237.387 85.6 256.529 104.762 256.529 128.4Z" fill="#E69D9B"/>
<path d="M342.039 85.6L342.039 171.2L342.039 256.8C294.813 256.8 256.529 218.476 256.529 171.2C256.529 123.924 294.813 85.6 342.039 85.6Z" fill="#BFE3B9"/>
<path d="M256.529 171.2L171.02 256.8L171.02 171.2L256.529 171.2Z" fill="#7A9FB8"/>
</svg>
