<svg width="165" height="34" viewBox="0 0 165 34" fill="none" xmlns="http://www.w3.org/2000/svg">
<path d="M19.2366 9.15381L9.0415 25.5L23.9942 33.3461L32.1503 29.423L19.2366 9.15381Z" fill="#9D9FA3"/>
<path d="M24.9584 32.8675L9.98608 24.8996V9.10086L24.9584 1.13303L39.9308 9.10086V24.8996L31.6465 29.3083L24.9584 32.8675Z" stroke="#7A7B82" stroke-width="2"/>
<path d="M19.2367 30.7308L31.4708 12.4231L40.9861 25.5L24.6741 34L22.635 32.6923L19.2367 30.7308Z" fill="#7A7B82"/>
<path d="M48.8762 16.0527V5.16876H51.6346L53.4336 10.0098C53.5478 10.3325 53.6563 10.6664 53.7591 11.0113C53.8619 11.3452 53.9704 11.6791 54.0846 12.0129H54.1532C54.2674 11.6791 54.3702 11.3452 54.4616 11.0113C54.5644 10.6664 54.6729 10.3325 54.7871 10.0098L56.5518 5.16876H59.293V16.0527H56.9972V12.063C56.9972 11.7959 57.0087 11.501 57.0315 11.1783C57.0543 10.8555 57.0829 10.5328 57.1172 10.2101C57.1514 9.87622 57.1857 9.55348 57.22 9.24188C57.2542 8.91915 57.2885 8.62423 57.3228 8.35714H57.2542L56.3462 10.9446L54.7528 15.1012H53.3651L51.7717 10.9446L50.8808 8.35714H50.8122C50.8465 8.62423 50.8808 8.91915 50.915 9.24188C50.9493 9.55348 50.9836 9.87622 51.0178 10.2101C51.0521 10.5328 51.0807 10.8555 51.1035 11.1783C51.1263 11.501 51.1378 11.7959 51.1378 12.063V16.0527H48.8762Z" fill="#7A7B82"/>
<path d="M64.548 16.253C64.1597 16.253 63.8056 16.1862 63.4858 16.0527C63.1774 15.9302 62.9147 15.7578 62.6977 15.5352C62.4807 15.3015 62.3093 15.0344 62.1837 14.7339C62.0695 14.4334 62.0124 14.1051 62.0124 13.749C62.0124 12.881 62.3893 12.2021 63.1431 11.7125C63.897 11.2228 65.1134 10.8945 66.7925 10.7276C66.7696 10.3603 66.6554 10.071 66.4498 9.85952C66.2556 9.63695 65.9244 9.52566 65.4561 9.52566C65.0906 9.52566 64.7251 9.59243 64.3596 9.72598C64.0055 9.85952 63.6229 10.0431 63.2117 10.2769L62.3036 8.65762C62.8519 8.33489 63.423 8.07336 64.0169 7.87305C64.6223 7.67273 65.2619 7.57257 65.9358 7.57257C67.0323 7.57257 67.8661 7.87861 68.4372 8.49069C69.0197 9.09164 69.311 10.032 69.311 11.3118V16.0527H67.255L67.0837 15.2013H67.0152C66.6497 15.5129 66.267 15.7689 65.8673 15.9692C65.4675 16.1584 65.0278 16.253 64.548 16.253ZM65.4047 14.35C65.6902 14.35 65.9358 14.2888 66.1414 14.1663C66.347 14.0439 66.564 13.8714 66.7925 13.6489V12.1966C65.9015 12.319 65.2848 12.497 64.9421 12.7307C64.5994 12.9644 64.4281 13.2427 64.4281 13.5654C64.4281 13.8325 64.5138 14.0328 64.6851 14.1663C64.8679 14.2888 65.1077 14.35 65.4047 14.35Z" fill="#7A7B82"/>
<path d="M72.1267 16.0527V7.77289H74.6452V16.0527H72.1267ZM73.3774 6.55429C72.9548 6.55429 72.6064 6.43744 72.3323 6.20373C72.0582 5.9589 71.9211 5.6473 71.9211 5.26892C71.9211 4.89054 72.0582 4.5845 72.3323 4.3508C72.6064 4.1171 72.9548 4.00024 73.3774 4.00024C73.8114 4.00024 74.1598 4.1171 74.4225 4.3508C74.6966 4.5845 74.8337 4.89054 74.8337 5.26892C74.8337 5.6473 74.6966 5.9589 74.4225 6.20373C74.1598 6.43744 73.8114 6.55429 73.3774 6.55429Z" fill="#7A7B82"/>
<path d="M77.547 16.0527V7.77289H79.6029L79.7743 8.82455H79.8428C80.2083 8.49069 80.6081 8.20134 81.0421 7.95651C81.4761 7.70055 81.9844 7.57257 82.5669 7.57257C83.4921 7.57257 84.1603 7.86748 84.5715 8.4573C84.9941 9.04713 85.2054 9.86509 85.2054 10.9112V16.0527H82.6869V11.2284C82.6869 10.6274 82.6012 10.2156 82.4299 9.99307C82.27 9.77049 82.0073 9.65921 81.6418 9.65921C81.3219 9.65921 81.0478 9.73154 80.8194 9.87622C80.5909 10.0098 80.3397 10.2045 80.0655 10.4605V16.0527H77.547Z" fill="#7A7B82"/>
<path d="M91.3093 16.253C90.7839 16.253 90.3327 16.1751 89.9558 16.0193C89.5903 15.8635 89.2876 15.6465 89.0477 15.3682C88.8193 15.09 88.648 14.7562 88.5337 14.3667C88.431 13.966 88.3796 13.5264 88.3796 13.0479V9.69259H87.2145V7.87305L88.5166 7.77289L88.8079 5.5694H90.8981V7.77289H92.9369V9.69259H90.8981V13.0145C90.8981 13.4819 90.9952 13.8214 91.1894 14.0328C91.395 14.2331 91.6634 14.3333 91.9946 14.3333C92.1317 14.3333 92.2687 14.3166 92.4058 14.2832C92.5543 14.2498 92.6856 14.2109 92.7999 14.1663L93.1939 15.9525C92.9655 16.0193 92.6971 16.0861 92.3887 16.1528C92.0803 16.2196 91.7205 16.253 91.3093 16.253Z" fill="#7A7B82"/>
<path d="M97.0879 16.253C96.6996 16.253 96.3455 16.1862 96.0257 16.0527C95.7173 15.9302 95.4546 15.7578 95.2375 15.5352C95.0205 15.3015 94.8492 15.0344 94.7236 14.7339C94.6093 14.4334 94.5522 14.1051 94.5522 13.749C94.5522 12.881 94.9291 12.2021 95.683 11.7125C96.4368 11.2228 97.6533 10.8945 99.3323 10.7276C99.3095 10.3603 99.1953 10.071 98.9897 9.85952C98.7955 9.63695 98.4642 9.52566 97.9959 9.52566C97.6304 9.52566 97.2649 9.59243 96.8994 9.72598C96.5454 9.85952 96.1627 10.0431 95.7515 10.2769L94.8435 8.65762C95.3917 8.33489 95.9628 8.07336 96.5568 7.87305C97.1621 7.67273 97.8018 7.57257 98.4757 7.57257C99.5722 7.57257 100.406 7.87861 100.977 8.49069C101.56 9.09164 101.851 10.032 101.851 11.3118V16.0527H99.7949L99.6236 15.2013H99.555C99.1895 15.5129 98.8069 15.7689 98.4071 15.9692C98.0074 16.1584 97.5676 16.253 97.0879 16.253ZM97.9445 14.35C98.2301 14.35 98.4757 14.2888 98.6813 14.1663C98.8869 14.0439 99.1039 13.8714 99.3323 13.6489V12.1966C98.4414 12.319 97.8246 12.497 97.482 12.7307C97.1393 12.9644 96.968 13.2427 96.968 13.5654C96.968 13.8325 97.0536 14.0328 97.225 14.1663C97.4077 14.2888 97.6476 14.35 97.9445 14.35Z" fill="#7A7B82"/>
<path d="M104.667 16.0527V7.77289H107.185V16.0527H104.667ZM105.917 6.55429C105.495 6.55429 105.146 6.43744 104.872 6.20373C104.598 5.9589 104.461 5.6473 104.461 5.26892C104.461 4.89054 104.598 4.5845 104.872 4.3508C105.146 4.1171 105.495 4.00024 105.917 4.00024C106.351 4.00024 106.7 4.1171 106.962 4.3508C107.236 4.5845 107.374 4.89054 107.374 5.26892C107.374 5.6473 107.236 5.9589 106.962 6.20373C106.7 6.43744 106.351 6.55429 105.917 6.55429Z" fill="#7A7B82"/>
<path d="M110.087 16.0527V7.77289H112.143L112.314 8.82455H112.383C112.748 8.49069 113.148 8.20134 113.582 7.95651C114.016 7.70055 114.524 7.57257 115.107 7.57257C116.032 7.57257 116.7 7.86748 117.111 8.4573C117.534 9.04713 117.745 9.86509 117.745 10.9112V16.0527H115.227V11.2284C115.227 10.6274 115.141 10.2156 114.97 9.99307C114.81 9.77049 114.547 9.65921 114.182 9.65921C113.862 9.65921 113.588 9.73154 113.359 9.87622C113.131 10.0098 112.88 10.2045 112.605 10.4605V16.0527H110.087Z" fill="#7A7B82"/>
<path d="M124.38 16.253C123.775 16.253 123.21 16.1584 122.684 15.9692C122.159 15.7689 121.702 15.4851 121.313 15.1179C120.925 14.7395 120.622 14.2832 120.405 13.749C120.188 13.2148 120.08 12.6028 120.08 11.9128C120.08 11.2451 120.194 10.6441 120.423 10.1099C120.651 9.56461 120.948 9.10833 121.313 8.74109C121.69 8.36271 122.119 8.07336 122.598 7.87305C123.078 7.67273 123.575 7.57257 124.089 7.57257C124.694 7.57257 125.22 7.67273 125.665 7.87305C126.122 8.07336 126.499 8.35158 126.796 8.7077C127.104 9.06382 127.333 9.48671 127.481 9.97638C127.63 10.4549 127.704 10.978 127.704 11.5455C127.704 11.7681 127.693 11.9795 127.67 12.1799C127.647 12.3802 127.624 12.5304 127.601 12.6306H122.513C122.627 13.2315 122.878 13.6767 123.267 13.966C123.666 14.2442 124.152 14.3834 124.723 14.3834C125.328 14.3834 125.939 14.1997 126.556 13.8325L127.396 15.3182C126.962 15.6075 126.476 15.8357 125.939 16.0026C125.414 16.1695 124.894 16.253 124.38 16.253ZM122.496 11.0113H125.562C125.562 10.5439 125.454 10.1656 125.237 9.87622C125.02 9.58687 124.654 9.4422 124.14 9.4422C123.741 9.4422 123.387 9.57018 123.078 9.82614C122.781 10.0821 122.587 10.4772 122.496 11.0113Z" fill="#7A7B82"/>
<path d="M130.13 16.0527V7.77289H132.186L132.357 9.22519H132.426C132.734 8.65762 133.105 8.24029 133.539 7.9732C133.973 7.70611 134.407 7.57257 134.841 7.57257C135.081 7.57257 135.275 7.58926 135.424 7.62265C135.584 7.64491 135.726 7.68386 135.852 7.7395L135.441 9.85952C135.281 9.81501 135.133 9.78162 134.995 9.75937C134.858 9.73711 134.698 9.72598 134.516 9.72598C134.196 9.72598 133.859 9.83727 133.505 10.0598C133.162 10.2824 132.877 10.6775 132.648 11.2451V16.0527H130.13Z" fill="#7A7B82"/>
<path d="M48.8762 29.7999V18.916H51.6346L53.4336 23.757C53.5478 24.0798 53.6563 24.4136 53.7591 24.7586C53.8619 25.0925 53.9704 25.4263 54.0846 25.7602H54.1532C54.2674 25.4263 54.3702 25.0925 54.4616 24.7586C54.5644 24.4136 54.6729 24.0798 54.7871 23.757L56.5518 18.916H59.293V29.7999H56.9972V25.8103C56.9972 25.5432 57.0087 25.2483 57.0315 24.9255C57.0543 24.6028 57.0829 24.2801 57.1172 23.9573C57.1514 23.6235 57.1857 23.3007 57.22 22.9891C57.2542 22.6664 57.2885 22.3715 57.3228 22.1044H57.2542L56.3462 24.6918L54.7528 28.8484H53.3651L51.7717 24.6918L50.8808 22.1044H50.8122C50.8465 22.3715 50.8808 22.6664 50.915 22.9891C50.9493 23.3007 50.9836 23.6235 51.0178 23.9573C51.0521 24.2801 51.0807 24.6028 51.1035 24.9255C51.1263 25.2483 51.1378 25.5432 51.1378 25.8103V29.7999H48.8762Z" fill="#7A7B82"/>
<path d="M66.0557 30.0002C65.5189 30.0002 64.9992 29.9056 64.4966 29.7165C63.9941 29.5161 63.5486 29.2324 63.1603 28.8651C62.7833 28.4979 62.4807 28.0471 62.2522 27.513C62.0238 26.9677 61.9096 26.35 61.9096 25.66C61.9096 24.9701 62.0238 24.358 62.2522 23.8238C62.4807 23.2785 62.7833 22.8222 63.1603 22.455C63.5486 22.0877 63.9941 21.8095 64.4966 21.6203C64.9992 21.42 65.5189 21.3198 66.0557 21.3198C66.5926 21.3198 67.1066 21.42 67.5977 21.6203C68.1003 21.8095 68.54 22.0877 68.9169 22.455C69.3053 22.8222 69.6137 23.2785 69.8421 23.8238C70.0706 24.358 70.1848 24.9701 70.1848 25.66C70.1848 26.35 70.0706 26.9677 69.8421 27.513C69.6137 28.0471 69.3053 28.4979 68.9169 28.8651C68.54 29.2324 68.1003 29.5161 67.5977 29.7165C67.1066 29.9056 66.5926 30.0002 66.0557 30.0002ZM66.0557 28.0138C66.5697 28.0138 66.9581 27.8023 67.2208 27.3794C67.4835 26.9565 67.6148 26.3834 67.6148 25.66C67.6148 24.9367 67.4835 24.3635 67.2208 23.9406C66.9581 23.5178 66.5697 23.3063 66.0557 23.3063C65.5303 23.3063 65.1363 23.5178 64.8736 23.9406C64.6223 24.3635 64.4966 24.9367 64.4966 25.66C64.4966 26.3834 64.6223 26.9565 64.8736 27.3794C65.1363 27.8023 65.5303 28.0138 66.0557 28.0138Z" fill="#7A7B82"/>
<path d="M75.148 30.0002C74.2228 30.0002 73.5489 29.7053 73.1263 29.1155C72.7151 28.5257 72.5095 27.7077 72.5095 26.6616V21.5201H75.028V26.3445C75.028 26.9454 75.1137 27.3572 75.285 27.5797C75.4564 27.8023 75.7248 27.9136 76.0903 27.9136C76.4101 27.9136 76.6785 27.8413 76.8955 27.6966C77.1125 27.5519 77.3467 27.3182 77.598 26.9955V21.5201H80.1165V29.7999H78.0606L77.8721 28.6481H77.8207C77.4552 29.071 77.0612 29.4049 76.6385 29.6497C76.2273 29.8834 75.7305 30.0002 75.148 30.0002Z" fill="#7A7B82"/>
<path d="M83.0181 29.7999V21.5201H85.0741L85.2454 22.5718H85.314C85.6795 22.238 86.0792 21.9486 86.5133 21.7038C86.9473 21.4478 87.4556 21.3198 88.0381 21.3198C88.9633 21.3198 89.6315 21.6147 90.0427 22.2046C90.4653 22.7944 90.6766 23.6123 90.6766 24.6585V29.7999H88.158V24.9756C88.158 24.3747 88.0724 23.9629 87.901 23.7403C87.7411 23.5178 87.4784 23.4065 87.1129 23.4065C86.7931 23.4065 86.519 23.4788 86.2905 23.6235C86.0621 23.757 85.8108 23.9518 85.5367 24.2077V29.7999H83.0181Z" fill="#7A7B82"/>
<path d="M96.7804 30.0002C96.255 30.0002 95.8039 29.9223 95.4269 29.7665C95.0614 29.6107 94.7588 29.3937 94.5189 29.1155C94.2905 28.8373 94.1191 28.5034 94.0049 28.1139C93.9021 27.7133 93.8507 27.2737 93.8507 26.7952V23.4399H92.6857V21.6203L93.9878 21.5201L94.279 19.3167H96.3693V21.5201H98.4081V23.4399H96.3693V26.7618C96.3693 27.2292 96.4663 27.5686 96.6605 27.7801C96.8661 27.9804 97.1345 28.0805 97.4658 28.0805C97.6028 28.0805 97.7399 28.0638 97.877 28.0305C98.0254 27.9971 98.1568 27.9581 98.271 27.9136L98.6651 29.6998C98.4366 29.7665 98.1682 29.8333 97.8598 29.9001C97.5514 29.9669 97.1916 30.0002 96.7804 30.0002Z" fill="#7A7B82"/>
<path d="M102.559 30.0002C102.171 30.0002 101.817 29.9335 101.497 29.7999C101.188 29.6775 100.926 29.505 100.709 29.2824C100.492 29.0487 100.32 28.7816 100.195 28.4812C100.08 28.1807 100.023 27.8524 100.023 27.4963C100.023 26.6282 100.4 25.9494 101.154 25.4597C101.908 24.9701 103.124 24.6418 104.803 24.4748C104.781 24.1076 104.666 23.8182 104.461 23.6068C104.267 23.3842 103.935 23.2729 103.467 23.2729C103.102 23.2729 102.736 23.3397 102.371 23.4732C102.017 23.6068 101.634 23.7904 101.223 24.0241L100.315 22.4049C100.863 22.0821 101.434 21.8206 102.028 21.6203C102.633 21.42 103.273 21.3198 103.947 21.3198C105.043 21.3198 105.877 21.6259 106.448 22.2379C107.031 22.8389 107.322 23.7793 107.322 25.0591V29.7999H105.266L105.095 28.9486H105.026C104.661 29.2602 104.278 29.5161 103.878 29.7165C103.479 29.9056 103.039 30.0002 102.559 30.0002ZM103.416 28.0972C103.701 28.0972 103.947 28.036 104.152 27.9136C104.358 27.7912 104.575 27.6187 104.803 27.3961V25.9438C103.913 26.0662 103.296 26.2443 102.953 26.478C102.61 26.7117 102.439 26.9899 102.439 27.3127C102.439 27.5797 102.525 27.7801 102.696 27.9136C102.879 28.036 103.119 28.0972 103.416 28.0972Z" fill="#7A7B82"/>
<path d="M110.138 29.7999V21.5201H112.656V29.7999H110.138ZM111.388 20.3015C110.966 20.3015 110.617 20.1847 110.343 19.951C110.069 19.7062 109.932 19.3946 109.932 19.0162C109.932 18.6378 110.069 18.3318 110.343 18.0981C110.617 17.8644 110.966 17.7475 111.388 17.7475C111.822 17.7475 112.171 17.8644 112.434 18.0981C112.708 18.3318 112.845 18.6378 112.845 19.0162C112.845 19.3946 112.708 19.7062 112.434 19.951C112.171 20.1847 111.822 20.3015 111.388 20.3015Z" fill="#7A7B82"/>
<path d="M115.558 29.7999V21.5201H117.614L117.785 22.5718H117.854C118.219 22.238 118.619 21.9486 119.053 21.7038C119.487 21.4478 119.995 21.3198 120.578 21.3198C121.503 21.3198 122.171 21.6147 122.583 22.2046C123.005 22.7944 123.216 23.6123 123.216 24.6585V29.7999H120.698V24.9756C120.698 24.3747 120.612 23.9629 120.441 23.7403C120.281 23.5178 120.018 23.4065 119.653 23.4065C119.333 23.4065 119.059 23.4788 118.83 23.6235C118.602 23.757 118.351 23.9518 118.077 24.2077V29.7999H115.558Z" fill="#7A7B82"/>
<path d="M129.851 30.0002C129.246 30.0002 128.681 29.9056 128.155 29.7165C127.63 29.5161 127.173 29.2324 126.785 28.8651C126.396 28.4867 126.094 28.0305 125.877 27.4963C125.66 26.9621 125.551 26.35 125.551 25.66C125.551 24.9923 125.665 24.3914 125.894 23.8572C126.122 23.3119 126.419 22.8556 126.785 22.4883C127.162 22.11 127.59 21.8206 128.07 21.6203C128.549 21.42 129.046 21.3198 129.56 21.3198C130.166 21.3198 130.691 21.42 131.136 21.6203C131.593 21.8206 131.97 22.0988 132.267 22.455C132.576 22.8111 132.804 23.234 132.952 23.7236C133.101 24.2022 133.175 24.7252 133.175 25.2928C133.175 25.5154 133.164 25.7268 133.141 25.9271C133.118 26.1274 133.095 26.2777 133.072 26.3778H127.984C128.098 26.9788 128.349 27.4239 128.738 27.7133C129.138 27.9915 129.623 28.1306 130.194 28.1306C130.799 28.1306 131.411 27.947 132.027 27.5797L132.867 29.0654C132.433 29.3548 131.947 29.5829 131.411 29.7498C130.885 29.9168 130.365 30.0002 129.851 30.0002ZM127.967 24.7586H131.034C131.034 24.2912 130.925 23.9128 130.708 23.6235C130.491 23.3341 130.126 23.1895 129.612 23.1895C129.212 23.1895 128.858 23.3174 128.549 23.5734C128.252 23.8294 128.058 24.2244 127.967 24.7586Z" fill="#7A7B82"/>
<path d="M139.404 30.0002C138.799 30.0002 138.234 29.9056 137.708 29.7165C137.183 29.5161 136.726 29.2324 136.338 28.8651C135.949 28.4867 135.647 28.0305 135.43 27.4963C135.213 26.9621 135.104 26.35 135.104 25.66C135.104 24.9923 135.218 24.3914 135.447 23.8572C135.675 23.3119 135.972 22.8556 136.338 22.4883C136.715 22.11 137.143 21.8206 137.623 21.6203C138.102 21.42 138.599 21.3198 139.113 21.3198C139.718 21.3198 140.244 21.42 140.689 21.6203C141.146 21.8206 141.523 22.0988 141.82 22.455C142.129 22.8111 142.357 23.234 142.505 23.7236C142.654 24.2022 142.728 24.7252 142.728 25.2928C142.728 25.5154 142.717 25.7268 142.694 25.9271C142.671 26.1274 142.648 26.2777 142.625 26.3778H137.537C137.651 26.9788 137.902 27.4239 138.291 27.7133C138.691 27.9915 139.176 28.1306 139.747 28.1306C140.352 28.1306 140.963 27.947 141.58 27.5797L142.42 29.0654C141.986 29.3548 141.5 29.5829 140.963 29.7498C140.438 29.9168 139.918 30.0002 139.404 30.0002ZM137.52 24.7586H140.587C140.587 24.2912 140.478 23.9128 140.261 23.6235C140.044 23.3341 139.679 23.1895 139.165 23.1895C138.765 23.1895 138.411 23.3174 138.102 23.5734C137.805 23.8294 137.611 24.2244 137.52 24.7586Z" fill="#7A7B82"/>
<path d="M145.154 29.7999V21.5201H147.21L147.381 22.9724H147.45C147.758 22.4049 148.129 21.9876 148.563 21.7205C148.997 21.4534 149.431 21.3198 149.865 21.3198C150.105 21.3198 150.299 21.3365 150.448 21.3699C150.608 21.3922 150.751 21.4311 150.876 21.4868L150.465 23.6068C150.305 23.5623 150.157 23.5289 150.02 23.5066C149.883 23.4844 149.723 23.4732 149.54 23.4732C149.22 23.4732 148.883 23.5845 148.529 23.8071C148.186 24.0297 147.901 24.4247 147.672 24.9923V29.7999H145.154Z" fill="#7A7B82"/>
</svg>
