<svg width="104" height="104" viewBox="0 0 104 104" fill="none" xmlns="http://www.w3.org/2000/svg">
<path fill-rule="evenodd" clip-rule="evenodd" d="M85.2134 51.8657C85.2134 58.4168 83.3075 64.695 80.0403 69.8814L93.3814 83.2567C99.9158 74.5218 104 63.6032 104 51.8657C104 40.1281 99.9158 29.2095 93.3814 20.4746L80.0403 33.8499C83.3075 39.0363 85.2134 45.0415 85.2134 51.8657Z" fill="#B8D3F4"/>
<path fill-rule="evenodd" clip-rule="evenodd" d="M52.0032 85.1654C33.7612 85.1654 18.7865 70.1522 18.7865 51.8635C18.7865 33.5748 33.7612 18.5617 52.0032 18.5617C58.8099 18.5617 64.7998 20.4724 69.9729 24.021L83.314 10.6457C74.6015 4.09449 63.7107 0 52.0032 0C23.4151 0 0 23.2021 0 52.1365C0 81.0709 23.4151 104 52.0032 104C63.983 104 74.8737 99.9055 83.5863 93.3543L70.2452 79.979C65.0721 83.2546 58.8099 85.1654 52.0032 85.1654Z" fill="#3385FF"/>
</svg>
