<svg width="33" height="26" viewBox="0 0 33 26" fill="none" xmlns="http://www.w3.org/2000/svg">
<path d="M20.4685 12.004C22.2971 12.004 23.7848 10.7952 23.7848 9.30935V2.6945C23.7848 1.20874 22.2971 0 20.4685 0C18.6398 0 17.1521 1.20874 17.1521 2.6945V9.3094C17.1522 10.7952 18.6399 12.004 20.4685 12.004Z" fill="#3C5869"/>
<path d="M26.7224 12.0038H29.1013C30.93 12.0038 32.4176 10.795 32.4176 9.30924C32.4176 7.82349 30.93 6.61475 29.1013 6.61475C27.2727 6.61475 25.7849 7.82349 25.7849 9.30924V11.2421C25.7849 11.6628 26.2047 12.0038 26.7224 12.0038Z" fill="#3C5869"/>
<path d="M3.73378 12.4032H11.8751C13.7037 12.4032 15.1914 11.1944 15.1914 9.70861C15.1914 8.2229 13.7037 7.01416 11.8751 7.01416H3.73378C1.90516 7.01421 0.41748 8.22296 0.41748 9.70866C0.41748 11.1944 1.90516 12.4032 3.73378 12.4032Z" fill="#3C5869"/>
<path d="M11.8751 5.389H14.2539C14.7717 5.389 15.1914 5.04795 15.1914 4.62728V2.6945C15.1914 1.20874 13.7038 0 11.8751 0C10.0465 0 8.55884 1.20874 8.55884 2.6945C8.55884 4.18025 10.0465 5.389 11.8751 5.389Z" fill="#3C5869"/>
<path d="M12.3664 13.9961C10.5377 13.9961 9.05005 15.2049 9.05005 16.6907V23.3055C9.05005 24.7913 10.5377 26.0001 12.3664 26.0001C14.1951 26.0001 15.6828 24.7913 15.6828 23.3055V16.6907C15.6828 15.2049 14.195 13.9961 12.3664 13.9961Z" fill="#3C5869"/>
<path d="M6.11265 13.9961H3.73378C1.90516 13.9961 0.41748 15.2049 0.41748 16.6907C0.41748 18.1764 1.90516 19.3852 3.73378 19.3852C5.56246 19.3852 7.05021 18.1764 7.05021 16.6907V14.7578C7.05015 14.3371 6.6304 13.9961 6.11265 13.9961Z" fill="#3C5869"/>
<path d="M29.1011 13.5967H20.9599C19.1312 13.5967 17.6436 14.8055 17.6436 16.2913C17.6436 17.777 19.1312 18.9857 20.9599 18.9857H29.1012C30.9298 18.9857 32.4175 17.777 32.4175 16.2913C32.4174 14.8055 30.9298 13.5967 29.1011 13.5967Z" fill="#3C5869"/>
<path d="M20.9599 20.6108H18.5811C18.0633 20.6108 17.6436 20.9519 17.6436 21.3726V23.3054C17.6436 24.7912 19.1312 26 20.9599 26C22.7885 26 24.2763 24.7912 24.2763 23.3054C24.2762 21.8196 22.7885 20.6108 20.9599 20.6108Z" fill="#3C5869"/>
</svg>
