<svg width="320" height="543" viewBox="0 0 320 543" fill="none" xmlns="http://www.w3.org/2000/svg">
<rect x="-17.7344" y="314.059" width="222.003" height="76.3136" fill="#BFE3B9"/>
<rect x="107.143" y="466.686" width="173.44" height="76.3136" fill="#7A9FB8"/>
<rect x="204.269" y="390.373" width="76.3137" height="76.3136" fill="#FFF1AC"/>
<path d="M433.21 466.686C433.21 508.833 399.043 543 356.896 543C314.75 543 280.583 508.833 280.583 466.686C280.583 424.54 314.75 390.373 356.896 390.373C399.043 390.373 433.21 424.54 433.21 466.686Z" fill="#E69D9B"/>
<path d="M280.583 275.902C280.583 296.976 263.499 314.059 242.426 314.059C221.352 314.059 204.269 296.976 204.269 275.902C204.269 254.829 221.352 237.746 242.426 237.746C263.499 237.746 280.583 254.829 280.583 275.902Z" fill="#E69D9B"/>
<path d="M358.631 236.011L358.631 313.08L358.631 390.15C316.484 390.15 282.317 355.645 282.317 313.08C282.317 270.516 316.484 236.011 358.631 236.011Z" fill="#BFE3B9"/>
<path d="M280.583 390.179L204.269 313.865L280.583 313.865L280.583 390.179Z" fill="#7A9FB8"/>
<rect x="358.631" y="76.4464" width="159.565" height="76.3137" transform="rotate(90 358.631 76.4464)" fill="#FFF1AC"/>
<path d="M358.631 38.2896C358.631 59.363 341.547 76.4464 320.474 76.4464C299.401 76.4464 282.317 59.363 282.317 38.2896C282.317 17.2162 299.401 0.132812 320.474 0.132812C341.547 0.132812 358.631 17.2162 358.631 38.2896Z" fill="#E69D9B"/>
</svg>
