<svg width="1043" height="712" viewBox="0 0 1043 712" fill="none" xmlns="http://www.w3.org/2000/svg">
<rect y="572.8" width="429.471" height="143.2" fill="#7A9FB8"/>
<rect x="715.784" y="572.8" width="327.216" height="143.2" fill="#BFE3B9"/>
<rect x="858.941" y="143.2" width="429.6" height="143.157" transform="rotate(90 858.941 143.2)" fill="#FFF1AC"/>
<rect x="286.314" y="429.6" width="143.157" height="143.2" fill="#FFF1AC"/>
<path d="M715.784 572.8C715.784 651.887 651.691 716 572.628 716C493.564 716 429.471 651.887 429.471 572.8C429.471 493.713 493.564 429.6 572.628 429.6C651.691 429.6 715.784 493.713 715.784 572.8Z" fill="#E69D9B"/>
<path d="M858.941 71.6C858.941 111.144 826.894 143.2 787.363 143.2C747.831 143.2 715.784 111.144 715.784 71.6C715.784 32.0564 747.831 0 787.363 0C826.894 0 858.941 32.0564 858.941 71.6Z" fill="#E69D9B"/>
<path d="M429.471 214.8C429.471 254.344 397.424 286.4 357.892 286.4C318.36 286.4 286.314 254.344 286.314 214.8C286.314 175.256 318.36 143.2 357.892 143.2C397.424 143.2 429.471 175.256 429.471 214.8Z" fill="#E69D9B"/>
<path d="M572.628 143.2L572.628 286.4L572.628 429.6C493.564 429.6 429.471 365.487 429.471 286.4C429.471 207.313 493.564 143.2 572.628 143.2Z" fill="#BFE3B9"/>
<path d="M429.471 286.4L286.314 429.6L286.314 286.4L429.471 286.4Z" fill="#7A9FB8"/>
</svg>
