<svg width="18" height="16" viewBox="0 0 18 16" fill="none" xmlns="http://www.w3.org/2000/svg">
<path d="M18 2.63964C17.3377 2.94042 16.626 3.14299 15.879 3.2343C16.6418 2.76701 17.2268 2.02656 17.5028 1.14415C16.7895 1.57691 15.999 1.89151 15.1575 2.06109C14.484 1.32677 13.524 0.86792 12.462 0.86792C10.4228 0.86792 8.769 2.55984 8.769 4.64615C8.769 4.94233 8.802 5.23084 8.86425 5.50707C5.79525 5.34977 3.07425 3.84508 1.2525 1.55927C0.93525 2.1171 0.753 2.76624 0.753 3.45912C0.753 4.76969 1.40475 5.92602 2.3955 6.60356C1.79025 6.58361 1.221 6.41403 0.723 6.13089C0.723 6.14701 0.723 6.16235 0.723 6.17847C0.723 8.00927 1.99575 9.53621 3.6855 9.88304C3.37575 9.96974 3.0495 10.0158 2.712 10.0158C2.47425 10.0158 2.2425 9.99199 2.0175 9.94826C2.48775 11.4491 3.85125 12.5418 5.4675 12.5725C4.20375 13.5861 2.6115 14.1899 0.88125 14.1899C0.5835 14.1899 0.2895 14.1723 0 14.137C1.63425 15.2089 3.57525 15.8343 5.661 15.8343C12.4537 15.8343 16.1677 10.0772 16.1677 5.08428C16.1677 4.92085 16.164 4.75741 16.1572 4.59551C16.8787 4.06223 17.505 3.39697 18 2.63964Z" fill="#9399A3"/>
</svg>
