<?xml version="1.0" encoding="UTF-8"?>
<svg width="18px" height="15px" viewBox="0 0 18 15" version="1.1" xmlns="http://www.w3.org/2000/svg" xmlns:xlink="http://www.w3.org/1999/xlink">
  <g id="main" transform="translate(-123.000000, -59.000000)" fill="#000000" fill-rule="nonzero">
    <g transform="translate(108.000000, 42.000000)">
      <g>
        <path d="M33,18.7756985 C32.33775,19.0771597 31.626,19.2801846 30.879,19.3716996 C31.64175,18.9033581 32.22675,18.1612407 32.50275,17.2768521 C31.7895,17.710587 30.999,18.0258908 30.1575,18.1958472 C29.484,17.4598821 28.524,17 27.462,17 C25.42275,17 23.769,18.695719 23.769,20.7867214 C23.769,21.0835683 23.802,21.3727249 23.86425,21.649577 C20.79525,21.4919251 18.07425,19.9838503 16.2525,17.6928993 C15.93525,18.2519867 15.753,18.9025891 15.753,19.5970264 C15.753,20.9105358 16.40475,22.0694694 17.3955,22.748526 C16.79025,22.7285311 16.221,22.5585747 15.723,22.2748013 C15.723,22.290951 15.723,22.3063317 15.723,22.3224814 C15.723,24.1573955 16.99575,25.6877724 18.6855,26.0353755 C18.37575,26.1222763 18.0495,26.1684184 17.712,26.1684184 C17.47425,26.1684184 17.2425,26.1445783 17.0175,26.1007434 C17.48775,27.6049731 18.85125,28.7000769 20.4675,28.7308382 C19.20375,29.7467316 17.6115,30.351961 15.88125,30.351961 C15.5835,30.351961 15.2895,30.3342733 15,30.2988977 C16.63425,31.3732376 18.57525,32 20.661,32 C27.45375,32 31.16775,26.229941 31.16775,21.2258395 C31.16775,21.0620354 31.164,20.8982312 31.15725,20.7359651 C31.87875,20.2014868 32.505,19.5347347 33,18.7756985 Z" id="twitter"></path>
      </g>
    </g>
  </g>
</svg>